
<svg height="432pt" version="1.1" viewBox="0 0 720 432" width="720pt" xmlns="http://www.w3.org/2000/svg" xmlns:xlink="http://www.w3.org/1999/xlink">
 <defs>
  <style type="text/css">
*{stroke-linecap:butt;stroke-linejoin:round;}
  </style>
 </defs>
 <g id="figure_1">
  <g id="patch_1">
   <path d="M 0 432 
L 720 432 
L 720 0 
L 0 0 
z
" style="fill:#ffffff;"/>
  </g>
  <g id="axes_1">
   <g id="patch_2">
    <path d="M 90 384.48 
L 475.2 384.48 
L 475.2 51.84 
L 90 51.84 
z
" style="fill:#eaeaf2;"/>
   </g>
   <g id="matplotlib.axis_1">
    <g id="xtick_1">
     <g id="line2d_1">
      <path clip-path="url(#p0a343a09f2)" d="M 90 384.48 
L 90 51.84 
" style="fill:none;stroke:#ffffff;stroke-linecap:round;"/>
     </g>
     <g id="line2d_2"/>
     <g id="text_1">
      <!-- 0 -->
      <defs>
       <path d="M 51.703125 34.421875 
Q 51.703125 24.515625 49.828125 17.75 
Q 47.953125 10.984375 44.703125 6.8125 
Q 41.453125 2.640625 37.0625 0.828125 
Q 32.671875 -0.984375 27.6875 -0.984375 
Q 22.65625 -0.984375 18.3125 0.828125 
Q 13.96875 2.640625 10.765625 6.78125 
Q 7.5625 10.9375 5.734375 17.703125 
Q 3.90625 24.46875 3.90625 34.421875 
Q 3.90625 44.828125 5.734375 51.640625 
Q 7.5625 58.453125 10.78125 62.5 
Q 14.015625 66.546875 18.40625 68.1875 
Q 22.796875 69.828125 27.984375 69.828125 
Q 32.90625 69.828125 37.21875 68.1875 
Q 41.546875 66.546875 44.765625 62.5 
Q 48 58.453125 49.84375 51.640625 
Q 51.703125 44.828125 51.703125 34.421875 
M 42.78125 34.421875 
Q 42.78125 42.625 41.796875 48.0625 
Q 40.828125 53.515625 38.921875 56.765625 
Q 37.015625 60.015625 34.25 61.359375 
Q 31.5 62.703125 27.984375 62.703125 
Q 24.265625 62.703125 21.4375 61.328125 
Q 18.609375 59.96875 16.671875 56.71875 
Q 14.75 53.46875 13.765625 48.015625 
Q 12.796875 42.578125 12.796875 34.421875 
Q 12.796875 26.515625 13.796875 21.09375 
Q 14.796875 15.671875 16.71875 12.375 
Q 18.65625 9.078125 21.4375 7.640625 
Q 24.21875 6.203125 27.78125 6.203125 
Q 31.25 6.203125 34.03125 7.640625 
Q 36.8125 9.078125 38.734375 12.375 
Q 40.671875 15.671875 41.71875 21.09375 
Q 42.78125 26.515625 42.78125 34.421875 
" id="LiberationSans-30"/>
      </defs>
      <g style="fill:#262626;" transform="translate(87.219531 398.726875)scale(0.1 -0.1)">
       <use xlink:href="#LiberationSans-30"/>
      </g>
     </g>
    </g>
    <g id="xtick_2">
     <g id="line2d_3">
      <path clip-path="url(#p0a343a09f2)" d="M 154.307179 384.48 
L 154.307179 51.84 
" style="fill:none;stroke:#ffffff;stroke-linecap:round;"/>
     </g>
     <g id="line2d_4"/>
     <g id="text_2">
      <!-- 100 -->
      <defs>
       <path d="M 7.625 0 
L 7.625 7.46875 
L 25.140625 7.46875 
L 25.140625 60.40625 
L 9.625 49.3125 
L 9.625 57.625 
L 25.875 68.796875 
L 33.984375 68.796875 
L 33.984375 7.46875 
L 50.734375 7.46875 
L 50.734375 0 
z
" id="LiberationSans-31"/>
      </defs>
      <g style="fill:#262626;" transform="translate(145.965772 398.726875)scale(0.1 -0.1)">
       <use xlink:href="#LiberationSans-31"/>
       <use x="55.615234" xlink:href="#LiberationSans-30"/>
       <use x="111.230469" xlink:href="#LiberationSans-30"/>
      </g>
     </g>
    </g>
    <g id="xtick_3">
     <g id="line2d_5">
      <path clip-path="url(#p0a343a09f2)" d="M 218.614357 384.48 
L 218.614357 51.84 
" style="fill:none;stroke:#ffffff;stroke-linecap:round;"/>
     </g>
     <g id="line2d_6"/>
     <g id="text_3">
      <!-- 200 -->
      <defs>
       <path d="M 5.03125 0 
L 5.03125 6.203125 
Q 7.515625 11.921875 11.109375 16.28125 
Q 14.703125 20.65625 18.65625 24.1875 
Q 22.609375 27.734375 26.484375 30.765625 
Q 30.375 33.796875 33.5 36.8125 
Q 36.625 39.84375 38.546875 43.15625 
Q 40.484375 46.484375 40.484375 50.6875 
Q 40.484375 53.609375 39.59375 55.828125 
Q 38.71875 58.0625 37.0625 59.5625 
Q 35.40625 61.078125 33.078125 61.828125 
Q 30.765625 62.59375 27.9375 62.59375 
Q 25.296875 62.59375 22.96875 61.859375 
Q 20.65625 61.140625 18.84375 59.671875 
Q 17.046875 58.203125 15.890625 56.03125 
Q 14.75 53.859375 14.40625 50.984375 
L 5.421875 51.8125 
Q 5.859375 55.515625 7.46875 58.78125 
Q 9.078125 62.0625 11.90625 64.53125 
Q 14.75 67 18.71875 68.40625 
Q 22.703125 69.828125 27.9375 69.828125 
Q 33.0625 69.828125 37.0625 68.609375 
Q 41.0625 67.390625 43.8125 64.984375 
Q 46.578125 62.59375 48.046875 59.078125 
Q 49.515625 55.5625 49.515625 50.984375 
Q 49.515625 47.515625 48.265625 44.390625 
Q 47.015625 41.265625 44.9375 38.421875 
Q 42.875 35.59375 40.140625 32.953125 
Q 37.40625 30.328125 34.421875 27.8125 
Q 31.453125 25.296875 28.421875 22.828125 
Q 25.390625 20.359375 22.71875 17.859375 
Q 20.0625 15.375 17.96875 12.8125 
Q 15.875 10.25 14.703125 7.46875 
L 50.59375 7.46875 
L 50.59375 0 
z
" id="LiberationSans-32"/>
      </defs>
      <g style="fill:#262626;" transform="translate(210.272951 398.726875)scale(0.1 -0.1)">
       <use xlink:href="#LiberationSans-32"/>
       <use x="55.615234" xlink:href="#LiberationSans-30"/>
       <use x="111.230469" xlink:href="#LiberationSans-30"/>
      </g>
     </g>
    </g>
    <g id="xtick_4">
     <g id="line2d_7">
      <path clip-path="url(#p0a343a09f2)" d="M 282.921536 384.48 
L 282.921536 51.84 
" style="fill:none;stroke:#ffffff;stroke-linecap:round;"/>
     </g>
     <g id="line2d_8"/>
     <g id="text_4">
      <!-- 300 -->
      <defs>
       <path d="M 51.21875 19 
Q 51.21875 14.265625 49.671875 10.546875 
Q 48.140625 6.84375 45.1875 4.265625 
Q 42.234375 1.703125 37.859375 0.359375 
Q 33.5 -0.984375 27.875 -0.984375 
Q 21.484375 -0.984375 17.109375 0.609375 
Q 12.75 2.203125 9.90625 4.8125 
Q 7.078125 7.421875 5.65625 10.765625 
Q 4.25 14.109375 3.8125 17.671875 
L 12.890625 18.5 
Q 13.28125 15.765625 14.328125 13.515625 
Q 15.375 11.28125 17.1875 9.671875 
Q 19 8.0625 21.625 7.171875 
Q 24.265625 6.296875 27.875 6.296875 
Q 34.515625 6.296875 38.296875 9.5625 
Q 42.09375 12.84375 42.09375 19.28125 
Q 42.09375 23.09375 40.40625 25.40625 
Q 38.71875 27.734375 36.203125 29.03125 
Q 33.6875 30.328125 30.734375 30.765625 
Q 27.78125 31.203125 25.296875 31.203125 
L 20.3125 31.203125 
L 20.3125 38.8125 
L 25.09375 38.8125 
Q 27.59375 38.8125 30.265625 39.328125 
Q 32.953125 39.84375 35.171875 41.1875 
Q 37.40625 42.53125 38.84375 44.828125 
Q 40.28125 47.125 40.28125 50.6875 
Q 40.28125 56.203125 37.03125 59.390625 
Q 33.796875 62.59375 27.390625 62.59375 
Q 21.578125 62.59375 17.984375 59.609375 
Q 14.40625 56.640625 13.8125 51.21875 
L 4.984375 51.90625 
Q 5.515625 56.453125 7.46875 59.8125 
Q 9.421875 63.1875 12.421875 65.40625 
Q 15.4375 67.625 19.28125 68.71875 
Q 23.140625 69.828125 27.484375 69.828125 
Q 33.25 69.828125 37.390625 68.375 
Q 41.546875 66.9375 44.1875 64.46875 
Q 46.828125 62.015625 48.0625 58.6875 
Q 49.3125 55.375 49.3125 51.609375 
Q 49.3125 48.578125 48.484375 45.9375 
Q 47.65625 43.3125 45.890625 41.203125 
Q 44.140625 39.109375 41.421875 37.59375 
Q 38.71875 36.078125 34.90625 35.296875 
L 34.90625 35.109375 
Q 39.0625 34.671875 42.140625 33.21875 
Q 45.21875 31.78125 47.21875 29.625 
Q 49.21875 27.484375 50.21875 24.75 
Q 51.21875 22.015625 51.21875 19 
" id="LiberationSans-33"/>
      </defs>
      <g style="fill:#262626;" transform="translate(274.58013 398.726875)scale(0.1 -0.1)">
       <use xlink:href="#LiberationSans-33"/>
       <use x="55.615234" xlink:href="#LiberationSans-30"/>
       <use x="111.230469" xlink:href="#LiberationSans-30"/>
      </g>
     </g>
    </g>
    <g id="xtick_5">
     <g id="line2d_9">
      <path clip-path="url(#p0a343a09f2)" d="M 347.228715 384.48 
L 347.228715 51.84 
" style="fill:none;stroke:#ffffff;stroke-linecap:round;"/>
     </g>
     <g id="line2d_10"/>
     <g id="text_5">
      <!-- 400 -->
      <defs>
       <path d="M 43.015625 15.578125 
L 43.015625 0 
L 34.71875 0 
L 34.71875 15.578125 
L 2.296875 15.578125 
L 2.296875 22.40625 
L 33.796875 68.796875 
L 43.015625 68.796875 
L 43.015625 22.515625 
L 52.6875 22.515625 
L 52.6875 15.578125 
z
M 34.71875 58.890625 
Q 34.625 58.640625 34.234375 57.9375 
Q 33.84375 57.234375 33.34375 56.34375 
Q 32.859375 55.46875 32.34375 54.5625 
Q 31.84375 53.65625 31.453125 53.078125 
L 13.8125 27.09375 
Q 13.578125 26.703125 13.109375 26.0625 
Q 12.640625 25.4375 12.15625 24.78125 
Q 11.671875 24.125 11.171875 23.484375 
Q 10.6875 22.859375 10.40625 22.515625 
L 34.71875 22.515625 
z
" id="LiberationSans-34"/>
      </defs>
      <g style="fill:#262626;" transform="translate(338.887308 398.726875)scale(0.1 -0.1)">
       <use xlink:href="#LiberationSans-34"/>
       <use x="55.615234" xlink:href="#LiberationSans-30"/>
       <use x="111.230469" xlink:href="#LiberationSans-30"/>
      </g>
     </g>
    </g>
    <g id="xtick_6">
     <g id="line2d_11">
      <path clip-path="url(#p0a343a09f2)" d="M 411.535893 384.48 
L 411.535893 51.84 
" style="fill:none;stroke:#ffffff;stroke-linecap:round;"/>
     </g>
     <g id="line2d_12"/>
     <g id="text_6">
      <!-- 500 -->
      <defs>
       <path d="M 51.421875 22.40625 
Q 51.421875 17.234375 49.859375 12.9375 
Q 48.296875 8.640625 45.21875 5.53125 
Q 42.140625 2.4375 37.578125 0.71875 
Q 33.015625 -0.984375 27 -0.984375 
Q 21.578125 -0.984375 17.546875 0.28125 
Q 13.53125 1.5625 10.734375 3.78125 
Q 7.953125 6 6.3125 8.984375 
Q 4.6875 11.96875 4 15.375 
L 12.890625 16.40625 
Q 13.421875 14.453125 14.390625 12.625 
Q 15.375 10.796875 17.0625 9.34375 
Q 18.75 7.90625 21.21875 7.046875 
Q 23.6875 6.203125 27.203125 6.203125 
Q 30.609375 6.203125 33.390625 7.25 
Q 36.1875 8.296875 38.15625 10.34375 
Q 40.140625 12.40625 41.203125 15.375 
Q 42.28125 18.359375 42.28125 22.21875 
Q 42.28125 25.390625 41.25 28.046875 
Q 40.234375 30.71875 38.328125 32.640625 
Q 36.421875 34.578125 33.65625 35.640625 
Q 30.90625 36.71875 27.390625 36.71875 
Q 25.203125 36.71875 23.34375 36.328125 
Q 21.484375 35.9375 19.890625 35.25 
Q 18.3125 34.578125 17.015625 33.671875 
Q 15.71875 32.765625 14.59375 31.78125 
L 6 31.78125 
L 8.296875 68.796875 
L 47.40625 68.796875 
L 47.40625 61.328125 
L 16.3125 61.328125 
L 14.984375 39.5 
Q 17.328125 41.3125 20.84375 42.59375 
Q 24.359375 43.890625 29.203125 43.890625 
Q 34.328125 43.890625 38.421875 42.328125 
Q 42.53125 40.765625 45.40625 37.90625 
Q 48.296875 35.0625 49.859375 31.109375 
Q 51.421875 27.15625 51.421875 22.40625 
" id="LiberationSans-35"/>
      </defs>
      <g style="fill:#262626;" transform="translate(403.194487 398.726875)scale(0.1 -0.1)">
       <use xlink:href="#LiberationSans-35"/>
       <use x="55.615234" xlink:href="#LiberationSans-30"/>
       <use x="111.230469" xlink:href="#LiberationSans-30"/>
      </g>
     </g>
    </g>
    <g id="text_7">
     <!-- Time, seconds from test begin, sampled for ~120 seconds -->
     <defs>
      <path d="M 35.15625 61.1875 
L 35.15625 0 
L 25.875 0 
L 25.875 61.1875 
L 2.25 61.1875 
L 2.25 68.796875 
L 58.796875 68.796875 
L 58.796875 61.1875 
z
" id="LiberationSans-54"/>
      <path d="M 6.6875 64.0625 
L 6.6875 72.46875 
L 15.484375 72.46875 
L 15.484375 64.0625 
z
M 6.6875 0 
L 6.6875 52.828125 
L 15.484375 52.828125 
L 15.484375 0 
z
" id="LiberationSans-69"/>
      <path d="M 37.5 0 
L 37.5 33.5 
Q 37.5 37.359375 37.015625 39.9375 
Q 36.53125 42.53125 35.375 44.109375 
Q 34.234375 45.703125 32.375 46.359375 
Q 30.515625 47.015625 27.828125 47.015625 
Q 25.046875 47.015625 22.796875 45.921875 
Q 20.5625 44.828125 18.96875 42.75 
Q 17.390625 40.671875 16.53125 37.625 
Q 15.671875 34.578125 15.671875 30.609375 
L 15.671875 0 
L 6.9375 0 
L 6.9375 41.546875 
Q 6.9375 43.21875 6.90625 45.046875 
Q 6.890625 46.875 6.828125 48.5 
Q 6.78125 50.140625 6.734375 51.3125 
Q 6.6875 52.484375 6.640625 52.828125 
L 14.9375 52.828125 
Q 14.984375 52.59375 15.03125 51.515625 
Q 15.09375 50.4375 15.15625 49.046875 
Q 15.234375 47.65625 15.28125 46.21875 
Q 15.328125 44.78125 15.328125 43.796875 
L 15.484375 43.796875 
Q 16.65625 46.09375 18.015625 47.953125 
Q 19.390625 49.8125 21.21875 51.09375 
Q 23.046875 52.390625 25.40625 53.09375 
Q 27.78125 53.8125 30.90625 53.8125 
Q 36.921875 53.8125 40.40625 51.421875 
Q 43.890625 49.03125 45.265625 43.796875 
L 45.40625 43.796875 
Q 46.578125 46.09375 48.046875 47.953125 
Q 49.515625 49.8125 51.46875 51.09375 
Q 53.421875 52.390625 55.859375 53.09375 
Q 58.296875 53.8125 61.421875 53.8125 
Q 65.4375 53.8125 68.328125 52.734375 
Q 71.234375 51.65625 73.09375 49.40625 
Q 74.953125 47.171875 75.828125 43.625 
Q 76.703125 40.09375 76.703125 35.203125 
L 76.703125 0 
L 68.015625 0 
L 68.015625 33.5 
Q 68.015625 37.359375 67.53125 39.9375 
Q 67.046875 42.53125 65.890625 44.109375 
Q 64.75 45.703125 62.890625 46.359375 
Q 61.03125 47.015625 58.34375 47.015625 
Q 55.5625 47.015625 53.3125 45.96875 
Q 51.078125 44.921875 49.484375 42.875 
Q 47.90625 40.828125 47.046875 37.75 
Q 46.1875 34.671875 46.1875 30.609375 
L 46.1875 0 
z
" id="LiberationSans-6d"/>
      <path d="M 13.484375 24.5625 
Q 13.484375 20.40625 14.328125 16.90625 
Q 15.1875 13.421875 16.96875 10.90625 
Q 18.75 8.40625 21.53125 7 
Q 24.3125 5.609375 28.21875 5.609375 
Q 33.9375 5.609375 37.375 7.90625 
Q 40.828125 10.203125 42.046875 13.71875 
L 49.75 11.53125 
Q 48.921875 9.328125 47.4375 7.109375 
Q 45.953125 4.890625 43.453125 3.09375 
Q 40.96875 1.3125 37.234375 0.15625 
Q 33.5 -0.984375 28.21875 -0.984375 
Q 16.5 -0.984375 10.375 6 
Q 4.25 12.984375 4.25 26.765625 
Q 4.25 34.1875 6.09375 39.328125 
Q 7.953125 44.484375 11.171875 47.703125 
Q 14.40625 50.921875 18.703125 52.359375 
Q 23 53.8125 27.875 53.8125 
Q 34.515625 53.8125 38.984375 51.65625 
Q 43.453125 49.515625 46.15625 45.71875 
Q 48.875 41.9375 50.015625 36.8125 
Q 51.171875 31.6875 51.171875 25.734375 
L 51.171875 24.5625 
z
M 42.09375 31.296875 
Q 41.359375 39.65625 37.84375 43.484375 
Q 34.328125 47.3125 27.734375 47.3125 
Q 25.53125 47.3125 23.109375 46.609375 
Q 20.703125 45.90625 18.65625 44.09375 
Q 16.609375 42.28125 15.1875 39.171875 
Q 13.765625 36.078125 13.578125 31.296875 
z
" id="LiberationSans-65"/>
      <path d="M 18.796875 10.6875 
L 18.796875 2.484375 
Q 18.796875 -0.09375 18.578125 -2.21875 
Q 18.359375 -4.34375 17.875 -6.171875 
Q 17.390625 -8.015625 16.671875 -9.625 
Q 15.96875 -11.234375 14.984375 -12.796875 
L 8.984375 -12.796875 
Q 11.1875 -9.625 12.375 -6.390625 
Q 13.578125 -3.171875 13.578125 0 
L 9.28125 0 
L 9.28125 10.6875 
z
" id="LiberationSans-2c"/>
      <path id="LiberationSans-20"/>
      <path d="M 46.390625 14.59375 
Q 46.390625 10.890625 44.9375 7.984375 
Q 43.5 5.078125 40.765625 3.09375 
Q 38.03125 1.125 34.046875 0.0625 
Q 30.078125 -0.984375 24.953125 -0.984375 
Q 20.359375 -0.984375 16.671875 -0.265625 
Q 12.984375 0.4375 10.203125 2 
Q 7.421875 3.5625 5.53125 6.125 
Q 3.65625 8.6875 2.78125 12.40625 
L 10.546875 13.921875 
Q 11.671875 9.671875 15.1875 7.6875 
Q 18.703125 5.71875 24.953125 5.71875 
Q 27.78125 5.71875 30.140625 6.109375 
Q 32.515625 6.5 34.21875 7.453125 
Q 35.9375 8.40625 36.890625 9.984375 
Q 37.84375 11.578125 37.84375 13.921875 
Q 37.84375 16.3125 36.71875 17.84375 
Q 35.59375 19.390625 33.59375 20.40625 
Q 31.59375 21.4375 28.734375 22.1875 
Q 25.875 22.953125 22.46875 23.875 
Q 19.28125 24.703125 16.15625 25.734375 
Q 13.03125 26.765625 10.515625 28.4375 
Q 8.015625 30.125 6.453125 32.609375 
Q 4.890625 35.109375 4.890625 38.875 
Q 4.890625 46.09375 10.03125 49.875 
Q 15.1875 53.65625 25.046875 53.65625 
Q 33.796875 53.65625 38.9375 50.578125 
Q 44.09375 47.515625 45.453125 40.71875 
L 37.546875 39.75 
Q 37.109375 41.796875 35.9375 43.1875 
Q 34.765625 44.578125 33.109375 45.4375 
Q 31.453125 46.296875 29.375 46.65625 
Q 27.296875 47.015625 25.046875 47.015625 
Q 19.09375 47.015625 16.25 45.203125 
Q 13.421875 43.40625 13.421875 39.75 
Q 13.421875 37.59375 14.46875 36.203125 
Q 15.53125 34.8125 17.40625 33.859375 
Q 19.28125 32.90625 21.921875 32.203125 
Q 24.5625 31.5 27.734375 30.71875 
Q 29.828125 30.171875 32.03125 29.5625 
Q 34.234375 28.953125 36.296875 28.09375 
Q 38.375 27.25 40.203125 26.09375 
Q 42.046875 24.953125 43.40625 23.34375 
Q 44.78125 21.734375 45.578125 19.578125 
Q 46.390625 17.4375 46.390625 14.59375 
" id="LiberationSans-73"/>
      <path d="M 13.421875 26.65625 
Q 13.421875 22.125 14.078125 18.3125 
Q 14.75 14.5 16.3125 11.734375 
Q 17.875 8.984375 20.4375 7.46875 
Q 23 5.953125 26.765625 5.953125 
Q 31.453125 5.953125 34.59375 8.484375 
Q 37.75 11.03125 38.484375 16.3125 
L 47.359375 15.71875 
Q 46.921875 12.453125 45.453125 9.421875 
Q 44 6.390625 41.484375 4.09375 
Q 38.96875 1.8125 35.34375 0.40625 
Q 31.734375 -0.984375 27 -0.984375 
Q 20.796875 -0.984375 16.453125 1.109375 
Q 12.109375 3.21875 9.390625 6.90625 
Q 6.6875 10.59375 5.46875 15.59375 
Q 4.25 20.609375 4.25 26.46875 
Q 4.25 31.78125 5.125 35.859375 
Q 6 39.9375 7.59375 42.984375 
Q 9.1875 46.046875 11.328125 48.125 
Q 13.484375 50.203125 15.984375 51.4375 
Q 18.5 52.6875 21.28125 53.25 
Q 24.078125 53.8125 26.90625 53.8125 
Q 31.34375 53.8125 34.8125 52.59375 
Q 38.28125 51.375 40.796875 49.25 
Q 43.3125 47.125 44.875 44.234375 
Q 46.4375 41.359375 47.078125 38.03125 
L 38.03125 37.359375 
Q 37.359375 41.75 34.5625 44.328125 
Q 31.78125 46.921875 26.65625 46.921875 
Q 22.90625 46.921875 20.390625 45.671875 
Q 17.875 44.4375 16.3125 41.921875 
Q 14.75 39.40625 14.078125 35.59375 
Q 13.421875 31.78125 13.421875 26.65625 
" id="LiberationSans-63"/>
      <path d="M 51.421875 26.46875 
Q 51.421875 12.59375 45.3125 5.796875 
Q 39.203125 -0.984375 27.59375 -0.984375 
Q 22.078125 -0.984375 17.71875 0.671875 
Q 13.375 2.34375 10.375 5.765625 
Q 7.375 9.1875 5.78125 14.328125 
Q 4.203125 19.484375 4.203125 26.46875 
Q 4.203125 53.8125 27.875 53.8125 
Q 34.03125 53.8125 38.5 52.09375 
Q 42.96875 50.390625 45.828125 46.96875 
Q 48.6875 43.5625 50.046875 38.421875 
Q 51.421875 33.296875 51.421875 26.46875 
M 42.1875 26.46875 
Q 42.1875 32.625 41.234375 36.625 
Q 40.28125 40.625 38.453125 43.015625 
Q 36.625 45.40625 33.984375 46.359375 
Q 31.34375 47.3125 28.03125 47.3125 
Q 24.65625 47.3125 21.9375 46.3125 
Q 19.234375 45.3125 17.328125 42.890625 
Q 15.4375 40.484375 14.421875 36.46875 
Q 13.421875 32.46875 13.421875 26.46875 
Q 13.421875 20.3125 14.5 16.28125 
Q 15.578125 12.25 17.453125 9.859375 
Q 19.34375 7.46875 21.90625 6.484375 
Q 24.46875 5.515625 27.484375 5.515625 
Q 30.859375 5.515625 33.59375 6.46875 
Q 36.328125 7.421875 38.234375 9.8125 
Q 40.140625 12.203125 41.15625 16.25 
Q 42.1875 20.3125 42.1875 26.46875 
" id="LiberationSans-6f"/>
      <path d="M 40.28125 0 
L 40.28125 33.5 
Q 40.28125 37.359375 39.71875 39.9375 
Q 39.15625 42.53125 37.890625 44.109375 
Q 36.625 45.703125 34.546875 46.359375 
Q 32.46875 47.015625 29.390625 47.015625 
Q 26.265625 47.015625 23.75 45.921875 
Q 21.234375 44.828125 19.453125 42.75 
Q 17.671875 40.671875 16.6875 37.625 
Q 15.71875 34.578125 15.71875 30.609375 
L 15.71875 0 
L 6.9375 0 
L 6.9375 41.546875 
Q 6.9375 43.21875 6.90625 45.046875 
Q 6.890625 46.875 6.828125 48.5 
Q 6.78125 50.140625 6.734375 51.3125 
Q 6.6875 52.484375 6.640625 52.828125 
L 14.9375 52.828125 
Q 14.984375 52.59375 15.03125 51.515625 
Q 15.09375 50.4375 15.15625 49.046875 
Q 15.234375 47.65625 15.28125 46.21875 
Q 15.328125 44.78125 15.328125 43.796875 
L 15.484375 43.796875 
Q 16.75 46.09375 18.265625 47.953125 
Q 19.78125 49.8125 21.78125 51.09375 
Q 23.78125 52.390625 26.359375 53.09375 
Q 28.953125 53.8125 32.375 53.8125 
Q 36.765625 53.8125 39.9375 52.734375 
Q 43.109375 51.65625 45.15625 49.40625 
Q 47.21875 47.171875 48.171875 43.625 
Q 49.125 40.09375 49.125 35.203125 
L 49.125 0 
z
" id="LiberationSans-6e"/>
      <path d="M 40.09375 8.5 
Q 37.640625 3.421875 33.609375 1.21875 
Q 29.59375 -0.984375 23.640625 -0.984375 
Q 13.625 -0.984375 8.90625 5.75 
Q 4.203125 12.5 4.203125 26.171875 
Q 4.203125 53.8125 23.640625 53.8125 
Q 29.640625 53.8125 33.640625 51.609375 
Q 37.640625 49.421875 40.09375 44.625 
L 40.1875 44.625 
Q 40.1875 45.125 40.15625 46.171875 
Q 40.140625 47.21875 40.109375 48.359375 
Q 40.09375 49.515625 40.09375 50.53125 
Q 40.09375 51.5625 40.09375 52 
L 40.09375 72.46875 
L 48.875 72.46875 
L 48.875 10.890625 
Q 48.875 8.984375 48.890625 7.21875 
Q 48.921875 5.46875 48.96875 4 
Q 49.03125 2.546875 49.078125 1.484375 
Q 49.125 0.4375 49.171875 0 
L 40.765625 0 
Q 40.671875 0.484375 40.59375 1.390625 
Q 40.53125 2.296875 40.453125 3.46875 
Q 40.375 4.640625 40.328125 5.9375 
Q 40.28125 7.234375 40.28125 8.5 
z
M 13.421875 26.46875 
Q 13.421875 21 14.109375 17.09375 
Q 14.796875 13.1875 16.3125 10.671875 
Q 17.828125 8.15625 20.171875 6.984375 
Q 22.515625 5.8125 25.875 5.8125 
Q 29.34375 5.8125 32 6.9375 
Q 34.671875 8.0625 36.453125 10.578125 
Q 38.234375 13.09375 39.15625 17.140625 
Q 40.09375 21.1875 40.09375 27.046875 
Q 40.09375 32.671875 39.15625 36.546875 
Q 38.234375 40.4375 36.421875 42.828125 
Q 34.625 45.21875 32 46.265625 
Q 29.390625 47.3125 25.984375 47.3125 
Q 22.75 47.3125 20.40625 46.1875 
Q 18.0625 45.0625 16.5 42.578125 
Q 14.9375 40.09375 14.171875 36.109375 
Q 13.421875 32.125 13.421875 26.46875 
" id="LiberationSans-64"/>
      <path d="M 17.625 46.4375 
L 17.625 0 
L 8.84375 0 
L 8.84375 46.4375 
L 1.421875 46.4375 
L 1.421875 52.828125 
L 8.84375 52.828125 
L 8.84375 58.796875 
Q 8.84375 61.671875 9.375 64.140625 
Q 9.90625 66.609375 11.34375 68.4375 
Q 12.796875 70.265625 15.28125 71.3125 
Q 17.78125 72.359375 21.734375 72.359375 
Q 23.296875 72.359375 24.96875 72.21875 
Q 26.65625 72.078125 27.9375 71.78125 
L 27.9375 65.09375 
Q 27.09375 65.234375 26 65.359375 
Q 24.90625 65.484375 24.03125 65.484375 
Q 22.078125 65.484375 20.828125 64.9375 
Q 19.578125 64.40625 18.875 63.40625 
Q 18.171875 62.40625 17.890625 60.9375 
Q 17.625 59.46875 17.625 57.5625 
L 17.625 52.828125 
L 27.9375 52.828125 
L 27.9375 46.4375 
z
" id="LiberationSans-66"/>
      <path d="M 6.9375 0 
L 6.9375 40.53125 
Q 6.9375 42.1875 6.90625 43.921875 
Q 6.890625 45.65625 6.828125 47.265625 
Q 6.78125 48.875 6.734375 50.28125 
Q 6.6875 51.703125 6.640625 52.828125 
L 14.9375 52.828125 
Q 14.984375 51.703125 15.0625 50.265625 
Q 15.140625 48.828125 15.203125 47.3125 
Q 15.28125 45.796875 15.296875 44.40625 
Q 15.328125 43.015625 15.328125 42.046875 
L 15.53125 42.046875 
Q 16.453125 45.0625 17.5 47.28125 
Q 18.5625 49.515625 19.96875 50.953125 
Q 21.390625 52.390625 23.34375 53.09375 
Q 25.296875 53.8125 28.078125 53.8125 
Q 29.15625 53.8125 30.125 53.640625 
Q 31.109375 53.46875 31.640625 53.328125 
L 31.640625 45.265625 
Q 30.765625 45.515625 29.59375 45.625 
Q 28.421875 45.75 26.953125 45.75 
Q 23.921875 45.75 21.796875 44.375 
Q 19.671875 43.015625 18.328125 40.59375 
Q 17 38.1875 16.359375 34.84375 
Q 15.71875 31.5 15.71875 27.546875 
L 15.71875 0 
z
" id="LiberationSans-72"/>
      <path d="M 27.046875 0.390625 
Q 25.046875 -0.140625 22.96875 -0.453125 
Q 20.90625 -0.78125 18.171875 -0.78125 
Q 7.625 -0.78125 7.625 11.1875 
L 7.625 46.4375 
L 1.515625 46.4375 
L 1.515625 52.828125 
L 7.953125 52.828125 
L 10.546875 64.65625 
L 16.40625 64.65625 
L 16.40625 52.828125 
L 26.171875 52.828125 
L 26.171875 46.4375 
L 16.40625 46.4375 
L 16.40625 13.09375 
Q 16.40625 9.28125 17.640625 7.734375 
Q 18.890625 6.203125 21.96875 6.203125 
Q 23.25 6.203125 24.4375 6.390625 
Q 25.640625 6.59375 27.046875 6.890625 
z
" id="LiberationSans-74"/>
      <path d="M 51.421875 26.65625 
Q 51.421875 -0.984375 31.984375 -0.984375 
Q 25.984375 -0.984375 22 1.1875 
Q 18.015625 3.375 15.53125 8.203125 
L 15.4375 8.203125 
Q 15.4375 6.9375 15.359375 5.5625 
Q 15.28125 4.203125 15.203125 3.03125 
Q 15.140625 1.859375 15.0625 1.03125 
Q 14.984375 0.203125 14.9375 0 
L 6.453125 0 
Q 6.5 0.4375 6.546875 1.484375 
Q 6.59375 2.546875 6.640625 4 
Q 6.6875 5.46875 6.703125 7.21875 
Q 6.734375 8.984375 6.734375 10.890625 
L 6.734375 72.46875 
L 15.53125 72.46875 
L 15.53125 51.8125 
Q 15.53125 50.34375 15.5 49 
Q 15.484375 47.65625 15.4375 46.625 
Q 15.375 45.40625 15.328125 44.34375 
L 15.53125 44.34375 
Q 17.96875 49.421875 22 51.609375 
Q 26.03125 53.8125 31.984375 53.8125 
Q 42 53.8125 46.703125 47.0625 
Q 51.421875 40.328125 51.421875 26.65625 
M 42.1875 26.375 
Q 42.1875 31.84375 41.5 35.75 
Q 40.828125 39.65625 39.3125 42.15625 
Q 37.796875 44.671875 35.453125 45.84375 
Q 33.109375 47.015625 29.734375 47.015625 
Q 26.265625 47.015625 23.609375 45.890625 
Q 20.953125 44.78125 19.171875 42.28125 
Q 17.390625 39.796875 16.453125 35.734375 
Q 15.53125 31.6875 15.53125 25.828125 
Q 15.53125 20.171875 16.453125 16.3125 
Q 17.390625 12.453125 19.171875 10.03125 
Q 20.953125 7.625 23.578125 6.5625 
Q 26.21875 5.515625 29.640625 5.515625 
Q 32.859375 5.515625 35.203125 6.640625 
Q 37.546875 7.765625 39.109375 10.25 
Q 40.671875 12.75 41.421875 16.71875 
Q 42.1875 20.703125 42.1875 26.375 
" id="LiberationSans-62"/>
      <path d="M 26.765625 -20.75 
Q 22.21875 -20.75 18.703125 -19.8125 
Q 15.1875 -18.890625 12.6875 -17.15625 
Q 10.203125 -15.4375 8.640625 -13.03125 
Q 7.078125 -10.640625 6.390625 -7.71875 
L 15.234375 -6.453125 
Q 16.109375 -10.109375 19.109375 -12.078125 
Q 22.125 -14.0625 27 -14.0625 
Q 29.984375 -14.0625 32.421875 -13.234375 
Q 34.859375 -12.40625 36.5625 -10.5625 
Q 38.28125 -8.734375 39.203125 -5.796875 
Q 40.140625 -2.875 40.140625 1.3125 
L 40.140625 9.8125 
L 40.046875 9.8125 
Q 39.0625 7.8125 37.625 5.984375 
Q 36.1875 4.15625 34.109375 2.734375 
Q 32.03125 1.3125 29.296875 0.453125 
Q 26.5625 -0.390625 23.046875 -0.390625 
Q 18.015625 -0.390625 14.421875 1.296875 
Q 10.84375 2.984375 8.5625 6.34375 
Q 6.296875 9.71875 5.25 14.71875 
Q 4.203125 19.734375 4.203125 26.3125 
Q 4.203125 32.671875 5.25 37.75 
Q 6.296875 42.828125 8.65625 46.359375 
Q 11.03125 49.90625 14.8125 51.78125 
Q 18.609375 53.65625 24.03125 53.65625 
Q 29.640625 53.65625 33.765625 51.09375 
Q 37.890625 48.53125 40.140625 43.796875 
L 40.234375 43.796875 
Q 40.234375 45.015625 40.296875 46.53125 
Q 40.375 48.046875 40.453125 49.390625 
Q 40.53125 50.734375 40.625 51.703125 
Q 40.71875 52.6875 40.828125 52.828125 
L 49.171875 52.828125 
Q 49.125 52.390625 49.078125 51.34375 
Q 49.03125 50.296875 48.96875 48.828125 
Q 48.921875 47.359375 48.890625 45.578125 
Q 48.875 43.796875 48.875 41.890625 
L 48.875 1.515625 
Q 48.875 -9.578125 43.421875 -15.15625 
Q 37.984375 -20.75 26.765625 -20.75 
M 40.140625 26.421875 
Q 40.140625 31.9375 38.9375 35.859375 
Q 37.75 39.796875 35.796875 42.28125 
Q 33.84375 44.78125 31.328125 45.953125 
Q 28.8125 47.125 26.171875 47.125 
Q 22.796875 47.125 20.375 45.953125 
Q 17.96875 44.78125 16.375 42.265625 
Q 14.796875 39.75 14.03125 35.8125 
Q 13.28125 31.890625 13.28125 26.421875 
Q 13.28125 20.703125 14.03125 16.8125 
Q 14.796875 12.9375 16.359375 10.546875 
Q 17.921875 8.15625 20.3125 7.125 
Q 22.703125 6.109375 26.03125 6.109375 
Q 28.65625 6.109375 31.171875 7.21875 
Q 33.6875 8.34375 35.6875 10.78125 
Q 37.703125 13.234375 38.921875 17.09375 
Q 40.140625 20.953125 40.140625 26.421875 
" id="LiberationSans-67"/>
      <path d="M 20.21875 -0.984375 
Q 12.25 -0.984375 8.25 3.21875 
Q 4.25 7.421875 4.25 14.75 
Q 4.25 19.96875 6.21875 23.3125 
Q 8.203125 26.65625 11.390625 28.5625 
Q 14.59375 30.46875 18.6875 31.203125 
Q 22.796875 31.9375 27.046875 32.03125 
L 38.921875 32.234375 
L 38.921875 35.109375 
Q 38.921875 38.375 38.234375 40.671875 
Q 37.546875 42.96875 36.125 44.375 
Q 34.71875 45.796875 32.59375 46.453125 
Q 30.46875 47.125 27.59375 47.125 
Q 25.046875 47.125 23 46.75 
Q 20.953125 46.390625 19.4375 45.4375 
Q 17.921875 44.484375 16.984375 42.84375 
Q 16.0625 41.21875 15.765625 38.71875 
L 6.59375 39.546875 
Q 7.078125 42.671875 8.4375 45.28125 
Q 9.8125 47.90625 12.328125 49.796875 
Q 14.84375 51.703125 18.625 52.75 
Q 22.40625 53.8125 27.78125 53.8125 
Q 37.75 53.8125 42.765625 49.234375 
Q 47.796875 44.671875 47.796875 36.03125 
L 47.796875 13.28125 
Q 47.796875 9.375 48.828125 7.390625 
Q 49.859375 5.421875 52.734375 5.421875 
Q 53.46875 5.421875 54.203125 5.515625 
Q 54.9375 5.609375 55.609375 5.765625 
L 55.609375 0.296875 
Q 53.953125 -0.09375 52.3125 -0.28125 
Q 50.6875 -0.484375 48.828125 -0.484375 
Q 46.34375 -0.484375 44.5625 0.171875 
Q 42.78125 0.828125 41.65625 2.171875 
Q 40.53125 3.515625 39.9375 5.484375 
Q 39.359375 7.46875 39.203125 10.109375 
L 38.921875 10.109375 
Q 37.5 7.5625 35.8125 5.515625 
Q 34.125 3.46875 31.875 2.03125 
Q 29.640625 0.59375 26.78125 -0.1875 
Q 23.921875 -0.984375 20.21875 -0.984375 
M 22.21875 5.609375 
Q 26.421875 5.609375 29.5625 7.140625 
Q 32.71875 8.6875 34.78125 11.078125 
Q 36.859375 13.484375 37.890625 16.3125 
Q 38.921875 19.140625 38.921875 21.734375 
L 38.921875 26.078125 
L 29.296875 25.875 
Q 26.078125 25.828125 23.171875 25.40625 
Q 20.265625 25 18.0625 23.78125 
Q 15.875 22.5625 14.578125 20.359375 
Q 13.28125 18.171875 13.28125 14.59375 
Q 13.28125 10.296875 15.59375 7.953125 
Q 17.921875 5.609375 22.21875 5.609375 
" id="LiberationSans-61"/>
      <path d="M 51.421875 26.65625 
Q 51.421875 20.65625 50.4375 15.578125 
Q 49.46875 10.5 47.1875 6.828125 
Q 44.921875 3.171875 41.1875 1.09375 
Q 37.453125 -0.984375 31.984375 -0.984375 
Q 26.3125 -0.984375 22.0625 1.171875 
Q 17.828125 3.328125 15.578125 8.203125 
L 15.328125 8.203125 
Q 15.375 8.109375 15.40625 7.328125 
Q 15.4375 6.546875 15.453125 5.375 
Q 15.484375 4.203125 15.5 2.75 
Q 15.53125 1.3125 15.53125 -0.09375 
L 15.53125 -20.75 
L 6.734375 -20.75 
L 6.734375 42.046875 
Q 6.734375 43.953125 6.703125 45.703125 
Q 6.6875 47.46875 6.640625 48.90625 
Q 6.59375 50.34375 6.546875 51.359375 
Q 6.5 52.390625 6.453125 52.828125 
L 14.9375 52.828125 
Q 14.984375 52.6875 15.0625 51.796875 
Q 15.140625 50.921875 15.203125 49.671875 
Q 15.28125 48.4375 15.359375 47.015625 
Q 15.4375 45.609375 15.4375 44.34375 
L 15.625 44.34375 
Q 16.84375 46.875 18.40625 48.65625 
Q 19.96875 50.4375 21.96875 51.578125 
Q 23.96875 52.734375 26.4375 53.25 
Q 28.90625 53.765625 31.984375 53.765625 
Q 37.453125 53.765625 41.1875 51.8125 
Q 44.921875 49.859375 47.1875 46.3125 
Q 49.46875 42.78125 50.4375 37.765625 
Q 51.421875 32.765625 51.421875 26.65625 
M 42.1875 26.46875 
Q 42.1875 31.34375 41.59375 35.15625 
Q 41.015625 38.96875 39.578125 41.59375 
Q 38.140625 44.234375 35.734375 45.59375 
Q 33.34375 46.96875 29.734375 46.96875 
Q 26.8125 46.96875 24.21875 46.140625 
Q 21.625 45.3125 19.703125 42.96875 
Q 17.78125 40.625 16.65625 36.5 
Q 15.53125 32.375 15.53125 25.78125 
Q 15.53125 20.171875 16.453125 16.28125 
Q 17.390625 12.40625 19.171875 10.015625 
Q 20.953125 7.625 23.578125 6.5625 
Q 26.21875 5.515625 29.640625 5.515625 
Q 33.296875 5.515625 35.71875 6.921875 
Q 38.140625 8.34375 39.578125 11.03125 
Q 41.015625 13.71875 41.59375 17.59375 
Q 42.1875 21.484375 42.1875 26.46875 
" id="LiberationSans-70"/>
      <path d="M 6.734375 0 
L 6.734375 72.46875 
L 15.53125 72.46875 
L 15.53125 0 
z
" id="LiberationSans-6c"/>
      <path d="M 41.21875 27 
Q 37.84375 27 34.296875 28.078125 
Q 30.765625 29.15625 27.203125 30.421875 
Q 20.90625 32.625 16.609375 32.625 
Q 14.75 32.625 13.15625 32.328125 
Q 11.578125 32.03125 10.109375 31.46875 
Q 8.640625 30.90625 7.265625 30.125 
Q 5.90625 29.34375 4.5 28.328125 
L 4.5 35.296875 
Q 6.9375 37.15625 10.15625 38.28125 
Q 13.375 39.40625 17.328125 39.40625 
Q 19.28125 39.40625 21.234375 39.078125 
Q 23.1875 38.765625 25.0625 38.28125 
Q 26.953125 37.796875 28.78125 37.15625 
Q 30.609375 36.53125 32.421875 35.890625 
Q 33.453125 35.5 34.671875 35.125 
Q 35.890625 34.765625 37.125 34.421875 
Q 38.375 34.078125 39.625 33.875 
Q 40.875 33.6875 42 33.6875 
Q 45.359375 33.6875 48.359375 34.90625 
Q 51.375 36.140625 53.90625 38.1875 
L 53.90625 30.90625 
Q 52.34375 29.78125 50.90625 29.046875 
Q 49.46875 28.328125 47.96875 27.859375 
Q 46.484375 27.390625 44.828125 27.1875 
Q 43.171875 27 41.21875 27 
" id="LiberationSans-7e"/>
     </defs>
     <g style="fill:#262626;" transform="translate(141.220781 412.773438)scale(0.11 -0.11)">
      <use xlink:href="#LiberationSans-54"/>
      <use x="61.037109" xlink:href="#LiberationSans-69"/>
      <use x="83.253906" xlink:href="#LiberationSans-6d"/>
      <use x="166.554688" xlink:href="#LiberationSans-65"/>
      <use x="222.169922" xlink:href="#LiberationSans-2c"/>
      <use x="249.953125" xlink:href="#LiberationSans-20"/>
      <use x="277.736328" xlink:href="#LiberationSans-73"/>
      <use x="327.736328" xlink:href="#LiberationSans-65"/>
      <use x="383.351562" xlink:href="#LiberationSans-63"/>
      <use x="433.351562" xlink:href="#LiberationSans-6f"/>
      <use x="488.966797" xlink:href="#LiberationSans-6e"/>
      <use x="544.582031" xlink:href="#LiberationSans-64"/>
      <use x="600.197266" xlink:href="#LiberationSans-73"/>
      <use x="650.197266" xlink:href="#LiberationSans-20"/>
      <use x="677.980469" xlink:href="#LiberationSans-66"/>
      <use x="705.763672" xlink:href="#LiberationSans-72"/>
      <use x="739.064453" xlink:href="#LiberationSans-6f"/>
      <use x="794.679688" xlink:href="#LiberationSans-6d"/>
      <use x="877.980469" xlink:href="#LiberationSans-20"/>
      <use x="905.763672" xlink:href="#LiberationSans-74"/>
      <use x="933.546875" xlink:href="#LiberationSans-65"/>
      <use x="989.162109" xlink:href="#LiberationSans-73"/>
      <use x="1039.162109" xlink:href="#LiberationSans-74"/>
      <use x="1066.945312" xlink:href="#LiberationSans-20"/>
      <use x="1094.728516" xlink:href="#LiberationSans-62"/>
      <use x="1150.34375" xlink:href="#LiberationSans-65"/>
      <use x="1205.958984" xlink:href="#LiberationSans-67"/>
      <use x="1261.574219" xlink:href="#LiberationSans-69"/>
      <use x="1283.791016" xlink:href="#LiberationSans-6e"/>
      <use x="1339.40625" xlink:href="#LiberationSans-2c"/>
      <use x="1367.189453" xlink:href="#LiberationSans-20"/>
      <use x="1394.972656" xlink:href="#LiberationSans-73"/>
      <use x="1444.972656" xlink:href="#LiberationSans-61"/>
      <use x="1500.587891" xlink:href="#LiberationSans-6d"/>
      <use x="1583.888672" xlink:href="#LiberationSans-70"/>
      <use x="1639.503906" xlink:href="#LiberationSans-6c"/>
      <use x="1661.720703" xlink:href="#LiberationSans-65"/>
      <use x="1717.335938" xlink:href="#LiberationSans-64"/>
      <use x="1772.951172" xlink:href="#LiberationSans-20"/>
      <use x="1800.734375" xlink:href="#LiberationSans-66"/>
      <use x="1828.517578" xlink:href="#LiberationSans-6f"/>
      <use x="1884.132812" xlink:href="#LiberationSans-72"/>
      <use x="1917.433594" xlink:href="#LiberationSans-20"/>
      <use x="1945.216797" xlink:href="#LiberationSans-7e"/>
      <use x="2003.615234" xlink:href="#LiberationSans-31"/>
      <use x="2059.230469" xlink:href="#LiberationSans-32"/>
      <use x="2114.845703" xlink:href="#LiberationSans-30"/>
      <use x="2170.460938" xlink:href="#LiberationSans-20"/>
      <use x="2198.244141" xlink:href="#LiberationSans-73"/>
      <use x="2248.244141" xlink:href="#LiberationSans-65"/>
      <use x="2303.859375" xlink:href="#LiberationSans-63"/>
      <use x="2353.859375" xlink:href="#LiberationSans-6f"/>
      <use x="2409.474609" xlink:href="#LiberationSans-6e"/>
      <use x="2465.089844" xlink:href="#LiberationSans-64"/>
      <use x="2520.705078" xlink:href="#LiberationSans-73"/>
     </g>
    </g>
   </g>
   <g id="matplotlib.axis_2">
    <g id="ytick_1">
     <g id="line2d_13">
      <path clip-path="url(#p0a343a09f2)" d="M 90 319.141954 
L 475.2 319.141954 
" style="fill:none;stroke:#ffffff;stroke-linecap:round;"/>
     </g>
     <g id="line2d_14"/>
     <g id="text_8">
      <!-- 2 -->
      <g style="fill:#262626;" transform="translate(77.439063 322.765391)scale(0.1 -0.1)">
       <use xlink:href="#LiberationSans-32"/>
      </g>
     </g>
    </g>
    <g id="ytick_2">
     <g id="line2d_15">
      <path clip-path="url(#p0a343a09f2)" d="M 90 250.910908 
L 475.2 250.910908 
" style="fill:none;stroke:#ffffff;stroke-linecap:round;"/>
     </g>
     <g id="line2d_16"/>
     <g id="text_9">
      <!-- 3 -->
      <g style="fill:#262626;" transform="translate(77.439063 254.534345)scale(0.1 -0.1)">
       <use xlink:href="#LiberationSans-33"/>
      </g>
     </g>
    </g>
    <g id="ytick_3">
     <g id="line2d_17">
      <path clip-path="url(#p0a343a09f2)" d="M 90 182.679861 
L 475.2 182.679861 
" style="fill:none;stroke:#ffffff;stroke-linecap:round;"/>
     </g>
     <g id="line2d_18"/>
     <g id="text_10">
      <!-- 4 -->
      <g style="fill:#262626;" transform="translate(77.439063 186.303299)scale(0.1 -0.1)">
       <use xlink:href="#LiberationSans-34"/>
      </g>
     </g>
    </g>
    <g id="ytick_4">
     <g id="line2d_19">
      <path clip-path="url(#p0a343a09f2)" d="M 90 114.448815 
L 475.2 114.448815 
" style="fill:none;stroke:#ffffff;stroke-linecap:round;"/>
     </g>
     <g id="line2d_20"/>
     <g id="text_11">
      <!-- 5 -->
      <g style="fill:#262626;" transform="translate(77.439063 118.072252)scale(0.1 -0.1)">
       <use xlink:href="#LiberationSans-35"/>
      </g>
     </g>
    </g>
    <g id="text_12">
     <!-- Latency, ms -->
     <defs>
      <path d="M 8.203125 0 
L 8.203125 68.796875 
L 17.53125 68.796875 
L 17.53125 7.625 
L 52.296875 7.625 
L 52.296875 0 
z
" id="LiberationSans-4c"/>
      <path d="M 29.5 0 
Q 27.640625 -4.78125 25.703125 -8.609375 
Q 23.78125 -12.453125 21.390625 -15.15625 
Q 19 -17.875 16.0625 -19.3125 
Q 13.140625 -20.75 9.328125 -20.75 
Q 7.671875 -20.75 6.25 -20.65625 
Q 4.828125 -20.5625 3.265625 -20.21875 
L 3.265625 -13.625 
Q 4.203125 -13.765625 5.375 -13.84375 
Q 6.546875 -13.921875 7.375 -13.921875 
Q 11.234375 -13.921875 14.546875 -11.03125 
Q 17.875 -8.15625 20.359375 -1.859375 
L 21.1875 0.25 
L 0.25 52.828125 
L 9.625 52.828125 
L 20.75 23.640625 
Q 21.234375 22.3125 21.984375 20.109375 
Q 22.75 17.921875 23.5 15.71875 
Q 24.265625 13.53125 24.84375 11.765625 
Q 25.4375 10.015625 25.53125 9.578125 
Q 25.6875 10.109375 26.25 11.6875 
Q 26.8125 13.28125 27.515625 15.234375 
Q 28.21875 17.1875 28.953125 19.1875 
Q 29.6875 21.1875 30.171875 22.65625 
L 40.53125 52.828125 
L 49.8125 52.828125 
z
" id="LiberationSans-79"/>
     </defs>
     <g style="fill:#262626;" transform="translate(71.156563 247.803281)rotate(-90)scale(0.11 -0.11)">
      <use xlink:href="#LiberationSans-4c"/>
      <use x="55.615234" xlink:href="#LiberationSans-61"/>
      <use x="111.230469" xlink:href="#LiberationSans-74"/>
      <use x="139.013672" xlink:href="#LiberationSans-65"/>
      <use x="194.628906" xlink:href="#LiberationSans-6e"/>
      <use x="250.244141" xlink:href="#LiberationSans-63"/>
      <use x="300.244141" xlink:href="#LiberationSans-79"/>
      <use x="350.134766" xlink:href="#LiberationSans-2c"/>
      <use x="377.917969" xlink:href="#LiberationSans-20"/>
      <use x="405.701172" xlink:href="#LiberationSans-6d"/>
      <use x="489.001953" xlink:href="#LiberationSans-73"/>
     </g>
    </g>
   </g>
   <g id="PolyCollection_1">
    <path clip-path="url(#p0a343a09f2)" d="M 130.677562 369.36 
L 126.491053 369.36 
L 125.817627 367.187634 
L 125.126812 365.015268 
L 124.449702 362.842902 
L 123.798493 360.670535 
L 123.169193 358.498169 
L 122.549741 356.325803 
L 121.927838 354.153437 
L 121.295224 351.981071 
L 120.648374 349.808705 
L 119.987175 347.636339 
L 119.313196 345.463973 
L 118.628459 343.291606 
L 117.935066 341.11924 
L 117.235648 338.946874 
L 116.534349 336.774508 
L 115.837871 334.602142 
L 115.156251 332.429776 
L 114.503068 330.25741 
L 113.894367 328.085044 
L 113.344991 325.912677 
L 112.861869 323.740311 
L 112.437019 321.567945 
L 112.046389 319.395579 
L 111.65915 317.223213 
L 111.254359 315.050847 
L 110.834057 312.878481 
L 110.422843 310.706115 
L 110.054295 308.533748 
L 109.754615 306.361382 
L 109.534238 304.189016 
L 109.389947 302.01665 
L 109.312347 299.844284 
L 109.292154 297.671918 
L 109.322488 295.499552 
L 109.39814 293.327186 
L 109.514123 291.154819 
L 109.665046 288.982453 
L 109.845501 286.810087 
L 110.050875 284.637721 
L 110.277868 282.465355 
L 110.524333 280.292989 
L 110.788531 278.120623 
L 111.068305 275.948257 
L 111.360724 273.77589 
L 111.662467 271.603524 
L 111.970641 269.431158 
L 112.283528 267.258792 
L 112.600783 265.086426 
L 112.923026 262.91406 
L 113.251057 260.741694 
L 113.585107 258.569328 
L 113.924487 256.396961 
L 114.267744 254.224595 
L 114.613185 252.052229 
L 114.959458 249.879863 
L 115.305884 247.707497 
L 115.65236 245.535131 
L 115.998924 243.362765 
L 116.345319 241.190399 
L 116.690882 239.018032 
L 117.034788 236.845666 
L 117.376371 234.6733 
L 117.715213 232.500934 
L 118.050945 230.328568 
L 118.383062 228.156202 
L 118.711017 225.983836 
L 119.034519 223.81147 
L 119.353657 221.639103 
L 119.668616 219.466737 
L 119.979247 217.294371 
L 120.284984 215.122005 
L 120.585174 212.949639 
L 120.879406 210.777273 
L 121.16741 208.604907 
L 121.448648 206.432541 
L 121.7221 204.260174 
L 121.986601 202.087808 
L 122.24157 199.915442 
L 122.487649 197.743076 
L 122.726917 195.57071 
L 122.96272 193.398344 
L 123.199331 191.225978 
L 123.441308 189.053612 
L 123.691939 186.881245 
L 123.950363 184.708879 
L 124.208494 182.536513 
L 124.450678 180.364147 
L 124.658557 178.191781 
L 124.819968 176.019415 
L 124.936364 173.847049 
L 125.023155 171.674683 
L 125.102666 169.502316 
L 125.195429 167.32995 
L 125.316297 165.157584 
L 125.476748 162.985218 
L 125.688844 160.812852 
L 125.96482 158.640486 
L 126.310152 156.46812 
L 126.714226 154.295754 
L 130.454388 154.295754 
L 130.454388 154.295754 
L 130.858462 156.46812 
L 131.203794 158.640486 
L 131.47977 160.812852 
L 131.691867 162.985218 
L 131.852317 165.157584 
L 131.973186 167.32995 
L 132.065949 169.502316 
L 132.145459 171.674683 
L 132.23225 173.847049 
L 132.348646 176.019415 
L 132.510057 178.191781 
L 132.717936 180.364147 
L 132.96012 182.536513 
L 133.218252 184.708879 
L 133.476675 186.881245 
L 133.727306 189.053612 
L 133.969284 191.225978 
L 134.205894 193.398344 
L 134.441698 195.57071 
L 134.680966 197.743076 
L 134.927044 199.915442 
L 135.182013 202.087808 
L 135.446515 204.260174 
L 135.719967 206.432541 
L 136.001205 208.604907 
L 136.289209 210.777273 
L 136.58344 212.949639 
L 136.88363 215.122005 
L 137.189367 217.294371 
L 137.499999 219.466737 
L 137.814957 221.639103 
L 138.134095 223.81147 
L 138.457597 225.983836 
L 138.785552 228.156202 
L 139.11767 230.328568 
L 139.453402 232.500934 
L 139.792243 234.6733 
L 140.133827 236.845666 
L 140.477732 239.018032 
L 140.823295 241.190399 
L 141.169691 243.362765 
L 141.516254 245.535131 
L 141.86273 247.707497 
L 142.209156 249.879863 
L 142.55543 252.052229 
L 142.900871 254.224595 
L 143.244128 256.396961 
L 143.583508 258.569328 
L 143.917557 260.741694 
L 144.245588 262.91406 
L 144.567832 265.086426 
L 144.885087 267.258792 
L 145.197973 269.431158 
L 145.506148 271.603524 
L 145.80789 273.77589 
L 146.10031 275.948257 
L 146.380083 278.120623 
L 146.644281 280.292989 
L 146.890746 282.465355 
L 147.117739 284.637721 
L 147.323113 286.810087 
L 147.503569 288.982453 
L 147.654492 291.154819 
L 147.770474 293.327186 
L 147.846126 295.499552 
L 147.876461 297.671918 
L 147.856268 299.844284 
L 147.778667 302.01665 
L 147.634377 304.189016 
L 147.413999 306.361382 
L 147.11432 308.533748 
L 146.745771 310.706115 
L 146.334557 312.878481 
L 145.914256 315.050847 
L 145.509465 317.223213 
L 145.122225 319.395579 
L 144.731595 321.567945 
L 144.306746 323.740311 
L 143.823623 325.912677 
L 143.274247 328.085044 
L 142.665546 330.25741 
L 142.012364 332.429776 
L 141.330743 334.602142 
L 140.634265 336.774508 
L 139.932966 338.946874 
L 139.233549 341.11924 
L 138.540155 343.291606 
L 137.855419 345.463973 
L 137.181439 347.636339 
L 136.52024 349.808705 
L 135.87339 351.981071 
L 135.240777 354.153437 
L 134.618873 356.325803 
L 133.999421 358.498169 
L 133.370121 360.670535 
L 132.718912 362.842902 
L 132.041803 365.015268 
L 131.350987 367.187634 
L 130.677562 369.36 
z
" style="fill:#4c72b0;fill-opacity:0.3;"/>
   </g>
   <g id="PolyCollection_2">
    <path clip-path="url(#p0a343a09f2)" d="M 207.771205 368.268309 
L 203.734638 368.268309 
L 203.064361 365.974643 
L 202.369232 363.680978 
L 201.678871 361.387312 
L 201.004499 359.093646 
L 200.342068 356.79998 
L 199.680565 354.506315 
L 199.009602 352.212649 
L 198.323168 349.918983 
L 197.619715 347.625317 
L 196.900399 345.331652 
L 196.167255 343.037986 
L 195.422458 340.74432 
L 194.669007 338.450654 
L 193.912336 336.156989 
L 193.161959 333.863323 
L 192.432238 331.569657 
L 191.741393 329.275991 
L 191.107708 326.982325 
L 190.542483 324.68866 
L 190.042039 322.394994 
L 189.584661 320.101328 
L 189.138222 317.807662 
L 188.677264 315.513997 
L 188.199246 313.220331 
L 187.727983 310.926665 
L 187.301575 308.632999 
L 186.953915 306.339334 
L 186.702073 304.045668 
L 186.544953 301.752002 
L 186.469904 299.458336 
L 186.460768 297.164671 
L 186.503217 294.871005 
L 186.586801 292.577339 
L 186.704943 290.283673 
L 186.85406 287.990007 
L 187.03232 285.696342 
L 187.238179 283.402676 
L 187.469121 281.10901 
L 187.721341 278.815344 
L 187.990749 276.521679 
L 188.274514 274.228013 
L 188.571711 271.934347 
L 188.882299 269.640681 
L 189.205352 267.347016 
L 189.538197 265.05335 
L 189.87728 262.759684 
L 190.219895 260.466018 
L 190.565201 258.172353 
L 190.913746 255.878687 
L 191.266094 253.585021 
L 191.621769 251.291355 
L 191.979345 248.99769 
L 192.337468 246.704024 
L 192.695861 244.410358 
L 193.055417 242.116692 
L 193.41729 239.823026 
L 193.781676 237.529361 
L 194.147218 235.235695 
L 194.511445 232.942029 
L 194.871915 230.648363 
L 195.22725 228.354698 
L 195.57737 226.061032 
L 195.922803 223.767366 
L 196.263639 221.4737 
L 196.598913 219.180035 
L 196.926876 216.886369 
L 197.24592 214.592703 
L 197.555537 212.299037 
L 197.856642 210.005372 
L 198.151033 207.711706 
L 198.440279 205.41804 
L 198.724684 203.124374 
L 199.003038 200.830709 
L 199.273409 198.537043 
L 199.534701 196.243377 
L 199.788252 193.949711 
L 200.038559 191.656045 
L 200.292334 189.36238 
L 200.555471 187.068714 
L 200.828487 184.775048 
L 201.102686 182.481382 
L 201.360513 180.187717 
L 201.582115 177.894051 
L 201.755596 175.600385 
L 201.88421 173.306719 
L 201.98484 171.013054 
L 202.078699 168.719388 
L 202.181146 166.425722 
L 202.297118 164.132056 
L 202.423258 161.838391 
L 202.553222 159.544725 
L 202.682418 157.251059 
L 202.810856 154.957393 
L 202.944569 152.663727 
L 203.095941 150.370062 
L 203.282106 148.076396 
L 203.519986 145.78273 
L 203.818014 143.489064 
L 204.167845 141.195399 
L 207.337999 141.195399 
L 207.337999 141.195399 
L 207.687829 143.489064 
L 207.985857 145.78273 
L 208.223737 148.076396 
L 208.409902 150.370062 
L 208.561274 152.663727 
L 208.694987 154.957393 
L 208.823425 157.251059 
L 208.952621 159.544725 
L 209.082585 161.838391 
L 209.208725 164.132056 
L 209.324697 166.425722 
L 209.427144 168.719388 
L 209.521003 171.013054 
L 209.621633 173.306719 
L 209.750247 175.600385 
L 209.923728 177.894051 
L 210.14533 180.187717 
L 210.403157 182.481382 
L 210.677356 184.775048 
L 210.950372 187.068714 
L 211.213509 189.36238 
L 211.467284 191.656045 
L 211.717591 193.949711 
L 211.971142 196.243377 
L 212.232434 198.537043 
L 212.502805 200.830709 
L 212.781159 203.124374 
L 213.065564 205.41804 
L 213.35481 207.711706 
L 213.649201 210.005372 
L 213.950306 212.299037 
L 214.259923 214.592703 
L 214.578967 216.886369 
L 214.90693 219.180035 
L 215.242204 221.4737 
L 215.58304 223.767366 
L 215.928473 226.061032 
L 216.278593 228.354698 
L 216.633928 230.648363 
L 216.994398 232.942029 
L 217.358626 235.235695 
L 217.724167 237.529361 
L 218.088553 239.823026 
L 218.450426 242.116692 
L 218.809982 244.410358 
L 219.168375 246.704024 
L 219.526498 248.99769 
L 219.884074 251.291355 
L 220.239749 253.585021 
L 220.592097 255.878687 
L 220.940643 258.172353 
L 221.285948 260.466018 
L 221.628563 262.759684 
L 221.967646 265.05335 
L 222.300491 267.347016 
L 222.623544 269.640681 
L 222.934132 271.934347 
L 223.231329 274.228013 
L 223.515094 276.521679 
L 223.784502 278.815344 
L 224.036722 281.10901 
L 224.267664 283.402676 
L 224.473523 285.696342 
L 224.651783 287.990007 
L 224.8009 290.283673 
L 224.919042 292.577339 
L 225.002627 294.871005 
L 225.045075 297.164671 
L 225.035939 299.458336 
L 224.960891 301.752002 
L 224.80377 304.045668 
L 224.551928 306.339334 
L 224.204268 308.632999 
L 223.77786 310.926665 
L 223.306597 313.220331 
L 222.828579 315.513997 
L 222.367621 317.807662 
L 221.921182 320.101328 
L 221.463804 322.394994 
L 220.96336 324.68866 
L 220.398135 326.982325 
L 219.76445 329.275991 
L 219.073605 331.569657 
L 218.343884 333.863323 
L 217.593507 336.156989 
L 216.836836 338.450654 
L 216.083385 340.74432 
L 215.338588 343.037986 
L 214.605444 345.331652 
L 213.886129 347.625317 
L 213.182675 349.918983 
L 212.496241 352.212649 
L 211.825278 354.506315 
L 211.163775 356.79998 
L 210.501344 359.093646 
L 209.826972 361.387312 
L 209.136611 363.680978 
L 208.441482 365.974643 
L 207.771205 368.268309 
z
" style="fill:#4c72b0;fill-opacity:0.3;"/>
   </g>
   <g id="PolyCollection_3">
    <path clip-path="url(#p0a343a09f2)" d="M 285.210762 368.268309 
L 280.63231 368.268309 
L 279.851124 365.842316 
L 279.034689 363.416323 
L 278.220088 360.99033 
L 277.424294 358.564338 
L 276.646651 356.138345 
L 275.877656 353.712352 
L 275.10732 351.286359 
L 274.329426 348.860366 
L 273.542059 346.434373 
L 272.746599 344.00838 
L 271.946907 341.582387 
L 271.149195 339.156394 
L 270.362316 336.730401 
L 269.598146 334.304408 
L 268.871653 331.878416 
L 268.199747 329.452423 
L 267.597496 327.02643 
L 267.071367 324.600437 
L 266.612447 322.174444 
L 266.195724 319.748451 
L 265.789844 317.322458 
L 265.374004 314.896465 
L 264.950961 312.470472 
L 264.546312 310.044479 
L 264.194611 307.618486 
L 263.922809 305.192494 
L 263.741648 302.766501 
L 263.64747 300.340508 
L 263.629382 297.914515 
L 263.675424 295.488522 
L 263.775044 293.062529 
L 263.918985 290.636536 
L 264.098912 288.210543 
L 264.30799 285.78455 
L 264.541833 283.358557 
L 264.798526 280.932564 
L 265.07723 278.506572 
L 265.376209 276.080579 
L 265.691763 273.654586 
L 266.018891 271.228593 
L 266.353163 268.8026 
L 266.692413 266.376607 
L 267.03707 263.950614 
L 267.389013 261.524621 
L 267.749792 259.098628 
L 268.11937 256.672635 
L 268.496031 254.246642 
L 268.877201 251.82065 
L 269.260353 249.394657 
L 269.643408 246.968664 
L 270.024679 244.542671 
L 270.402843 242.116678 
L 270.777154 239.690685 
L 271.147645 237.264692 
L 271.514984 234.838699 
L 271.879982 232.412706 
L 272.243086 229.986713 
L 272.604125 227.56072 
L 272.962308 225.134728 
L 273.316311 222.708735 
L 273.664375 220.282742 
L 274.00454 217.856749 
L 274.335136 215.430756 
L 274.655317 213.004763 
L 274.965239 210.57877 
L 275.265611 208.152777 
L 275.556965 205.726784 
L 275.839288 203.300791 
L 276.1124 200.874798 
L 276.37681 198.448806 
L 276.63451 196.022813 
L 276.889373 193.59682 
L 277.146885 191.170827 
L 277.412635 188.744834 
L 277.689004 186.318841 
L 277.97092 183.892848 
L 278.243794 181.466855 
L 278.487196 179.040862 
L 278.68432 176.614869 
L 278.831734 174.188876 
L 278.942051 171.762884 
L 279.037024 169.336891 
L 279.136175 166.910898 
L 279.248945 164.484905 
L 279.374276 162.058912 
L 279.50546 159.632919 
L 279.635596 157.206926 
L 279.76059 154.780933 
L 279.879479 152.35494 
L 279.993287 149.928947 
L 280.103752 147.502955 
L 280.212803 145.076962 
L 280.323263 142.650969 
L 280.440633 140.224976 
L 280.574922 137.798983 
L 280.740535 135.37299 
L 280.952304 132.946997 
L 281.217762 130.521004 
L 281.529237 128.095011 
L 284.313835 128.095011 
L 284.313835 128.095011 
L 284.625309 130.521004 
L 284.890768 132.946997 
L 285.102537 135.37299 
L 285.26815 137.798983 
L 285.402438 140.224976 
L 285.519809 142.650969 
L 285.630268 145.076962 
L 285.73932 147.502955 
L 285.849785 149.928947 
L 285.963593 152.35494 
L 286.082482 154.780933 
L 286.207476 157.206926 
L 286.337612 159.632919 
L 286.468796 162.058912 
L 286.594126 164.484905 
L 286.706897 166.910898 
L 286.806048 169.336891 
L 286.90102 171.762884 
L 287.011338 174.188876 
L 287.158752 176.614869 
L 287.355875 179.040862 
L 287.599278 181.466855 
L 287.872152 183.892848 
L 288.154068 186.318841 
L 288.430437 188.744834 
L 288.696187 191.170827 
L 288.953699 193.59682 
L 289.208562 196.022813 
L 289.466262 198.448806 
L 289.730671 200.874798 
L 290.003784 203.300791 
L 290.286107 205.726784 
L 290.577461 208.152777 
L 290.877833 210.57877 
L 291.187754 213.004763 
L 291.507936 215.430756 
L 291.838531 217.856749 
L 292.178697 220.282742 
L 292.526761 222.708735 
L 292.880764 225.134728 
L 293.238947 227.56072 
L 293.599986 229.986713 
L 293.96309 232.412706 
L 294.328087 234.838699 
L 294.695426 237.264692 
L 295.065918 239.690685 
L 295.440229 242.116678 
L 295.818393 244.542671 
L 296.199663 246.968664 
L 296.582719 249.394657 
L 296.965871 251.82065 
L 297.347041 254.246642 
L 297.723702 256.672635 
L 298.093279 259.098628 
L 298.454058 261.524621 
L 298.806002 263.950614 
L 299.150659 266.376607 
L 299.489909 268.8026 
L 299.824181 271.228593 
L 300.151308 273.654586 
L 300.466862 276.080579 
L 300.765842 278.506572 
L 301.044546 280.932564 
L 301.301239 283.358557 
L 301.535081 285.78455 
L 301.74416 288.210543 
L 301.924087 290.636536 
L 302.068028 293.062529 
L 302.167648 295.488522 
L 302.213689 297.914515 
L 302.195602 300.340508 
L 302.101424 302.766501 
L 301.920262 305.192494 
L 301.648461 307.618486 
L 301.29676 310.044479 
L 300.892111 312.470472 
L 300.469068 314.896465 
L 300.053228 317.322458 
L 299.647348 319.748451 
L 299.230625 322.174444 
L 298.771705 324.600437 
L 298.245575 327.02643 
L 297.643324 329.452423 
L 296.971419 331.878416 
L 296.244925 334.304408 
L 295.480755 336.730401 
L 294.693877 339.156394 
L 293.896165 341.582387 
L 293.096473 344.00838 
L 292.301013 346.434373 
L 291.513646 348.860366 
L 290.735752 351.286359 
L 289.965415 353.712352 
L 289.196421 356.138345 
L 288.418778 358.564338 
L 287.622984 360.99033 
L 286.808383 363.416323 
L 285.991947 365.842316 
L 285.210762 368.268309 
z
" style="fill:#4c72b0;fill-opacity:0.3;"/>
   </g>
   <g id="PolyCollection_4">
    <path clip-path="url(#p0a343a09f2)" d="M 362.629779 368.268309 
L 357.550522 368.268309 
L 356.611148 365.445336 
L 355.614693 362.622362 
L 354.60971 359.799389 
L 353.620475 356.976416 
L 352.649579 354.153442 
L 351.689013 351.330469 
L 350.730881 348.507496 
L 349.773052 345.684522 
L 348.820225 342.861549 
L 347.882958 340.038576 
L 346.976525 337.215602 
L 346.119975 334.392629 
L 345.334402 331.569655 
L 344.638541 328.746682 
L 344.040816 325.923709 
L 343.530999 323.100735 
L 343.079145 320.277762 
L 342.647954 317.454789 
L 342.21439 314.631815 
L 341.785552 311.808842 
L 341.395646 308.985869 
L 341.0862 306.162895 
L 340.885073 303.339922 
L 340.797997 300.516949 
L 340.813553 297.693975 
L 340.913055 294.871002 
L 341.077731 292.048028 
L 341.291698 289.225055 
L 341.542815 286.402082 
L 341.822998 283.579108 
L 342.12788 280.756135 
L 342.45545 277.933162 
L 342.804228 275.110188 
L 343.17215 272.287215 
L 343.556687 269.464242 
L 343.955657 266.641268 
L 344.36772 263.818295 
L 344.79215 260.995321 
L 345.228157 258.172348 
L 345.67427 255.349375 
L 346.128172 252.526401 
L 346.586999 249.703428 
L 347.047779 246.880455 
L 347.507516 244.057481 
L 347.962873 241.234508 
L 348.410106 238.411535 
L 348.845836 235.588561 
L 349.268313 232.765588 
L 349.678105 229.942615 
L 350.077502 227.119641 
L 350.469009 224.296668 
L 350.853925 221.473694 
L 351.231829 218.650721 
L 351.601153 215.827748 
L 351.960424 213.004774 
L 352.309333 210.181801 
L 352.648852 207.358828 
L 352.98025 204.535854 
L 353.303823 201.712881 
L 353.618617 198.889908 
L 353.923787 196.066934 
L 354.220657 193.243961 
L 354.513298 190.420987 
L 354.805801 187.598014 
L 355.096897 184.775041 
L 355.375992 181.952067 
L 355.62561 179.129094 
L 355.830914 176.306121 
L 355.989932 173.483147 
L 356.115862 170.660174 
L 356.229238 167.837201 
L 356.346667 165.014227 
L 356.474745 162.191254 
L 356.611606 159.368281 
L 356.752072 156.545307 
L 356.891548 153.722334 
L 357.027168 150.89936 
L 357.157336 148.076387 
L 357.28109 145.253414 
L 357.397852 142.43044 
L 357.507471 139.607467 
L 357.610359 136.784494 
L 357.707525 133.96152 
L 357.800359 131.138547 
L 357.890164 128.315574 
L 357.977555 125.4926 
L 358.062071 122.669627 
L 358.142325 119.846653 
L 358.216772 117.02368 
L 358.284733 114.200707 
L 358.347071 111.377733 
L 358.406158 108.55476 
L 358.46553 105.731787 
L 358.530053 102.908813 
L 358.606878 100.08584 
L 358.706018 97.262867 
L 358.838314 94.439893 
L 359.009819 91.61692 
L 359.21522 88.793947 
L 360.96508 88.793947 
L 360.96508 88.793947 
L 361.170482 91.61692 
L 361.341987 94.439893 
L 361.474282 97.262867 
L 361.573423 100.08584 
L 361.650248 102.908813 
L 361.71477 105.731787 
L 361.774143 108.55476 
L 361.833229 111.377733 
L 361.895567 114.200707 
L 361.963529 117.02368 
L 362.037975 119.846653 
L 362.118229 122.669627 
L 362.202746 125.4926 
L 362.290137 128.315574 
L 362.379942 131.138547 
L 362.472776 133.96152 
L 362.569941 136.784494 
L 362.67283 139.607467 
L 362.782448 142.43044 
L 362.89921 145.253414 
L 363.022965 148.076387 
L 363.153132 150.89936 
L 363.288752 153.722334 
L 363.428229 156.545307 
L 363.568694 159.368281 
L 363.705556 162.191254 
L 363.833633 165.014227 
L 363.951063 167.837201 
L 364.064439 170.660174 
L 364.190368 173.483147 
L 364.349386 176.306121 
L 364.554691 179.129094 
L 364.804309 181.952067 
L 365.083403 184.775041 
L 365.374499 187.598014 
L 365.667002 190.420987 
L 365.959643 193.243961 
L 366.256513 196.066934 
L 366.561684 198.889908 
L 366.876478 201.712881 
L 367.20005 204.535854 
L 367.531449 207.358828 
L 367.870968 210.181801 
L 368.219876 213.004774 
L 368.579147 215.827748 
L 368.948472 218.650721 
L 369.326375 221.473694 
L 369.711292 224.296668 
L 370.102798 227.119641 
L 370.502195 229.942615 
L 370.911987 232.765588 
L 371.334465 235.588561 
L 371.770195 238.411535 
L 372.217428 241.234508 
L 372.672785 244.057481 
L 373.132522 246.880455 
L 373.593302 249.703428 
L 374.052128 252.526401 
L 374.50603 255.349375 
L 374.952144 258.172348 
L 375.38815 260.995321 
L 375.812581 263.818295 
L 376.224643 266.641268 
L 376.623613 269.464242 
L 377.008151 272.287215 
L 377.376072 275.110188 
L 377.72485 277.933162 
L 378.05242 280.756135 
L 378.357303 283.579108 
L 378.637485 286.402082 
L 378.888603 289.225055 
L 379.10257 292.048028 
L 379.267245 294.871002 
L 379.366747 297.693975 
L 379.382304 300.516949 
L 379.295227 303.339922 
L 379.0941 306.162895 
L 378.784655 308.985869 
L 378.394749 311.808842 
L 377.96591 314.631815 
L 377.532347 317.454789 
L 377.101156 320.277762 
L 376.649301 323.100735 
L 376.139485 325.923709 
L 375.541759 328.746682 
L 374.845898 331.569655 
L 374.060325 334.392629 
L 373.203776 337.215602 
L 372.297342 340.038576 
L 371.360076 342.861549 
L 370.407249 345.684522 
L 369.449419 348.507496 
L 368.491288 351.330469 
L 367.530722 354.153442 
L 366.559825 356.976416 
L 365.570591 359.799389 
L 364.565607 362.622362 
L 363.569153 365.445336 
L 362.629779 368.268309 
z
" style="fill:#4c72b0;fill-opacity:0.3;"/>
   </g>
   <g id="PolyCollection_5">
    <path clip-path="url(#p0a343a09f2)" d="M 439.591701 367.17661 
L 434.282756 367.17661 
L 433.265838 364.144119 
L 432.184895 361.111628 
L 431.094569 358.079137 
L 430.021529 355.046646 
L 428.968455 352.014155 
L 427.927254 348.981664 
L 426.890931 345.949173 
L 425.859641 342.916682 
L 424.842233 339.884191 
L 423.855809 336.8517 
L 422.924129 333.819209 
L 422.073698 330.786718 
L 421.325894 327.754227 
L 420.686172 324.721736 
L 420.13701 321.689245 
L 419.643804 318.656754 
L 419.175126 315.624263 
L 418.724369 312.591772 
L 418.314855 309.559281 
L 417.983906 306.52679 
L 417.759959 303.494299 
L 417.650419 300.461808 
L 417.645075 297.429317 
L 417.72679 294.396826 
L 417.879697 291.364335 
L 418.091545 288.331844 
L 418.352476 285.299353 
L 418.653602 282.266862 
L 418.987093 279.234371 
L 419.347298 276.20188 
L 419.731403 273.169389 
L 420.138603 270.136898 
L 420.568259 267.104407 
L 421.018367 264.071916 
L 421.485274 261.039425 
L 421.964475 258.006934 
L 422.451568 254.974443 
L 422.942642 251.941952 
L 423.434174 248.909461 
L 423.923068 245.87697 
L 424.407089 242.844479 
L 424.88521 239.811988 
L 425.357247 236.779497 
L 425.82292 233.747006 
L 426.281077 230.714515 
L 426.729631 227.682024 
L 427.166165 224.649533 
L 427.588809 221.617042 
L 427.996932 218.584551 
L 428.39125 215.55206 
L 428.773241 212.519569 
L 429.144263 209.487078 
L 429.505027 206.454587 
L 429.855713 203.422096 
L 430.196529 200.389605 
L 430.528404 197.357114 
L 430.853524 194.324623 
L 431.175102 191.292132 
L 431.495321 188.25964 
L 431.811297 185.227149 
L 432.111796 182.194658 
L 432.37948 179.162167 
L 432.600173 176.129676 
L 432.773141 173.097185 
L 432.91318 170.064694 
L 433.04198 167.032203 
L 433.17613 163.999712 
L 433.321082 160.967221 
L 433.473341 157.93473 
L 433.626311 154.902239 
L 433.774681 151.869748 
L 433.915773 148.837257 
L 434.048994 145.804766 
L 434.174916 142.772275 
L 434.294613 139.739784 
L 434.409159 136.707293 
L 434.519144 133.674802 
L 434.624378 130.642311 
L 434.724059 127.60982 
L 434.817366 124.577329 
L 434.904041 121.544838 
L 434.984543 118.512347 
L 435.059699 115.479856 
L 435.130168 112.447365 
L 435.196209 109.414874 
L 435.257943 106.382383 
L 435.31587 103.349892 
L 435.371091 100.317401 
L 435.424976 97.28491 
L 435.4785 94.252419 
L 435.53181 91.219928 
L 435.584413 88.187437 
L 435.636154 85.154946 
L 435.68886 82.122455 
L 435.748109 79.089964 
L 435.823676 76.057473 
L 435.926921 73.024982 
L 436.064787 69.992491 
L 436.233267 66.96 
L 437.641191 66.96 
L 437.641191 66.96 
L 437.809671 69.992491 
L 437.947536 73.024982 
L 438.050781 76.057473 
L 438.126348 79.089964 
L 438.185597 82.122455 
L 438.238304 85.154946 
L 438.290044 88.187437 
L 438.342648 91.219928 
L 438.395957 94.252419 
L 438.449482 97.28491 
L 438.503366 100.317401 
L 438.558587 103.349892 
L 438.616514 106.382383 
L 438.678249 109.414874 
L 438.744289 112.447365 
L 438.814758 115.479856 
L 438.889914 118.512347 
L 438.970417 121.544838 
L 439.057092 124.577329 
L 439.150398 127.60982 
L 439.250079 130.642311 
L 439.355313 133.674802 
L 439.465298 136.707293 
L 439.579845 139.739784 
L 439.699541 142.772275 
L 439.825463 145.804766 
L 439.958684 148.837257 
L 440.099776 151.869748 
L 440.248147 154.902239 
L 440.401117 157.93473 
L 440.553376 160.967221 
L 440.698328 163.999712 
L 440.832478 167.032203 
L 440.961277 170.064694 
L 441.101316 173.097185 
L 441.274284 176.129676 
L 441.494977 179.162167 
L 441.762662 182.194658 
L 442.063161 185.227149 
L 442.379137 188.25964 
L 442.699356 191.292132 
L 443.020934 194.324623 
L 443.346054 197.357114 
L 443.677929 200.389605 
L 444.018745 203.422096 
L 444.36943 206.454587 
L 444.730194 209.487078 
L 445.101217 212.519569 
L 445.483207 215.55206 
L 445.877525 218.584551 
L 446.285648 221.617042 
L 446.708293 224.649533 
L 447.144827 227.682024 
L 447.59338 230.714515 
L 448.051537 233.747006 
L 448.51721 236.779497 
L 448.989247 239.811988 
L 449.467368 242.844479 
L 449.951389 245.87697 
L 450.440283 248.909461 
L 450.931815 251.941952 
L 451.422889 254.974443 
L 451.909983 258.006934 
L 452.389184 261.039425 
L 452.85609 264.071916 
L 453.306198 267.104407 
L 453.735855 270.136898 
L 454.143054 273.169389 
L 454.527159 276.20188 
L 454.887365 279.234371 
L 455.220855 282.266862 
L 455.521982 285.299353 
L 455.782913 288.331844 
L 455.994761 291.364335 
L 456.147667 294.396826 
L 456.229382 297.429317 
L 456.224038 300.461808 
L 456.114499 303.494299 
L 455.890551 306.52679 
L 455.559603 309.559281 
L 455.150088 312.591772 
L 454.699331 315.624263 
L 454.230654 318.656754 
L 453.737448 321.689245 
L 453.188285 324.721736 
L 452.548563 327.754227 
L 451.80076 330.786718 
L 450.950329 333.819209 
L 450.018648 336.8517 
L 449.032225 339.884191 
L 448.014817 342.916682 
L 446.983526 345.949173 
L 445.947203 348.981664 
L 444.906003 352.014155 
L 443.852929 355.046646 
L 442.779889 358.079137 
L 441.689562 361.111628 
L 440.60862 364.144119 
L 439.591701 367.17661 
z
" style="fill:#4c72b0;fill-opacity:0.3;"/>
   </g>
   <g id="LineCollection_1">
    <path clip-path="url(#p0a343a09f2)" d="M 118.93823 276.130245 
L 138.230384 276.130245 
" style="fill:none;stroke:#0000ff;stroke-width:1.75;"/>
    <path clip-path="url(#p0a343a09f2)" d="M 196.106845 272.829218 
L 215.398998 272.829218 
" style="fill:none;stroke:#0000ff;stroke-width:1.75;"/>
    <path clip-path="url(#p0a343a09f2)" d="M 273.275459 271.905644 
L 292.567613 271.905644 
" style="fill:none;stroke:#0000ff;stroke-width:1.75;"/>
    <path clip-path="url(#p0a343a09f2)" d="M 350.444073 268.659048 
L 369.736227 268.659048 
" style="fill:none;stroke:#0000ff;stroke-width:1.75;"/>
    <path clip-path="url(#p0a343a09f2)" d="M 427.291152 266.098015 
L 446.583306 266.098015 
" style="fill:none;stroke:#0000ff;stroke-width:1.75;"/>
   </g>
   <g id="LineCollection_2">
    <path clip-path="url(#p0a343a09f2)" d="M 118.93823 154.295754 
L 138.230384 154.295754 
" style="fill:none;stroke:#4c72b0;stroke-width:1.75;"/>
    <path clip-path="url(#p0a343a09f2)" d="M 196.106845 141.195399 
L 215.398998 141.195399 
" style="fill:none;stroke:#4c72b0;stroke-width:1.75;"/>
    <path clip-path="url(#p0a343a09f2)" d="M 273.275459 128.095011 
L 292.567613 128.095011 
" style="fill:none;stroke:#4c72b0;stroke-width:1.75;"/>
    <path clip-path="url(#p0a343a09f2)" d="M 350.444073 88.793947 
L 369.736227 88.793947 
" style="fill:none;stroke:#4c72b0;stroke-width:1.75;"/>
    <path clip-path="url(#p0a343a09f2)" d="M 427.291152 66.96 
L 446.583306 66.96 
" style="fill:none;stroke:#4c72b0;stroke-width:1.75;"/>
   </g>
   <g id="LineCollection_3">
    <path clip-path="url(#p0a343a09f2)" d="M 118.93823 369.36 
L 138.230384 369.36 
" style="fill:none;stroke:#4c72b0;stroke-width:1.75;"/>
    <path clip-path="url(#p0a343a09f2)" d="M 196.106845 368.268309 
L 215.398998 368.268309 
" style="fill:none;stroke:#4c72b0;stroke-width:1.75;"/>
    <path clip-path="url(#p0a343a09f2)" d="M 273.275459 368.268309 
L 292.567613 368.268309 
" style="fill:none;stroke:#4c72b0;stroke-width:1.75;"/>
    <path clip-path="url(#p0a343a09f2)" d="M 350.444073 368.268309 
L 369.736227 368.268309 
" style="fill:none;stroke:#4c72b0;stroke-width:1.75;"/>
    <path clip-path="url(#p0a343a09f2)" d="M 427.291152 367.17661 
L 446.583306 367.17661 
" style="fill:none;stroke:#4c72b0;stroke-width:1.75;"/>
   </g>
   <g id="LineCollection_4">
    <path clip-path="url(#p0a343a09f2)" d="M 128.584307 369.36 
L 128.584307 154.295754 
" style="fill:none;stroke:#4c72b0;stroke-width:1.75;"/>
    <path clip-path="url(#p0a343a09f2)" d="M 205.752922 368.268309 
L 205.752922 141.195399 
" style="fill:none;stroke:#4c72b0;stroke-width:1.75;"/>
    <path clip-path="url(#p0a343a09f2)" d="M 282.921536 368.268309 
L 282.921536 128.095011 
" style="fill:none;stroke:#4c72b0;stroke-width:1.75;"/>
    <path clip-path="url(#p0a343a09f2)" d="M 360.09015 368.268309 
L 360.09015 88.793947 
" style="fill:none;stroke:#4c72b0;stroke-width:1.75;"/>
    <path clip-path="url(#p0a343a09f2)" d="M 436.937229 367.17661 
L 436.937229 66.96 
" style="fill:none;stroke:#4c72b0;stroke-width:1.75;"/>
   </g>
   <g id="LineCollection_5">
    <path clip-path="url(#p0a343a09f2)" d="M 118.93823 280.932572 
L 138.230384 280.932572 
" style="fill:none;stroke:#008000;stroke-width:1.75;"/>
    <path clip-path="url(#p0a343a09f2)" d="M 196.106845 278.749174 
L 215.398998 278.749174 
" style="fill:none;stroke:#008000;stroke-width:1.75;"/>
    <path clip-path="url(#p0a343a09f2)" d="M 273.275459 278.749174 
L 292.567613 278.749174 
" style="fill:none;stroke:#008000;stroke-width:1.75;"/>
    <path clip-path="url(#p0a343a09f2)" d="M 350.444073 278.749174 
L 369.736227 278.749174 
" style="fill:none;stroke:#008000;stroke-width:1.75;"/>
    <path clip-path="url(#p0a343a09f2)" d="M 427.291152 276.565776 
L 446.583306 276.565776 
" style="fill:none;stroke:#008000;stroke-width:1.75;"/>
   </g>
   <g id="patch_3">
    <path d="M 90 384.48 
L 90 51.84 
" style="fill:none;"/>
   </g>
   <g id="patch_4">
    <path d="M 475.2 384.48 
L 475.2 51.84 
" style="fill:none;"/>
   </g>
   <g id="patch_5">
    <path d="M 90 384.48 
L 475.2 384.48 
" style="fill:none;"/>
   </g>
   <g id="patch_6">
    <path d="M 90 51.84 
L 475.2 51.84 
" style="fill:none;"/>
   </g>
   <g id="text_13">
    <!-- Latency -->
    <g style="fill:#262626;" transform="translate(261.586875 45.84)scale(0.12 -0.12)">
     <use xlink:href="#LiberationSans-4c"/>
     <use x="55.615234" xlink:href="#LiberationSans-61"/>
     <use x="111.230469" xlink:href="#LiberationSans-74"/>
     <use x="139.013672" xlink:href="#LiberationSans-65"/>
     <use x="194.628906" xlink:href="#LiberationSans-6e"/>
     <use x="250.244141" xlink:href="#LiberationSans-63"/>
     <use x="300.244141" xlink:href="#LiberationSans-79"/>
    </g>
   </g>
   <g id="legend_1">
    <g id="line2d_21">
     <path d="M 495.756 106.9666 
L 515.756 106.9666 
" style="fill:none;stroke:#0000ff;stroke-width:1.75;"/>
    </g>
    <g id="text_14">
     <!-- mean -->
     <g style="fill:#262626;" transform="translate(523.756 110.4666)scale(0.1 -0.1)">
      <use xlink:href="#LiberationSans-6d"/>
      <use x="83.300781" xlink:href="#LiberationSans-65"/>
      <use x="138.916016" xlink:href="#LiberationSans-61"/>
      <use x="194.53125" xlink:href="#LiberationSans-6e"/>
     </g>
    </g>
    <g id="line2d_22">
     <path d="M 495.756 121.288475 
L 515.756 121.288475 
" style="fill:none;stroke:#008000;stroke-width:1.75;"/>
    </g>
    <g id="text_15">
     <!-- median -->
     <g style="fill:#262626;" transform="translate(523.756 124.788475)scale(0.1 -0.1)">
      <use xlink:href="#LiberationSans-6d"/>
      <use x="83.300781" xlink:href="#LiberationSans-65"/>
      <use x="138.916016" xlink:href="#LiberationSans-64"/>
      <use x="194.53125" xlink:href="#LiberationSans-69"/>
      <use x="216.748047" xlink:href="#LiberationSans-61"/>
      <use x="272.363281" xlink:href="#LiberationSans-6e"/>
     </g>
    </g>
   </g>
  </g>
 </g>
 <defs>
  <clipPath id="p0a343a09f2">
   <rect height="332.64" width="385.2" x="90" y="51.84"/>
  </clipPath>
 </defs>
</svg>
