
<svg height="432pt" version="1.1" viewBox="0 0 720 432" width="720pt" xmlns="http://www.w3.org/2000/svg" xmlns:xlink="http://www.w3.org/1999/xlink">
 <defs>
  <style type="text/css">
*{stroke-linecap:butt;stroke-linejoin:round;}
  </style>
 </defs>
 <g id="figure_1">
  <g id="patch_1">
   <path d="M 0 432 
L 720 432 
L 720 0 
L 0 0 
z
" style="fill:#ffffff;"/>
  </g>
  <g id="axes_1">
   <g id="patch_2">
    <path d="M 90 384.48 
L 475.2 384.48 
L 475.2 51.84 
L 90 51.84 
z
" style="fill:#eaeaf2;"/>
   </g>
   <g id="matplotlib.axis_1">
    <g id="xtick_1">
     <g id="line2d_1">
      <path clip-path="url(#pa3e4fb90f5)" d="M 90 384.48 
L 90 51.84 
" style="fill:none;stroke:#ffffff;stroke-linecap:round;"/>
     </g>
     <g id="line2d_2"/>
     <g id="text_1">
      <!-- 0 -->
      <defs>
       <path d="M 51.703125 34.421875 
Q 51.703125 24.515625 49.828125 17.75 
Q 47.953125 10.984375 44.703125 6.8125 
Q 41.453125 2.640625 37.0625 0.828125 
Q 32.671875 -0.984375 27.6875 -0.984375 
Q 22.65625 -0.984375 18.3125 0.828125 
Q 13.96875 2.640625 10.765625 6.78125 
Q 7.5625 10.9375 5.734375 17.703125 
Q 3.90625 24.46875 3.90625 34.421875 
Q 3.90625 44.828125 5.734375 51.640625 
Q 7.5625 58.453125 10.78125 62.5 
Q 14.015625 66.546875 18.40625 68.1875 
Q 22.796875 69.828125 27.984375 69.828125 
Q 32.90625 69.828125 37.21875 68.1875 
Q 41.546875 66.546875 44.765625 62.5 
Q 48 58.453125 49.84375 51.640625 
Q 51.703125 44.828125 51.703125 34.421875 
M 42.78125 34.421875 
Q 42.78125 42.625 41.796875 48.0625 
Q 40.828125 53.515625 38.921875 56.765625 
Q 37.015625 60.015625 34.25 61.359375 
Q 31.5 62.703125 27.984375 62.703125 
Q 24.265625 62.703125 21.4375 61.328125 
Q 18.609375 59.96875 16.671875 56.71875 
Q 14.75 53.46875 13.765625 48.015625 
Q 12.796875 42.578125 12.796875 34.421875 
Q 12.796875 26.515625 13.796875 21.09375 
Q 14.796875 15.671875 16.71875 12.375 
Q 18.65625 9.078125 21.4375 7.640625 
Q 24.21875 6.203125 27.78125 6.203125 
Q 31.25 6.203125 34.03125 7.640625 
Q 36.8125 9.078125 38.734375 12.375 
Q 40.671875 15.671875 41.71875 21.09375 
Q 42.78125 26.515625 42.78125 34.421875 
" id="LiberationSans-30"/>
      </defs>
      <g style="fill:#262626;" transform="translate(87.219531 398.726875)scale(0.1 -0.1)">
       <use xlink:href="#LiberationSans-30"/>
      </g>
     </g>
    </g>
    <g id="xtick_2">
     <g id="line2d_3">
      <path clip-path="url(#pa3e4fb90f5)" d="M 154.307179 384.48 
L 154.307179 51.84 
" style="fill:none;stroke:#ffffff;stroke-linecap:round;"/>
     </g>
     <g id="line2d_4"/>
     <g id="text_2">
      <!-- 100 -->
      <defs>
       <path d="M 7.625 0 
L 7.625 7.46875 
L 25.140625 7.46875 
L 25.140625 60.40625 
L 9.625 49.3125 
L 9.625 57.625 
L 25.875 68.796875 
L 33.984375 68.796875 
L 33.984375 7.46875 
L 50.734375 7.46875 
L 50.734375 0 
z
" id="LiberationSans-31"/>
      </defs>
      <g style="fill:#262626;" transform="translate(145.965772 398.726875)scale(0.1 -0.1)">
       <use xlink:href="#LiberationSans-31"/>
       <use x="55.615234" xlink:href="#LiberationSans-30"/>
       <use x="111.230469" xlink:href="#LiberationSans-30"/>
      </g>
     </g>
    </g>
    <g id="xtick_3">
     <g id="line2d_5">
      <path clip-path="url(#pa3e4fb90f5)" d="M 218.614357 384.48 
L 218.614357 51.84 
" style="fill:none;stroke:#ffffff;stroke-linecap:round;"/>
     </g>
     <g id="line2d_6"/>
     <g id="text_3">
      <!-- 200 -->
      <defs>
       <path d="M 5.03125 0 
L 5.03125 6.203125 
Q 7.515625 11.921875 11.109375 16.28125 
Q 14.703125 20.65625 18.65625 24.1875 
Q 22.609375 27.734375 26.484375 30.765625 
Q 30.375 33.796875 33.5 36.8125 
Q 36.625 39.84375 38.546875 43.15625 
Q 40.484375 46.484375 40.484375 50.6875 
Q 40.484375 53.609375 39.59375 55.828125 
Q 38.71875 58.0625 37.0625 59.5625 
Q 35.40625 61.078125 33.078125 61.828125 
Q 30.765625 62.59375 27.9375 62.59375 
Q 25.296875 62.59375 22.96875 61.859375 
Q 20.65625 61.140625 18.84375 59.671875 
Q 17.046875 58.203125 15.890625 56.03125 
Q 14.75 53.859375 14.40625 50.984375 
L 5.421875 51.8125 
Q 5.859375 55.515625 7.46875 58.78125 
Q 9.078125 62.0625 11.90625 64.53125 
Q 14.75 67 18.71875 68.40625 
Q 22.703125 69.828125 27.9375 69.828125 
Q 33.0625 69.828125 37.0625 68.609375 
Q 41.0625 67.390625 43.8125 64.984375 
Q 46.578125 62.59375 48.046875 59.078125 
Q 49.515625 55.5625 49.515625 50.984375 
Q 49.515625 47.515625 48.265625 44.390625 
Q 47.015625 41.265625 44.9375 38.421875 
Q 42.875 35.59375 40.140625 32.953125 
Q 37.40625 30.328125 34.421875 27.8125 
Q 31.453125 25.296875 28.421875 22.828125 
Q 25.390625 20.359375 22.71875 17.859375 
Q 20.0625 15.375 17.96875 12.8125 
Q 15.875 10.25 14.703125 7.46875 
L 50.59375 7.46875 
L 50.59375 0 
z
" id="LiberationSans-32"/>
      </defs>
      <g style="fill:#262626;" transform="translate(210.272951 398.726875)scale(0.1 -0.1)">
       <use xlink:href="#LiberationSans-32"/>
       <use x="55.615234" xlink:href="#LiberationSans-30"/>
       <use x="111.230469" xlink:href="#LiberationSans-30"/>
      </g>
     </g>
    </g>
    <g id="xtick_4">
     <g id="line2d_7">
      <path clip-path="url(#pa3e4fb90f5)" d="M 282.921536 384.48 
L 282.921536 51.84 
" style="fill:none;stroke:#ffffff;stroke-linecap:round;"/>
     </g>
     <g id="line2d_8"/>
     <g id="text_4">
      <!-- 300 -->
      <defs>
       <path d="M 51.21875 19 
Q 51.21875 14.265625 49.671875 10.546875 
Q 48.140625 6.84375 45.1875 4.265625 
Q 42.234375 1.703125 37.859375 0.359375 
Q 33.5 -0.984375 27.875 -0.984375 
Q 21.484375 -0.984375 17.109375 0.609375 
Q 12.75 2.203125 9.90625 4.8125 
Q 7.078125 7.421875 5.65625 10.765625 
Q 4.25 14.109375 3.8125 17.671875 
L 12.890625 18.5 
Q 13.28125 15.765625 14.328125 13.515625 
Q 15.375 11.28125 17.1875 9.671875 
Q 19 8.0625 21.625 7.171875 
Q 24.265625 6.296875 27.875 6.296875 
Q 34.515625 6.296875 38.296875 9.5625 
Q 42.09375 12.84375 42.09375 19.28125 
Q 42.09375 23.09375 40.40625 25.40625 
Q 38.71875 27.734375 36.203125 29.03125 
Q 33.6875 30.328125 30.734375 30.765625 
Q 27.78125 31.203125 25.296875 31.203125 
L 20.3125 31.203125 
L 20.3125 38.8125 
L 25.09375 38.8125 
Q 27.59375 38.8125 30.265625 39.328125 
Q 32.953125 39.84375 35.171875 41.1875 
Q 37.40625 42.53125 38.84375 44.828125 
Q 40.28125 47.125 40.28125 50.6875 
Q 40.28125 56.203125 37.03125 59.390625 
Q 33.796875 62.59375 27.390625 62.59375 
Q 21.578125 62.59375 17.984375 59.609375 
Q 14.40625 56.640625 13.8125 51.21875 
L 4.984375 51.90625 
Q 5.515625 56.453125 7.46875 59.8125 
Q 9.421875 63.1875 12.421875 65.40625 
Q 15.4375 67.625 19.28125 68.71875 
Q 23.140625 69.828125 27.484375 69.828125 
Q 33.25 69.828125 37.390625 68.375 
Q 41.546875 66.9375 44.1875 64.46875 
Q 46.828125 62.015625 48.0625 58.6875 
Q 49.3125 55.375 49.3125 51.609375 
Q 49.3125 48.578125 48.484375 45.9375 
Q 47.65625 43.3125 45.890625 41.203125 
Q 44.140625 39.109375 41.421875 37.59375 
Q 38.71875 36.078125 34.90625 35.296875 
L 34.90625 35.109375 
Q 39.0625 34.671875 42.140625 33.21875 
Q 45.21875 31.78125 47.21875 29.625 
Q 49.21875 27.484375 50.21875 24.75 
Q 51.21875 22.015625 51.21875 19 
" id="LiberationSans-33"/>
      </defs>
      <g style="fill:#262626;" transform="translate(274.58013 398.726875)scale(0.1 -0.1)">
       <use xlink:href="#LiberationSans-33"/>
       <use x="55.615234" xlink:href="#LiberationSans-30"/>
       <use x="111.230469" xlink:href="#LiberationSans-30"/>
      </g>
     </g>
    </g>
    <g id="xtick_5">
     <g id="line2d_9">
      <path clip-path="url(#pa3e4fb90f5)" d="M 347.228715 384.48 
L 347.228715 51.84 
" style="fill:none;stroke:#ffffff;stroke-linecap:round;"/>
     </g>
     <g id="line2d_10"/>
     <g id="text_5">
      <!-- 400 -->
      <defs>
       <path d="M 43.015625 15.578125 
L 43.015625 0 
L 34.71875 0 
L 34.71875 15.578125 
L 2.296875 15.578125 
L 2.296875 22.40625 
L 33.796875 68.796875 
L 43.015625 68.796875 
L 43.015625 22.515625 
L 52.6875 22.515625 
L 52.6875 15.578125 
z
M 34.71875 58.890625 
Q 34.625 58.640625 34.234375 57.9375 
Q 33.84375 57.234375 33.34375 56.34375 
Q 32.859375 55.46875 32.34375 54.5625 
Q 31.84375 53.65625 31.453125 53.078125 
L 13.8125 27.09375 
Q 13.578125 26.703125 13.109375 26.0625 
Q 12.640625 25.4375 12.15625 24.78125 
Q 11.671875 24.125 11.171875 23.484375 
Q 10.6875 22.859375 10.40625 22.515625 
L 34.71875 22.515625 
z
" id="LiberationSans-34"/>
      </defs>
      <g style="fill:#262626;" transform="translate(338.887308 398.726875)scale(0.1 -0.1)">
       <use xlink:href="#LiberationSans-34"/>
       <use x="55.615234" xlink:href="#LiberationSans-30"/>
       <use x="111.230469" xlink:href="#LiberationSans-30"/>
      </g>
     </g>
    </g>
    <g id="xtick_6">
     <g id="line2d_11">
      <path clip-path="url(#pa3e4fb90f5)" d="M 411.535893 384.48 
L 411.535893 51.84 
" style="fill:none;stroke:#ffffff;stroke-linecap:round;"/>
     </g>
     <g id="line2d_12"/>
     <g id="text_6">
      <!-- 500 -->
      <defs>
       <path d="M 51.421875 22.40625 
Q 51.421875 17.234375 49.859375 12.9375 
Q 48.296875 8.640625 45.21875 5.53125 
Q 42.140625 2.4375 37.578125 0.71875 
Q 33.015625 -0.984375 27 -0.984375 
Q 21.578125 -0.984375 17.546875 0.28125 
Q 13.53125 1.5625 10.734375 3.78125 
Q 7.953125 6 6.3125 8.984375 
Q 4.6875 11.96875 4 15.375 
L 12.890625 16.40625 
Q 13.421875 14.453125 14.390625 12.625 
Q 15.375 10.796875 17.0625 9.34375 
Q 18.75 7.90625 21.21875 7.046875 
Q 23.6875 6.203125 27.203125 6.203125 
Q 30.609375 6.203125 33.390625 7.25 
Q 36.1875 8.296875 38.15625 10.34375 
Q 40.140625 12.40625 41.203125 15.375 
Q 42.28125 18.359375 42.28125 22.21875 
Q 42.28125 25.390625 41.25 28.046875 
Q 40.234375 30.71875 38.328125 32.640625 
Q 36.421875 34.578125 33.65625 35.640625 
Q 30.90625 36.71875 27.390625 36.71875 
Q 25.203125 36.71875 23.34375 36.328125 
Q 21.484375 35.9375 19.890625 35.25 
Q 18.3125 34.578125 17.015625 33.671875 
Q 15.71875 32.765625 14.59375 31.78125 
L 6 31.78125 
L 8.296875 68.796875 
L 47.40625 68.796875 
L 47.40625 61.328125 
L 16.3125 61.328125 
L 14.984375 39.5 
Q 17.328125 41.3125 20.84375 42.59375 
Q 24.359375 43.890625 29.203125 43.890625 
Q 34.328125 43.890625 38.421875 42.328125 
Q 42.53125 40.765625 45.40625 37.90625 
Q 48.296875 35.0625 49.859375 31.109375 
Q 51.421875 27.15625 51.421875 22.40625 
" id="LiberationSans-35"/>
      </defs>
      <g style="fill:#262626;" transform="translate(403.194487 398.726875)scale(0.1 -0.1)">
       <use xlink:href="#LiberationSans-35"/>
       <use x="55.615234" xlink:href="#LiberationSans-30"/>
       <use x="111.230469" xlink:href="#LiberationSans-30"/>
      </g>
     </g>
    </g>
    <g id="text_7">
     <!-- Time, seconds from test begin, sampled for ~120 seconds -->
     <defs>
      <path d="M 35.15625 61.1875 
L 35.15625 0 
L 25.875 0 
L 25.875 61.1875 
L 2.25 61.1875 
L 2.25 68.796875 
L 58.796875 68.796875 
L 58.796875 61.1875 
z
" id="LiberationSans-54"/>
      <path d="M 6.6875 64.0625 
L 6.6875 72.46875 
L 15.484375 72.46875 
L 15.484375 64.0625 
z
M 6.6875 0 
L 6.6875 52.828125 
L 15.484375 52.828125 
L 15.484375 0 
z
" id="LiberationSans-69"/>
      <path d="M 37.5 0 
L 37.5 33.5 
Q 37.5 37.359375 37.015625 39.9375 
Q 36.53125 42.53125 35.375 44.109375 
Q 34.234375 45.703125 32.375 46.359375 
Q 30.515625 47.015625 27.828125 47.015625 
Q 25.046875 47.015625 22.796875 45.921875 
Q 20.5625 44.828125 18.96875 42.75 
Q 17.390625 40.671875 16.53125 37.625 
Q 15.671875 34.578125 15.671875 30.609375 
L 15.671875 0 
L 6.9375 0 
L 6.9375 41.546875 
Q 6.9375 43.21875 6.90625 45.046875 
Q 6.890625 46.875 6.828125 48.5 
Q 6.78125 50.140625 6.734375 51.3125 
Q 6.6875 52.484375 6.640625 52.828125 
L 14.9375 52.828125 
Q 14.984375 52.59375 15.03125 51.515625 
Q 15.09375 50.4375 15.15625 49.046875 
Q 15.234375 47.65625 15.28125 46.21875 
Q 15.328125 44.78125 15.328125 43.796875 
L 15.484375 43.796875 
Q 16.65625 46.09375 18.015625 47.953125 
Q 19.390625 49.8125 21.21875 51.09375 
Q 23.046875 52.390625 25.40625 53.09375 
Q 27.78125 53.8125 30.90625 53.8125 
Q 36.921875 53.8125 40.40625 51.421875 
Q 43.890625 49.03125 45.265625 43.796875 
L 45.40625 43.796875 
Q 46.578125 46.09375 48.046875 47.953125 
Q 49.515625 49.8125 51.46875 51.09375 
Q 53.421875 52.390625 55.859375 53.09375 
Q 58.296875 53.8125 61.421875 53.8125 
Q 65.4375 53.8125 68.328125 52.734375 
Q 71.234375 51.65625 73.09375 49.40625 
Q 74.953125 47.171875 75.828125 43.625 
Q 76.703125 40.09375 76.703125 35.203125 
L 76.703125 0 
L 68.015625 0 
L 68.015625 33.5 
Q 68.015625 37.359375 67.53125 39.9375 
Q 67.046875 42.53125 65.890625 44.109375 
Q 64.75 45.703125 62.890625 46.359375 
Q 61.03125 47.015625 58.34375 47.015625 
Q 55.5625 47.015625 53.3125 45.96875 
Q 51.078125 44.921875 49.484375 42.875 
Q 47.90625 40.828125 47.046875 37.75 
Q 46.1875 34.671875 46.1875 30.609375 
L 46.1875 0 
z
" id="LiberationSans-6d"/>
      <path d="M 13.484375 24.5625 
Q 13.484375 20.40625 14.328125 16.90625 
Q 15.1875 13.421875 16.96875 10.90625 
Q 18.75 8.40625 21.53125 7 
Q 24.3125 5.609375 28.21875 5.609375 
Q 33.9375 5.609375 37.375 7.90625 
Q 40.828125 10.203125 42.046875 13.71875 
L 49.75 11.53125 
Q 48.921875 9.328125 47.4375 7.109375 
Q 45.953125 4.890625 43.453125 3.09375 
Q 40.96875 1.3125 37.234375 0.15625 
Q 33.5 -0.984375 28.21875 -0.984375 
Q 16.5 -0.984375 10.375 6 
Q 4.25 12.984375 4.25 26.765625 
Q 4.25 34.1875 6.09375 39.328125 
Q 7.953125 44.484375 11.171875 47.703125 
Q 14.40625 50.921875 18.703125 52.359375 
Q 23 53.8125 27.875 53.8125 
Q 34.515625 53.8125 38.984375 51.65625 
Q 43.453125 49.515625 46.15625 45.71875 
Q 48.875 41.9375 50.015625 36.8125 
Q 51.171875 31.6875 51.171875 25.734375 
L 51.171875 24.5625 
z
M 42.09375 31.296875 
Q 41.359375 39.65625 37.84375 43.484375 
Q 34.328125 47.3125 27.734375 47.3125 
Q 25.53125 47.3125 23.109375 46.609375 
Q 20.703125 45.90625 18.65625 44.09375 
Q 16.609375 42.28125 15.1875 39.171875 
Q 13.765625 36.078125 13.578125 31.296875 
z
" id="LiberationSans-65"/>
      <path d="M 18.796875 10.6875 
L 18.796875 2.484375 
Q 18.796875 -0.09375 18.578125 -2.21875 
Q 18.359375 -4.34375 17.875 -6.171875 
Q 17.390625 -8.015625 16.671875 -9.625 
Q 15.96875 -11.234375 14.984375 -12.796875 
L 8.984375 -12.796875 
Q 11.1875 -9.625 12.375 -6.390625 
Q 13.578125 -3.171875 13.578125 0 
L 9.28125 0 
L 9.28125 10.6875 
z
" id="LiberationSans-2c"/>
      <path id="LiberationSans-20"/>
      <path d="M 46.390625 14.59375 
Q 46.390625 10.890625 44.9375 7.984375 
Q 43.5 5.078125 40.765625 3.09375 
Q 38.03125 1.125 34.046875 0.0625 
Q 30.078125 -0.984375 24.953125 -0.984375 
Q 20.359375 -0.984375 16.671875 -0.265625 
Q 12.984375 0.4375 10.203125 2 
Q 7.421875 3.5625 5.53125 6.125 
Q 3.65625 8.6875 2.78125 12.40625 
L 10.546875 13.921875 
Q 11.671875 9.671875 15.1875 7.6875 
Q 18.703125 5.71875 24.953125 5.71875 
Q 27.78125 5.71875 30.140625 6.109375 
Q 32.515625 6.5 34.21875 7.453125 
Q 35.9375 8.40625 36.890625 9.984375 
Q 37.84375 11.578125 37.84375 13.921875 
Q 37.84375 16.3125 36.71875 17.84375 
Q 35.59375 19.390625 33.59375 20.40625 
Q 31.59375 21.4375 28.734375 22.1875 
Q 25.875 22.953125 22.46875 23.875 
Q 19.28125 24.703125 16.15625 25.734375 
Q 13.03125 26.765625 10.515625 28.4375 
Q 8.015625 30.125 6.453125 32.609375 
Q 4.890625 35.109375 4.890625 38.875 
Q 4.890625 46.09375 10.03125 49.875 
Q 15.1875 53.65625 25.046875 53.65625 
Q 33.796875 53.65625 38.9375 50.578125 
Q 44.09375 47.515625 45.453125 40.71875 
L 37.546875 39.75 
Q 37.109375 41.796875 35.9375 43.1875 
Q 34.765625 44.578125 33.109375 45.4375 
Q 31.453125 46.296875 29.375 46.65625 
Q 27.296875 47.015625 25.046875 47.015625 
Q 19.09375 47.015625 16.25 45.203125 
Q 13.421875 43.40625 13.421875 39.75 
Q 13.421875 37.59375 14.46875 36.203125 
Q 15.53125 34.8125 17.40625 33.859375 
Q 19.28125 32.90625 21.921875 32.203125 
Q 24.5625 31.5 27.734375 30.71875 
Q 29.828125 30.171875 32.03125 29.5625 
Q 34.234375 28.953125 36.296875 28.09375 
Q 38.375 27.25 40.203125 26.09375 
Q 42.046875 24.953125 43.40625 23.34375 
Q 44.78125 21.734375 45.578125 19.578125 
Q 46.390625 17.4375 46.390625 14.59375 
" id="LiberationSans-73"/>
      <path d="M 13.421875 26.65625 
Q 13.421875 22.125 14.078125 18.3125 
Q 14.75 14.5 16.3125 11.734375 
Q 17.875 8.984375 20.4375 7.46875 
Q 23 5.953125 26.765625 5.953125 
Q 31.453125 5.953125 34.59375 8.484375 
Q 37.75 11.03125 38.484375 16.3125 
L 47.359375 15.71875 
Q 46.921875 12.453125 45.453125 9.421875 
Q 44 6.390625 41.484375 4.09375 
Q 38.96875 1.8125 35.34375 0.40625 
Q 31.734375 -0.984375 27 -0.984375 
Q 20.796875 -0.984375 16.453125 1.109375 
Q 12.109375 3.21875 9.390625 6.90625 
Q 6.6875 10.59375 5.46875 15.59375 
Q 4.25 20.609375 4.25 26.46875 
Q 4.25 31.78125 5.125 35.859375 
Q 6 39.9375 7.59375 42.984375 
Q 9.1875 46.046875 11.328125 48.125 
Q 13.484375 50.203125 15.984375 51.4375 
Q 18.5 52.6875 21.28125 53.25 
Q 24.078125 53.8125 26.90625 53.8125 
Q 31.34375 53.8125 34.8125 52.59375 
Q 38.28125 51.375 40.796875 49.25 
Q 43.3125 47.125 44.875 44.234375 
Q 46.4375 41.359375 47.078125 38.03125 
L 38.03125 37.359375 
Q 37.359375 41.75 34.5625 44.328125 
Q 31.78125 46.921875 26.65625 46.921875 
Q 22.90625 46.921875 20.390625 45.671875 
Q 17.875 44.4375 16.3125 41.921875 
Q 14.75 39.40625 14.078125 35.59375 
Q 13.421875 31.78125 13.421875 26.65625 
" id="LiberationSans-63"/>
      <path d="M 51.421875 26.46875 
Q 51.421875 12.59375 45.3125 5.796875 
Q 39.203125 -0.984375 27.59375 -0.984375 
Q 22.078125 -0.984375 17.71875 0.671875 
Q 13.375 2.34375 10.375 5.765625 
Q 7.375 9.1875 5.78125 14.328125 
Q 4.203125 19.484375 4.203125 26.46875 
Q 4.203125 53.8125 27.875 53.8125 
Q 34.03125 53.8125 38.5 52.09375 
Q 42.96875 50.390625 45.828125 46.96875 
Q 48.6875 43.5625 50.046875 38.421875 
Q 51.421875 33.296875 51.421875 26.46875 
M 42.1875 26.46875 
Q 42.1875 32.625 41.234375 36.625 
Q 40.28125 40.625 38.453125 43.015625 
Q 36.625 45.40625 33.984375 46.359375 
Q 31.34375 47.3125 28.03125 47.3125 
Q 24.65625 47.3125 21.9375 46.3125 
Q 19.234375 45.3125 17.328125 42.890625 
Q 15.4375 40.484375 14.421875 36.46875 
Q 13.421875 32.46875 13.421875 26.46875 
Q 13.421875 20.3125 14.5 16.28125 
Q 15.578125 12.25 17.453125 9.859375 
Q 19.34375 7.46875 21.90625 6.484375 
Q 24.46875 5.515625 27.484375 5.515625 
Q 30.859375 5.515625 33.59375 6.46875 
Q 36.328125 7.421875 38.234375 9.8125 
Q 40.140625 12.203125 41.15625 16.25 
Q 42.1875 20.3125 42.1875 26.46875 
" id="LiberationSans-6f"/>
      <path d="M 40.28125 0 
L 40.28125 33.5 
Q 40.28125 37.359375 39.71875 39.9375 
Q 39.15625 42.53125 37.890625 44.109375 
Q 36.625 45.703125 34.546875 46.359375 
Q 32.46875 47.015625 29.390625 47.015625 
Q 26.265625 47.015625 23.75 45.921875 
Q 21.234375 44.828125 19.453125 42.75 
Q 17.671875 40.671875 16.6875 37.625 
Q 15.71875 34.578125 15.71875 30.609375 
L 15.71875 0 
L 6.9375 0 
L 6.9375 41.546875 
Q 6.9375 43.21875 6.90625 45.046875 
Q 6.890625 46.875 6.828125 48.5 
Q 6.78125 50.140625 6.734375 51.3125 
Q 6.6875 52.484375 6.640625 52.828125 
L 14.9375 52.828125 
Q 14.984375 52.59375 15.03125 51.515625 
Q 15.09375 50.4375 15.15625 49.046875 
Q 15.234375 47.65625 15.28125 46.21875 
Q 15.328125 44.78125 15.328125 43.796875 
L 15.484375 43.796875 
Q 16.75 46.09375 18.265625 47.953125 
Q 19.78125 49.8125 21.78125 51.09375 
Q 23.78125 52.390625 26.359375 53.09375 
Q 28.953125 53.8125 32.375 53.8125 
Q 36.765625 53.8125 39.9375 52.734375 
Q 43.109375 51.65625 45.15625 49.40625 
Q 47.21875 47.171875 48.171875 43.625 
Q 49.125 40.09375 49.125 35.203125 
L 49.125 0 
z
" id="LiberationSans-6e"/>
      <path d="M 40.09375 8.5 
Q 37.640625 3.421875 33.609375 1.21875 
Q 29.59375 -0.984375 23.640625 -0.984375 
Q 13.625 -0.984375 8.90625 5.75 
Q 4.203125 12.5 4.203125 26.171875 
Q 4.203125 53.8125 23.640625 53.8125 
Q 29.640625 53.8125 33.640625 51.609375 
Q 37.640625 49.421875 40.09375 44.625 
L 40.1875 44.625 
Q 40.1875 45.125 40.15625 46.171875 
Q 40.140625 47.21875 40.109375 48.359375 
Q 40.09375 49.515625 40.09375 50.53125 
Q 40.09375 51.5625 40.09375 52 
L 40.09375 72.46875 
L 48.875 72.46875 
L 48.875 10.890625 
Q 48.875 8.984375 48.890625 7.21875 
Q 48.921875 5.46875 48.96875 4 
Q 49.03125 2.546875 49.078125 1.484375 
Q 49.125 0.4375 49.171875 0 
L 40.765625 0 
Q 40.671875 0.484375 40.59375 1.390625 
Q 40.53125 2.296875 40.453125 3.46875 
Q 40.375 4.640625 40.328125 5.9375 
Q 40.28125 7.234375 40.28125 8.5 
z
M 13.421875 26.46875 
Q 13.421875 21 14.109375 17.09375 
Q 14.796875 13.1875 16.3125 10.671875 
Q 17.828125 8.15625 20.171875 6.984375 
Q 22.515625 5.8125 25.875 5.8125 
Q 29.34375 5.8125 32 6.9375 
Q 34.671875 8.0625 36.453125 10.578125 
Q 38.234375 13.09375 39.15625 17.140625 
Q 40.09375 21.1875 40.09375 27.046875 
Q 40.09375 32.671875 39.15625 36.546875 
Q 38.234375 40.4375 36.421875 42.828125 
Q 34.625 45.21875 32 46.265625 
Q 29.390625 47.3125 25.984375 47.3125 
Q 22.75 47.3125 20.40625 46.1875 
Q 18.0625 45.0625 16.5 42.578125 
Q 14.9375 40.09375 14.171875 36.109375 
Q 13.421875 32.125 13.421875 26.46875 
" id="LiberationSans-64"/>
      <path d="M 17.625 46.4375 
L 17.625 0 
L 8.84375 0 
L 8.84375 46.4375 
L 1.421875 46.4375 
L 1.421875 52.828125 
L 8.84375 52.828125 
L 8.84375 58.796875 
Q 8.84375 61.671875 9.375 64.140625 
Q 9.90625 66.609375 11.34375 68.4375 
Q 12.796875 70.265625 15.28125 71.3125 
Q 17.78125 72.359375 21.734375 72.359375 
Q 23.296875 72.359375 24.96875 72.21875 
Q 26.65625 72.078125 27.9375 71.78125 
L 27.9375 65.09375 
Q 27.09375 65.234375 26 65.359375 
Q 24.90625 65.484375 24.03125 65.484375 
Q 22.078125 65.484375 20.828125 64.9375 
Q 19.578125 64.40625 18.875 63.40625 
Q 18.171875 62.40625 17.890625 60.9375 
Q 17.625 59.46875 17.625 57.5625 
L 17.625 52.828125 
L 27.9375 52.828125 
L 27.9375 46.4375 
z
" id="LiberationSans-66"/>
      <path d="M 6.9375 0 
L 6.9375 40.53125 
Q 6.9375 42.1875 6.90625 43.921875 
Q 6.890625 45.65625 6.828125 47.265625 
Q 6.78125 48.875 6.734375 50.28125 
Q 6.6875 51.703125 6.640625 52.828125 
L 14.9375 52.828125 
Q 14.984375 51.703125 15.0625 50.265625 
Q 15.140625 48.828125 15.203125 47.3125 
Q 15.28125 45.796875 15.296875 44.40625 
Q 15.328125 43.015625 15.328125 42.046875 
L 15.53125 42.046875 
Q 16.453125 45.0625 17.5 47.28125 
Q 18.5625 49.515625 19.96875 50.953125 
Q 21.390625 52.390625 23.34375 53.09375 
Q 25.296875 53.8125 28.078125 53.8125 
Q 29.15625 53.8125 30.125 53.640625 
Q 31.109375 53.46875 31.640625 53.328125 
L 31.640625 45.265625 
Q 30.765625 45.515625 29.59375 45.625 
Q 28.421875 45.75 26.953125 45.75 
Q 23.921875 45.75 21.796875 44.375 
Q 19.671875 43.015625 18.328125 40.59375 
Q 17 38.1875 16.359375 34.84375 
Q 15.71875 31.5 15.71875 27.546875 
L 15.71875 0 
z
" id="LiberationSans-72"/>
      <path d="M 27.046875 0.390625 
Q 25.046875 -0.140625 22.96875 -0.453125 
Q 20.90625 -0.78125 18.171875 -0.78125 
Q 7.625 -0.78125 7.625 11.1875 
L 7.625 46.4375 
L 1.515625 46.4375 
L 1.515625 52.828125 
L 7.953125 52.828125 
L 10.546875 64.65625 
L 16.40625 64.65625 
L 16.40625 52.828125 
L 26.171875 52.828125 
L 26.171875 46.4375 
L 16.40625 46.4375 
L 16.40625 13.09375 
Q 16.40625 9.28125 17.640625 7.734375 
Q 18.890625 6.203125 21.96875 6.203125 
Q 23.25 6.203125 24.4375 6.390625 
Q 25.640625 6.59375 27.046875 6.890625 
z
" id="LiberationSans-74"/>
      <path d="M 51.421875 26.65625 
Q 51.421875 -0.984375 31.984375 -0.984375 
Q 25.984375 -0.984375 22 1.1875 
Q 18.015625 3.375 15.53125 8.203125 
L 15.4375 8.203125 
Q 15.4375 6.9375 15.359375 5.5625 
Q 15.28125 4.203125 15.203125 3.03125 
Q 15.140625 1.859375 15.0625 1.03125 
Q 14.984375 0.203125 14.9375 0 
L 6.453125 0 
Q 6.5 0.4375 6.546875 1.484375 
Q 6.59375 2.546875 6.640625 4 
Q 6.6875 5.46875 6.703125 7.21875 
Q 6.734375 8.984375 6.734375 10.890625 
L 6.734375 72.46875 
L 15.53125 72.46875 
L 15.53125 51.8125 
Q 15.53125 50.34375 15.5 49 
Q 15.484375 47.65625 15.4375 46.625 
Q 15.375 45.40625 15.328125 44.34375 
L 15.53125 44.34375 
Q 17.96875 49.421875 22 51.609375 
Q 26.03125 53.8125 31.984375 53.8125 
Q 42 53.8125 46.703125 47.0625 
Q 51.421875 40.328125 51.421875 26.65625 
M 42.1875 26.375 
Q 42.1875 31.84375 41.5 35.75 
Q 40.828125 39.65625 39.3125 42.15625 
Q 37.796875 44.671875 35.453125 45.84375 
Q 33.109375 47.015625 29.734375 47.015625 
Q 26.265625 47.015625 23.609375 45.890625 
Q 20.953125 44.78125 19.171875 42.28125 
Q 17.390625 39.796875 16.453125 35.734375 
Q 15.53125 31.6875 15.53125 25.828125 
Q 15.53125 20.171875 16.453125 16.3125 
Q 17.390625 12.453125 19.171875 10.03125 
Q 20.953125 7.625 23.578125 6.5625 
Q 26.21875 5.515625 29.640625 5.515625 
Q 32.859375 5.515625 35.203125 6.640625 
Q 37.546875 7.765625 39.109375 10.25 
Q 40.671875 12.75 41.421875 16.71875 
Q 42.1875 20.703125 42.1875 26.375 
" id="LiberationSans-62"/>
      <path d="M 26.765625 -20.75 
Q 22.21875 -20.75 18.703125 -19.8125 
Q 15.1875 -18.890625 12.6875 -17.15625 
Q 10.203125 -15.4375 8.640625 -13.03125 
Q 7.078125 -10.640625 6.390625 -7.71875 
L 15.234375 -6.453125 
Q 16.109375 -10.109375 19.109375 -12.078125 
Q 22.125 -14.0625 27 -14.0625 
Q 29.984375 -14.0625 32.421875 -13.234375 
Q 34.859375 -12.40625 36.5625 -10.5625 
Q 38.28125 -8.734375 39.203125 -5.796875 
Q 40.140625 -2.875 40.140625 1.3125 
L 40.140625 9.8125 
L 40.046875 9.8125 
Q 39.0625 7.8125 37.625 5.984375 
Q 36.1875 4.15625 34.109375 2.734375 
Q 32.03125 1.3125 29.296875 0.453125 
Q 26.5625 -0.390625 23.046875 -0.390625 
Q 18.015625 -0.390625 14.421875 1.296875 
Q 10.84375 2.984375 8.5625 6.34375 
Q 6.296875 9.71875 5.25 14.71875 
Q 4.203125 19.734375 4.203125 26.3125 
Q 4.203125 32.671875 5.25 37.75 
Q 6.296875 42.828125 8.65625 46.359375 
Q 11.03125 49.90625 14.8125 51.78125 
Q 18.609375 53.65625 24.03125 53.65625 
Q 29.640625 53.65625 33.765625 51.09375 
Q 37.890625 48.53125 40.140625 43.796875 
L 40.234375 43.796875 
Q 40.234375 45.015625 40.296875 46.53125 
Q 40.375 48.046875 40.453125 49.390625 
Q 40.53125 50.734375 40.625 51.703125 
Q 40.71875 52.6875 40.828125 52.828125 
L 49.171875 52.828125 
Q 49.125 52.390625 49.078125 51.34375 
Q 49.03125 50.296875 48.96875 48.828125 
Q 48.921875 47.359375 48.890625 45.578125 
Q 48.875 43.796875 48.875 41.890625 
L 48.875 1.515625 
Q 48.875 -9.578125 43.421875 -15.15625 
Q 37.984375 -20.75 26.765625 -20.75 
M 40.140625 26.421875 
Q 40.140625 31.9375 38.9375 35.859375 
Q 37.75 39.796875 35.796875 42.28125 
Q 33.84375 44.78125 31.328125 45.953125 
Q 28.8125 47.125 26.171875 47.125 
Q 22.796875 47.125 20.375 45.953125 
Q 17.96875 44.78125 16.375 42.265625 
Q 14.796875 39.75 14.03125 35.8125 
Q 13.28125 31.890625 13.28125 26.421875 
Q 13.28125 20.703125 14.03125 16.8125 
Q 14.796875 12.9375 16.359375 10.546875 
Q 17.921875 8.15625 20.3125 7.125 
Q 22.703125 6.109375 26.03125 6.109375 
Q 28.65625 6.109375 31.171875 7.21875 
Q 33.6875 8.34375 35.6875 10.78125 
Q 37.703125 13.234375 38.921875 17.09375 
Q 40.140625 20.953125 40.140625 26.421875 
" id="LiberationSans-67"/>
      <path d="M 20.21875 -0.984375 
Q 12.25 -0.984375 8.25 3.21875 
Q 4.25 7.421875 4.25 14.75 
Q 4.25 19.96875 6.21875 23.3125 
Q 8.203125 26.65625 11.390625 28.5625 
Q 14.59375 30.46875 18.6875 31.203125 
Q 22.796875 31.9375 27.046875 32.03125 
L 38.921875 32.234375 
L 38.921875 35.109375 
Q 38.921875 38.375 38.234375 40.671875 
Q 37.546875 42.96875 36.125 44.375 
Q 34.71875 45.796875 32.59375 46.453125 
Q 30.46875 47.125 27.59375 47.125 
Q 25.046875 47.125 23 46.75 
Q 20.953125 46.390625 19.4375 45.4375 
Q 17.921875 44.484375 16.984375 42.84375 
Q 16.0625 41.21875 15.765625 38.71875 
L 6.59375 39.546875 
Q 7.078125 42.671875 8.4375 45.28125 
Q 9.8125 47.90625 12.328125 49.796875 
Q 14.84375 51.703125 18.625 52.75 
Q 22.40625 53.8125 27.78125 53.8125 
Q 37.75 53.8125 42.765625 49.234375 
Q 47.796875 44.671875 47.796875 36.03125 
L 47.796875 13.28125 
Q 47.796875 9.375 48.828125 7.390625 
Q 49.859375 5.421875 52.734375 5.421875 
Q 53.46875 5.421875 54.203125 5.515625 
Q 54.9375 5.609375 55.609375 5.765625 
L 55.609375 0.296875 
Q 53.953125 -0.09375 52.3125 -0.28125 
Q 50.6875 -0.484375 48.828125 -0.484375 
Q 46.34375 -0.484375 44.5625 0.171875 
Q 42.78125 0.828125 41.65625 2.171875 
Q 40.53125 3.515625 39.9375 5.484375 
Q 39.359375 7.46875 39.203125 10.109375 
L 38.921875 10.109375 
Q 37.5 7.5625 35.8125 5.515625 
Q 34.125 3.46875 31.875 2.03125 
Q 29.640625 0.59375 26.78125 -0.1875 
Q 23.921875 -0.984375 20.21875 -0.984375 
M 22.21875 5.609375 
Q 26.421875 5.609375 29.5625 7.140625 
Q 32.71875 8.6875 34.78125 11.078125 
Q 36.859375 13.484375 37.890625 16.3125 
Q 38.921875 19.140625 38.921875 21.734375 
L 38.921875 26.078125 
L 29.296875 25.875 
Q 26.078125 25.828125 23.171875 25.40625 
Q 20.265625 25 18.0625 23.78125 
Q 15.875 22.5625 14.578125 20.359375 
Q 13.28125 18.171875 13.28125 14.59375 
Q 13.28125 10.296875 15.59375 7.953125 
Q 17.921875 5.609375 22.21875 5.609375 
" id="LiberationSans-61"/>
      <path d="M 51.421875 26.65625 
Q 51.421875 20.65625 50.4375 15.578125 
Q 49.46875 10.5 47.1875 6.828125 
Q 44.921875 3.171875 41.1875 1.09375 
Q 37.453125 -0.984375 31.984375 -0.984375 
Q 26.3125 -0.984375 22.0625 1.171875 
Q 17.828125 3.328125 15.578125 8.203125 
L 15.328125 8.203125 
Q 15.375 8.109375 15.40625 7.328125 
Q 15.4375 6.546875 15.453125 5.375 
Q 15.484375 4.203125 15.5 2.75 
Q 15.53125 1.3125 15.53125 -0.09375 
L 15.53125 -20.75 
L 6.734375 -20.75 
L 6.734375 42.046875 
Q 6.734375 43.953125 6.703125 45.703125 
Q 6.6875 47.46875 6.640625 48.90625 
Q 6.59375 50.34375 6.546875 51.359375 
Q 6.5 52.390625 6.453125 52.828125 
L 14.9375 52.828125 
Q 14.984375 52.6875 15.0625 51.796875 
Q 15.140625 50.921875 15.203125 49.671875 
Q 15.28125 48.4375 15.359375 47.015625 
Q 15.4375 45.609375 15.4375 44.34375 
L 15.625 44.34375 
Q 16.84375 46.875 18.40625 48.65625 
Q 19.96875 50.4375 21.96875 51.578125 
Q 23.96875 52.734375 26.4375 53.25 
Q 28.90625 53.765625 31.984375 53.765625 
Q 37.453125 53.765625 41.1875 51.8125 
Q 44.921875 49.859375 47.1875 46.3125 
Q 49.46875 42.78125 50.4375 37.765625 
Q 51.421875 32.765625 51.421875 26.65625 
M 42.1875 26.46875 
Q 42.1875 31.34375 41.59375 35.15625 
Q 41.015625 38.96875 39.578125 41.59375 
Q 38.140625 44.234375 35.734375 45.59375 
Q 33.34375 46.96875 29.734375 46.96875 
Q 26.8125 46.96875 24.21875 46.140625 
Q 21.625 45.3125 19.703125 42.96875 
Q 17.78125 40.625 16.65625 36.5 
Q 15.53125 32.375 15.53125 25.78125 
Q 15.53125 20.171875 16.453125 16.28125 
Q 17.390625 12.40625 19.171875 10.015625 
Q 20.953125 7.625 23.578125 6.5625 
Q 26.21875 5.515625 29.640625 5.515625 
Q 33.296875 5.515625 35.71875 6.921875 
Q 38.140625 8.34375 39.578125 11.03125 
Q 41.015625 13.71875 41.59375 17.59375 
Q 42.1875 21.484375 42.1875 26.46875 
" id="LiberationSans-70"/>
      <path d="M 6.734375 0 
L 6.734375 72.46875 
L 15.53125 72.46875 
L 15.53125 0 
z
" id="LiberationSans-6c"/>
      <path d="M 41.21875 27 
Q 37.84375 27 34.296875 28.078125 
Q 30.765625 29.15625 27.203125 30.421875 
Q 20.90625 32.625 16.609375 32.625 
Q 14.75 32.625 13.15625 32.328125 
Q 11.578125 32.03125 10.109375 31.46875 
Q 8.640625 30.90625 7.265625 30.125 
Q 5.90625 29.34375 4.5 28.328125 
L 4.5 35.296875 
Q 6.9375 37.15625 10.15625 38.28125 
Q 13.375 39.40625 17.328125 39.40625 
Q 19.28125 39.40625 21.234375 39.078125 
Q 23.1875 38.765625 25.0625 38.28125 
Q 26.953125 37.796875 28.78125 37.15625 
Q 30.609375 36.53125 32.421875 35.890625 
Q 33.453125 35.5 34.671875 35.125 
Q 35.890625 34.765625 37.125 34.421875 
Q 38.375 34.078125 39.625 33.875 
Q 40.875 33.6875 42 33.6875 
Q 45.359375 33.6875 48.359375 34.90625 
Q 51.375 36.140625 53.90625 38.1875 
L 53.90625 30.90625 
Q 52.34375 29.78125 50.90625 29.046875 
Q 49.46875 28.328125 47.96875 27.859375 
Q 46.484375 27.390625 44.828125 27.1875 
Q 43.171875 27 41.21875 27 
" id="LiberationSans-7e"/>
     </defs>
     <g style="fill:#262626;" transform="translate(141.220781 412.773438)scale(0.11 -0.11)">
      <use xlink:href="#LiberationSans-54"/>
      <use x="61.037109" xlink:href="#LiberationSans-69"/>
      <use x="83.253906" xlink:href="#LiberationSans-6d"/>
      <use x="166.554688" xlink:href="#LiberationSans-65"/>
      <use x="222.169922" xlink:href="#LiberationSans-2c"/>
      <use x="249.953125" xlink:href="#LiberationSans-20"/>
      <use x="277.736328" xlink:href="#LiberationSans-73"/>
      <use x="327.736328" xlink:href="#LiberationSans-65"/>
      <use x="383.351562" xlink:href="#LiberationSans-63"/>
      <use x="433.351562" xlink:href="#LiberationSans-6f"/>
      <use x="488.966797" xlink:href="#LiberationSans-6e"/>
      <use x="544.582031" xlink:href="#LiberationSans-64"/>
      <use x="600.197266" xlink:href="#LiberationSans-73"/>
      <use x="650.197266" xlink:href="#LiberationSans-20"/>
      <use x="677.980469" xlink:href="#LiberationSans-66"/>
      <use x="705.763672" xlink:href="#LiberationSans-72"/>
      <use x="739.064453" xlink:href="#LiberationSans-6f"/>
      <use x="794.679688" xlink:href="#LiberationSans-6d"/>
      <use x="877.980469" xlink:href="#LiberationSans-20"/>
      <use x="905.763672" xlink:href="#LiberationSans-74"/>
      <use x="933.546875" xlink:href="#LiberationSans-65"/>
      <use x="989.162109" xlink:href="#LiberationSans-73"/>
      <use x="1039.162109" xlink:href="#LiberationSans-74"/>
      <use x="1066.945312" xlink:href="#LiberationSans-20"/>
      <use x="1094.728516" xlink:href="#LiberationSans-62"/>
      <use x="1150.34375" xlink:href="#LiberationSans-65"/>
      <use x="1205.958984" xlink:href="#LiberationSans-67"/>
      <use x="1261.574219" xlink:href="#LiberationSans-69"/>
      <use x="1283.791016" xlink:href="#LiberationSans-6e"/>
      <use x="1339.40625" xlink:href="#LiberationSans-2c"/>
      <use x="1367.189453" xlink:href="#LiberationSans-20"/>
      <use x="1394.972656" xlink:href="#LiberationSans-73"/>
      <use x="1444.972656" xlink:href="#LiberationSans-61"/>
      <use x="1500.587891" xlink:href="#LiberationSans-6d"/>
      <use x="1583.888672" xlink:href="#LiberationSans-70"/>
      <use x="1639.503906" xlink:href="#LiberationSans-6c"/>
      <use x="1661.720703" xlink:href="#LiberationSans-65"/>
      <use x="1717.335938" xlink:href="#LiberationSans-64"/>
      <use x="1772.951172" xlink:href="#LiberationSans-20"/>
      <use x="1800.734375" xlink:href="#LiberationSans-66"/>
      <use x="1828.517578" xlink:href="#LiberationSans-6f"/>
      <use x="1884.132812" xlink:href="#LiberationSans-72"/>
      <use x="1917.433594" xlink:href="#LiberationSans-20"/>
      <use x="1945.216797" xlink:href="#LiberationSans-7e"/>
      <use x="2003.615234" xlink:href="#LiberationSans-31"/>
      <use x="2059.230469" xlink:href="#LiberationSans-32"/>
      <use x="2114.845703" xlink:href="#LiberationSans-30"/>
      <use x="2170.460938" xlink:href="#LiberationSans-20"/>
      <use x="2198.244141" xlink:href="#LiberationSans-73"/>
      <use x="2248.244141" xlink:href="#LiberationSans-65"/>
      <use x="2303.859375" xlink:href="#LiberationSans-63"/>
      <use x="2353.859375" xlink:href="#LiberationSans-6f"/>
      <use x="2409.474609" xlink:href="#LiberationSans-6e"/>
      <use x="2465.089844" xlink:href="#LiberationSans-64"/>
      <use x="2520.705078" xlink:href="#LiberationSans-73"/>
     </g>
    </g>
   </g>
   <g id="matplotlib.axis_2">
    <g id="ytick_1">
     <g id="line2d_13">
      <path clip-path="url(#pa3e4fb90f5)" d="M 90 351.004917 
L 475.2 351.004917 
" style="fill:none;stroke:#ffffff;stroke-linecap:round;"/>
     </g>
     <g id="line2d_14"/>
     <g id="text_8">
      <!-- 2 -->
      <g style="fill:#262626;" transform="translate(77.439063 354.628355)scale(0.1 -0.1)">
       <use xlink:href="#LiberationSans-32"/>
      </g>
     </g>
    </g>
    <g id="ytick_2">
     <g id="line2d_15">
      <path clip-path="url(#pa3e4fb90f5)" d="M 90 293.645283 
L 475.2 293.645283 
" style="fill:none;stroke:#ffffff;stroke-linecap:round;"/>
     </g>
     <g id="line2d_16"/>
     <g id="text_9">
      <!-- 4 -->
      <g style="fill:#262626;" transform="translate(77.439063 297.268721)scale(0.1 -0.1)">
       <use xlink:href="#LiberationSans-34"/>
      </g>
     </g>
    </g>
    <g id="ytick_3">
     <g id="line2d_17">
      <path clip-path="url(#pa3e4fb90f5)" d="M 90 236.285649 
L 475.2 236.285649 
" style="fill:none;stroke:#ffffff;stroke-linecap:round;"/>
     </g>
     <g id="line2d_18"/>
     <g id="text_10">
      <!-- 6 -->
      <defs>
       <path d="M 51.21875 22.515625 
Q 51.21875 17.328125 49.78125 13 
Q 48.34375 8.6875 45.53125 5.578125 
Q 42.71875 2.484375 38.5625 0.75 
Q 34.421875 -0.984375 29 -0.984375 
Q 23 -0.984375 18.5 1.3125 
Q 14.015625 3.609375 11.03125 7.921875 
Q 8.0625 12.25 6.5625 18.53125 
Q 5.078125 24.8125 5.078125 32.8125 
Q 5.078125 42 6.765625 48.921875 
Q 8.453125 55.859375 11.625 60.5 
Q 14.796875 65.140625 19.359375 67.484375 
Q 23.921875 69.828125 29.6875 69.828125 
Q 33.203125 69.828125 36.28125 69.09375 
Q 39.359375 68.359375 41.875 66.71875 
Q 44.390625 65.09375 46.28125 62.40625 
Q 48.1875 59.71875 49.3125 55.8125 
L 40.921875 54.296875 
Q 39.546875 58.734375 36.546875 60.71875 
Q 33.546875 62.703125 29.59375 62.703125 
Q 25.984375 62.703125 23.046875 60.984375 
Q 20.125 59.28125 18.0625 55.875 
Q 16.015625 52.484375 14.90625 47.359375 
Q 13.8125 42.234375 13.8125 35.40625 
Q 16.21875 39.84375 20.5625 42.15625 
Q 24.90625 44.484375 30.515625 44.484375 
Q 35.203125 44.484375 39.015625 42.96875 
Q 42.828125 41.453125 45.53125 38.59375 
Q 48.25 35.75 49.734375 31.671875 
Q 51.21875 27.59375 51.21875 22.515625 
M 42.28125 22.125 
Q 42.28125 25.6875 41.40625 28.5625 
Q 40.53125 31.453125 38.765625 33.46875 
Q 37.015625 35.5 34.421875 36.59375 
Q 31.84375 37.703125 28.421875 37.703125 
Q 26.03125 37.703125 23.578125 36.984375 
Q 21.140625 36.28125 19.15625 34.6875 
Q 17.1875 33.109375 15.9375 30.515625 
Q 14.703125 27.9375 14.703125 24.21875 
Q 14.703125 20.40625 15.671875 17.109375 
Q 16.65625 13.8125 18.484375 11.375 
Q 20.3125 8.9375 22.890625 7.515625 
Q 25.484375 6.109375 28.71875 6.109375 
Q 31.890625 6.109375 34.40625 7.203125 
Q 36.921875 8.296875 38.671875 10.375 
Q 40.4375 12.453125 41.359375 15.421875 
Q 42.28125 18.40625 42.28125 22.125 
" id="LiberationSans-36"/>
      </defs>
      <g style="fill:#262626;" transform="translate(77.439063 239.909086)scale(0.1 -0.1)">
       <use xlink:href="#LiberationSans-36"/>
      </g>
     </g>
    </g>
    <g id="ytick_4">
     <g id="line2d_19">
      <path clip-path="url(#pa3e4fb90f5)" d="M 90 178.926014 
L 475.2 178.926014 
" style="fill:none;stroke:#ffffff;stroke-linecap:round;"/>
     </g>
     <g id="line2d_20"/>
     <g id="text_11">
      <!-- 8 -->
      <defs>
       <path d="M 51.265625 19.1875 
Q 51.265625 14.796875 49.875 11.109375 
Q 48.484375 7.421875 45.625 4.734375 
Q 42.78125 2.046875 38.328125 0.53125 
Q 33.890625 -0.984375 27.828125 -0.984375 
Q 21.78125 -0.984375 17.359375 0.53125 
Q 12.9375 2.046875 10.03125 4.703125 
Q 7.125 7.375 5.734375 11.0625 
Q 4.34375 14.75 4.34375 19.09375 
Q 4.34375 22.859375 5.484375 25.78125 
Q 6.640625 28.71875 8.5625 30.828125 
Q 10.5 32.953125 12.96875 34.25 
Q 15.4375 35.546875 18.0625 35.984375 
L 18.0625 36.1875 
Q 15.1875 36.859375 12.90625 38.375 
Q 10.640625 39.890625 9.09375 42.015625 
Q 7.5625 44.140625 6.75 46.71875 
Q 5.953125 49.3125 5.953125 52.203125 
Q 5.953125 55.8125 7.34375 59 
Q 8.734375 62.203125 11.46875 64.625 
Q 14.203125 67.046875 18.25 68.4375 
Q 22.3125 69.828125 27.640625 69.828125 
Q 33.25 69.828125 37.375 68.40625 
Q 41.5 67 44.203125 64.578125 
Q 46.921875 62.15625 48.234375 58.9375 
Q 49.5625 55.71875 49.5625 52.09375 
Q 49.5625 49.265625 48.75 46.671875 
Q 47.953125 44.09375 46.40625 41.96875 
Q 44.875 39.84375 42.59375 38.34375 
Q 40.328125 36.859375 37.359375 36.28125 
L 37.359375 36.078125 
Q 40.328125 35.59375 42.859375 34.296875 
Q 45.40625 33.015625 47.265625 30.890625 
Q 49.125 28.765625 50.1875 25.828125 
Q 51.265625 22.90625 51.265625 19.1875 
M 40.4375 51.609375 
Q 40.4375 54.203125 39.765625 56.34375 
Q 39.109375 58.5 37.59375 60.03125 
Q 36.078125 61.578125 33.640625 62.421875 
Q 31.203125 63.28125 27.640625 63.28125 
Q 24.171875 63.28125 21.78125 62.421875 
Q 19.390625 61.578125 17.84375 60.03125 
Q 16.3125 58.5 15.625 56.34375 
Q 14.9375 54.203125 14.9375 51.609375 
Q 14.9375 49.5625 15.46875 47.40625 
Q 16.015625 45.265625 17.421875 43.5 
Q 18.84375 41.75 21.328125 40.625 
Q 23.828125 39.5 27.734375 39.5 
Q 31.890625 39.5 34.40625 40.625 
Q 36.921875 41.75 38.25 43.5 
Q 39.59375 45.265625 40.015625 47.40625 
Q 40.4375 49.5625 40.4375 51.609375 
M 42.140625 20.015625 
Q 42.140625 22.515625 41.453125 24.828125 
Q 40.765625 27.15625 39.109375 28.9375 
Q 37.453125 30.71875 34.640625 31.8125 
Q 31.84375 32.90625 27.640625 32.90625 
Q 23.78125 32.90625 21.0625 31.8125 
Q 18.359375 30.71875 16.671875 28.90625 
Q 14.984375 27.09375 14.203125 24.71875 
Q 13.421875 22.359375 13.421875 19.828125 
Q 13.421875 16.65625 14.203125 14.03125 
Q 14.984375 11.421875 16.6875 9.546875 
Q 18.40625 7.671875 21.1875 6.640625 
Q 23.96875 5.609375 27.9375 5.609375 
Q 31.9375 5.609375 34.671875 6.640625 
Q 37.40625 7.671875 39.0625 9.546875 
Q 40.71875 11.421875 41.421875 14.078125 
Q 42.140625 16.75 42.140625 20.015625 
" id="LiberationSans-38"/>
      </defs>
      <g style="fill:#262626;" transform="translate(77.439063 182.549452)scale(0.1 -0.1)">
       <use xlink:href="#LiberationSans-38"/>
      </g>
     </g>
    </g>
    <g id="ytick_5">
     <g id="line2d_21">
      <path clip-path="url(#pa3e4fb90f5)" d="M 90 121.56638 
L 475.2 121.56638 
" style="fill:none;stroke:#ffffff;stroke-linecap:round;"/>
     </g>
     <g id="line2d_22"/>
     <g id="text_12">
      <!-- 10 -->
      <g style="fill:#262626;" transform="translate(71.878125 125.189818)scale(0.1 -0.1)">
       <use xlink:href="#LiberationSans-31"/>
       <use x="55.615234" xlink:href="#LiberationSans-30"/>
      </g>
     </g>
    </g>
    <g id="ytick_6">
     <g id="line2d_23">
      <path clip-path="url(#pa3e4fb90f5)" d="M 90 64.206746 
L 475.2 64.206746 
" style="fill:none;stroke:#ffffff;stroke-linecap:round;"/>
     </g>
     <g id="line2d_24"/>
     <g id="text_13">
      <!-- 12 -->
      <g style="fill:#262626;" transform="translate(71.878125 67.830183)scale(0.1 -0.1)">
       <use xlink:href="#LiberationSans-31"/>
       <use x="55.615234" xlink:href="#LiberationSans-32"/>
      </g>
     </g>
    </g>
    <g id="text_14">
     <!-- Latency, ms -->
     <defs>
      <path d="M 8.203125 0 
L 8.203125 68.796875 
L 17.53125 68.796875 
L 17.53125 7.625 
L 52.296875 7.625 
L 52.296875 0 
z
" id="LiberationSans-4c"/>
      <path d="M 29.5 0 
Q 27.640625 -4.78125 25.703125 -8.609375 
Q 23.78125 -12.453125 21.390625 -15.15625 
Q 19 -17.875 16.0625 -19.3125 
Q 13.140625 -20.75 9.328125 -20.75 
Q 7.671875 -20.75 6.25 -20.65625 
Q 4.828125 -20.5625 3.265625 -20.21875 
L 3.265625 -13.625 
Q 4.203125 -13.765625 5.375 -13.84375 
Q 6.546875 -13.921875 7.375 -13.921875 
Q 11.234375 -13.921875 14.546875 -11.03125 
Q 17.875 -8.15625 20.359375 -1.859375 
L 21.1875 0.25 
L 0.25 52.828125 
L 9.625 52.828125 
L 20.75 23.640625 
Q 21.234375 22.3125 21.984375 20.109375 
Q 22.75 17.921875 23.5 15.71875 
Q 24.265625 13.53125 24.84375 11.765625 
Q 25.4375 10.015625 25.53125 9.578125 
Q 25.6875 10.109375 26.25 11.6875 
Q 26.8125 13.28125 27.515625 15.234375 
Q 28.21875 17.1875 28.953125 19.1875 
Q 29.6875 21.1875 30.171875 22.65625 
L 40.53125 52.828125 
L 49.8125 52.828125 
z
" id="LiberationSans-79"/>
     </defs>
     <g style="fill:#262626;" transform="translate(65.595625 247.803281)rotate(-90)scale(0.11 -0.11)">
      <use xlink:href="#LiberationSans-4c"/>
      <use x="55.615234" xlink:href="#LiberationSans-61"/>
      <use x="111.230469" xlink:href="#LiberationSans-74"/>
      <use x="139.013672" xlink:href="#LiberationSans-65"/>
      <use x="194.628906" xlink:href="#LiberationSans-6e"/>
      <use x="250.244141" xlink:href="#LiberationSans-63"/>
      <use x="300.244141" xlink:href="#LiberationSans-79"/>
      <use x="350.134766" xlink:href="#LiberationSans-2c"/>
      <use x="377.917969" xlink:href="#LiberationSans-20"/>
      <use x="405.701172" xlink:href="#LiberationSans-6d"/>
      <use x="489.001953" xlink:href="#LiberationSans-73"/>
     </g>
    </g>
   </g>
   <g id="PolyCollection_1">
    <path clip-path="url(#pa3e4fb90f5)" d="M 131.923549 368.442247 
L 125.245065 368.442247 
L 123.974369 365.396972 
L 122.649346 362.351697 
L 121.347567 359.306422 
L 120.101549 356.261147 
L 118.90457 353.215871 
L 117.734296 350.170596 
L 116.576138 347.125321 
L 115.434436 344.080046 
L 114.330222 341.03477 
L 113.291728 337.989495 
L 112.345232 334.94422 
L 111.510521 331.898945 
L 110.800785 328.853669 
L 110.224328 325.808394 
L 109.785814 322.763119 
L 109.486442 319.717844 
L 109.32375 316.672569 
L 109.292154 313.627293 
L 109.384634 310.582018 
L 109.59456 307.536743 
L 109.915355 304.491468 
L 110.336147 301.446192 
L 110.835301 298.400917 
L 111.378528 295.355642 
L 111.927722 292.310367 
L 112.457538 289.265092 
L 112.966796 286.219816 
L 113.474049 283.174541 
L 114.000874 280.129266 
L 114.557147 277.083991 
L 115.138298 274.038715 
L 115.732219 270.99344 
L 116.327199 267.948165 
L 116.915483 264.90289 
L 117.492862 261.857614 
L 118.056928 258.812339 
L 118.605607 255.767064 
L 119.136301 252.721789 
L 119.645578 249.676514 
L 120.129555 246.631238 
L 120.584947 243.585963 
L 121.01032 240.540688 
L 121.406687 237.495413 
L 121.777036 234.450137 
L 122.125176 231.404862 
L 122.454619 228.359587 
L 122.767874 225.314312 
L 123.066113 222.269037 
L 123.349244 219.223761 
L 123.616532 216.178486 
L 123.867553 213.133211 
L 124.102844 210.087936 
L 124.323788 207.04266 
L 124.531872 203.997385 
L 124.72805 200.95211 
L 124.912817 197.906835 
L 125.087 194.86156 
L 125.252636 191.816284 
L 125.412958 188.771009 
L 125.57081 185.725734 
L 125.725891 182.680459 
L 125.872842 179.635183 
L 126.002669 176.589908 
L 126.107866 173.544633 
L 126.187824 170.499358 
L 126.249928 167.454082 
L 126.30527 164.408807 
L 126.362727 161.363532 
L 126.425909 158.318257 
L 126.493925 155.272982 
L 126.563802 152.227706 
L 126.632366 149.182431 
L 126.697136 146.137156 
L 126.756637 143.091881 
L 126.810451 140.046605 
L 126.858992 137.00133 
L 126.903122 133.956055 
L 126.943781 130.91078 
L 126.981752 127.865505 
L 127.017631 124.820229 
L 127.05193 121.774954 
L 127.085225 118.729679 
L 127.118199 115.684404 
L 127.151506 112.639128 
L 127.185484 109.593853 
L 127.21984 106.548578 
L 127.253534 103.503303 
L 127.285114 100.458027 
L 127.313418 97.412752 
L 127.338161 94.367477 
L 127.360005 91.322202 
L 127.380358 88.276927 
L 127.401593 85.231651 
L 127.428085 82.186376 
L 127.467428 79.141101 
L 127.530198 76.095826 
L 127.626727 73.05055 
L 127.761185 70.005275 
L 127.926175 66.96 
L 129.242439 66.96 
L 129.242439 66.96 
L 129.407429 70.005275 
L 129.541887 73.05055 
L 129.638416 76.095826 
L 129.701186 79.141101 
L 129.740529 82.186376 
L 129.767021 85.231651 
L 129.788256 88.276927 
L 129.80861 91.322202 
L 129.830454 94.367477 
L 129.855196 97.412752 
L 129.883501 100.458027 
L 129.915081 103.503303 
L 129.948774 106.548578 
L 129.98313 109.593853 
L 130.017108 112.639128 
L 130.050415 115.684404 
L 130.083389 118.729679 
L 130.116685 121.774954 
L 130.150983 124.820229 
L 130.186862 127.865505 
L 130.224834 130.91078 
L 130.265492 133.956055 
L 130.309623 137.00133 
L 130.358163 140.046605 
L 130.411977 143.091881 
L 130.471479 146.137156 
L 130.536248 149.182431 
L 130.604813 152.227706 
L 130.674689 155.272982 
L 130.742705 158.318257 
L 130.805887 161.363532 
L 130.863344 164.408807 
L 130.918686 167.454082 
L 130.98079 170.499358 
L 131.060749 173.544633 
L 131.165945 176.589908 
L 131.295773 179.635183 
L 131.442723 182.680459 
L 131.597805 185.725734 
L 131.755657 188.771009 
L 131.915979 191.816284 
L 132.081614 194.86156 
L 132.255798 197.906835 
L 132.440565 200.95211 
L 132.636743 203.997385 
L 132.844826 207.04266 
L 133.06577 210.087936 
L 133.301062 213.133211 
L 133.552082 216.178486 
L 133.819371 219.223761 
L 134.102501 222.269037 
L 134.40074 225.314312 
L 134.713996 228.359587 
L 135.043439 231.404862 
L 135.391578 234.450137 
L 135.761928 237.495413 
L 136.158294 240.540688 
L 136.583667 243.585963 
L 137.03906 246.631238 
L 137.523036 249.676514 
L 138.032314 252.721789 
L 138.563007 255.767064 
L 139.111687 258.812339 
L 139.675752 261.857614 
L 140.253131 264.90289 
L 140.841415 267.948165 
L 141.436396 270.99344 
L 142.030317 274.038715 
L 142.611467 277.083991 
L 143.167741 280.129266 
L 143.694566 283.174541 
L 144.201819 286.219816 
L 144.711077 289.265092 
L 145.240892 292.310367 
L 145.790086 295.355642 
L 146.333313 298.400917 
L 146.832468 301.446192 
L 147.253259 304.491468 
L 147.574054 307.536743 
L 147.783981 310.582018 
L 147.876461 313.627293 
L 147.844865 316.672569 
L 147.682172 319.717844 
L 147.3828 322.763119 
L 146.944286 325.808394 
L 146.367829 328.853669 
L 145.658094 331.898945 
L 144.823382 334.94422 
L 143.876886 337.989495 
L 142.838393 341.03477 
L 141.734179 344.080046 
L 140.592476 347.125321 
L 139.434318 350.170596 
L 138.264044 353.215871 
L 137.067066 356.261147 
L 135.821047 359.306422 
L 134.519268 362.351697 
L 133.194246 365.396972 
L 131.923549 368.442247 
z
" style="fill:#4c72b0;fill-opacity:0.3;"/>
   </g>
   <g id="PolyCollection_2">
    <path clip-path="url(#pa3e4fb90f5)" d="M 209.071495 369.36 
L 202.434348 369.36 
L 201.231893 366.49086 
L 200.004142 363.621719 
L 198.82521 360.752579 
L 197.722871 357.883438 
L 196.6846 355.014298 
L 195.67962 352.145157 
L 194.68112 349.276017 
L 193.678732 346.406876 
L 192.679673 343.537736 
L 191.702462 340.668595 
L 190.769051 337.799455 
L 189.899602 334.930314 
L 189.110689 332.061174 
L 188.415158 329.192033 
L 187.821957 326.322893 
L 187.335833 323.453752 
L 186.957734 320.584612 
L 186.686359 317.715471 
L 186.520436 314.846331 
L 186.460768 311.97719 
L 186.51082 309.10805 
L 186.674783 306.23891 
L 186.952759 303.369769 
L 187.334339 300.500629 
L 187.794115 297.631488 
L 188.29421 294.762348 
L 188.79624 291.893207 
L 189.277398 289.024067 
L 189.739116 286.154926 
L 190.200925 283.285786 
L 190.684411 280.416645 
L 191.199833 277.547505 
L 191.743365 274.678364 
L 192.302888 271.809224 
L 192.865469 268.940083 
L 193.421861 266.070943 
L 193.967383 263.201802 
L 194.500609 260.332662 
L 195.021426 257.463521 
L 195.529517 254.594381 
L 196.023725 251.72524 
L 196.502173 248.8561 
L 196.962762 245.98696 
L 197.40367 243.117819 
L 197.823643 240.248679 
L 198.222096 237.379538 
L 198.599083 234.510398 
L 198.95524 231.641257 
L 199.291717 228.772117 
L 199.610027 225.902976 
L 199.911739 223.033836 
L 200.198152 220.164695 
L 200.470192 217.295555 
L 200.72852 214.426414 
L 200.973532 211.557274 
L 201.205139 208.688133 
L 201.422675 205.818993 
L 201.625373 202.949852 
L 201.813277 200.080712 
L 201.987924 197.211571 
L 202.152308 194.342431 
L 202.310266 191.47329 
L 202.465618 188.60415 
L 202.620996 185.73501 
L 202.776093 182.865869 
L 202.926052 179.996729 
L 203.061996 177.127588 
L 203.175 174.258448 
L 203.261636 171.389307 
L 203.326745 168.520167 
L 203.380836 165.651026 
L 203.434256 162.781886 
L 203.492726 159.912745 
L 203.556769 157.043605 
L 203.623863 154.174464 
L 203.690747 151.305324 
L 203.754628 148.436183 
L 203.813635 145.567043 
L 203.867169 142.697902 
L 203.916092 139.828762 
L 203.962354 136.959621 
L 204.008014 134.090481 
L 204.054243 131.22134 
L 204.100935 128.3522 
L 204.147042 125.48306 
L 204.191233 122.613919 
L 204.232468 119.744779 
L 204.270302 116.875638 
L 204.304953 114.006498 
L 204.337185 111.137357 
L 204.368125 108.268217 
L 204.399176 105.399076 
L 204.432365 102.529936 
L 204.471388 99.660795 
L 204.522967 96.791655 
L 204.597073 93.922514 
L 204.704194 91.053374 
L 204.849421 88.184233 
L 205.026412 85.315093 
L 206.479431 85.315093 
L 206.479431 85.315093 
L 206.656423 88.184233 
L 206.801649 91.053374 
L 206.90877 93.922514 
L 206.982877 96.791655 
L 207.034455 99.660795 
L 207.073479 102.529936 
L 207.106667 105.399076 
L 207.137718 108.268217 
L 207.168658 111.137357 
L 207.200891 114.006498 
L 207.235541 116.875638 
L 207.273375 119.744779 
L 207.31461 122.613919 
L 207.358801 125.48306 
L 207.404908 128.3522 
L 207.4516 131.22134 
L 207.497829 134.090481 
L 207.543489 136.959621 
L 207.589751 139.828762 
L 207.638674 142.697902 
L 207.692208 145.567043 
L 207.751215 148.436183 
L 207.815096 151.305324 
L 207.88198 154.174464 
L 207.949074 157.043605 
L 208.013117 159.912745 
L 208.071587 162.781886 
L 208.125007 165.651026 
L 208.179098 168.520167 
L 208.244207 171.389307 
L 208.330843 174.258448 
L 208.443847 177.127588 
L 208.579792 179.996729 
L 208.72975 182.865869 
L 208.884847 185.73501 
L 209.040225 188.60415 
L 209.195577 191.47329 
L 209.353535 194.342431 
L 209.517919 197.211571 
L 209.692566 200.080712 
L 209.88047 202.949852 
L 210.083168 205.818993 
L 210.300704 208.688133 
L 210.532311 211.557274 
L 210.777323 214.426414 
L 211.035651 217.295555 
L 211.307691 220.164695 
L 211.594104 223.033836 
L 211.895816 225.902976 
L 212.214126 228.772117 
L 212.550603 231.641257 
L 212.90676 234.510398 
L 213.283747 237.379538 
L 213.6822 240.248679 
L 214.102173 243.117819 
L 214.543081 245.98696 
L 215.00367 248.8561 
L 215.482118 251.72524 
L 215.976326 254.594381 
L 216.484417 257.463521 
L 217.005234 260.332662 
L 217.538461 263.201802 
L 218.083982 266.070943 
L 218.640374 268.940083 
L 219.202955 271.809224 
L 219.762478 274.678364 
L 220.30601 277.547505 
L 220.821432 280.416645 
L 221.304918 283.285786 
L 221.766727 286.154926 
L 222.228445 289.024067 
L 222.709603 291.893207 
L 223.211633 294.762348 
L 223.711728 297.631488 
L 224.171504 300.500629 
L 224.553084 303.369769 
L 224.83106 306.23891 
L 224.995023 309.10805 
L 225.045075 311.97719 
L 224.985407 314.846331 
L 224.819484 317.715471 
L 224.548109 320.584612 
L 224.17001 323.453752 
L 223.683886 326.322893 
L 223.090685 329.192033 
L 222.395155 332.061174 
L 221.606241 334.930314 
L 220.736792 337.799455 
L 219.803381 340.668595 
L 218.82617 343.537736 
L 217.827111 346.406876 
L 216.824723 349.276017 
L 215.826223 352.145157 
L 214.821243 355.014298 
L 213.782972 357.883438 
L 212.680633 360.752579 
L 211.501701 363.621719 
L 210.27395 366.49086 
L 209.071495 369.36 
z
" style="fill:#4c72b0;fill-opacity:0.3;"/>
   </g>
   <g id="PolyCollection_3">
    <path clip-path="url(#pa3e4fb90f5)" d="M 285.8951 368.901122 
L 279.947972 368.901122 
L 278.850887 366.14786 
L 277.717519 363.394597 
L 276.612617 360.641335 
L 275.560286 357.888072 
L 274.549157 355.13481 
L 273.552227 352.381547 
L 272.547177 349.628285 
L 271.52794 346.875022 
L 270.50554 344.12176 
L 269.501391 341.368497 
L 268.538632 338.615235 
L 267.636301 335.861972 
L 266.807876 333.10871 
L 266.062695 330.355447 
L 265.407937 327.602185 
L 264.849798 324.848922 
L 264.393558 322.09566 
L 264.042888 319.342398 
L 263.79916 316.589135 
L 263.6617 313.835873 
L 263.629382 311.08261 
L 263.702717 308.329348 
L 263.884416 305.576085 
L 264.176172 302.822823 
L 264.571224 300.06956 
L 265.046681 297.316298 
L 265.563441 294.563035 
L 266.078776 291.809773 
L 266.565779 289.05651 
L 267.024931 286.303248 
L 267.477882 283.549985 
L 267.949108 280.796723 
L 268.450719 278.043461 
L 268.979908 275.290198 
L 269.526039 272.536936 
L 270.07847 269.783673 
L 270.629722 267.030411 
L 271.1746 264.277148 
L 271.70856 261.523886 
L 272.227353 258.770623 
L 272.727738 256.017361 
L 273.207995 253.264098 
L 273.667586 250.510836 
L 274.106473 247.757573 
L 274.524897 245.004311 
L 274.923721 242.251048 
L 275.304602 239.497786 
L 275.669469 236.744524 
L 276.019636 233.991261 
L 276.355372 231.237999 
L 276.676198 228.484736 
L 276.981431 225.731474 
L 277.270531 222.978211 
L 277.543233 220.224949 
L 277.799693 217.471686 
L 278.040632 214.718424 
L 278.267281 211.965161 
L 278.481063 209.211899 
L 278.68316 206.458636 
L 278.874233 203.705374 
L 279.054536 200.952111 
L 279.224402 198.198849 
L 279.384823 195.445586 
L 279.537783 192.692324 
L 279.686213 189.939062 
L 279.833419 187.185799 
L 279.981654 184.432537 
L 280.129844 181.679274 
L 280.271965 178.926012 
L 280.398453 176.172749 
L 280.501286 173.419487 
L 280.579424 170.666224 
L 280.639935 167.912962 
L 280.693623 165.159699 
L 280.748978 162.406437 
L 280.809073 159.653174 
L 280.87253 156.899912 
L 280.936261 154.146649 
L 280.997587 151.393387 
L 281.055003 148.640125 
L 281.10813 145.886862 
L 281.15741 143.1336 
L 281.203717 140.380337 
L 281.247866 137.627075 
L 281.290142 134.873812 
L 281.330142 132.12055 
L 281.367143 129.367287 
L 281.400816 126.614025 
L 281.43174 123.860762 
L 281.461271 121.1075 
L 281.490926 118.354237 
L 281.521964 115.600975 
L 281.555862 112.847712 
L 281.595793 110.09445 
L 281.648348 107.341187 
L 281.723849 104.587925 
L 281.833428 101.834663 
L 281.982753 99.0814 
L 282.165586 96.328138 
L 283.677486 96.328138 
L 283.677486 96.328138 
L 283.860318 99.0814 
L 284.009644 101.834663 
L 284.119223 104.587925 
L 284.194723 107.341187 
L 284.247279 110.09445 
L 284.287209 112.847712 
L 284.321108 115.600975 
L 284.352146 118.354237 
L 284.381801 121.1075 
L 284.411332 123.860762 
L 284.442256 126.614025 
L 284.475929 129.367287 
L 284.51293 132.12055 
L 284.55293 134.873812 
L 284.595206 137.627075 
L 284.639355 140.380337 
L 284.685662 143.1336 
L 284.734942 145.886862 
L 284.788069 148.640125 
L 284.845485 151.393387 
L 284.906811 154.146649 
L 284.970542 156.899912 
L 285.033998 159.653174 
L 285.094094 162.406437 
L 285.149449 165.159699 
L 285.203137 167.912962 
L 285.263648 170.666224 
L 285.341786 173.419487 
L 285.444618 176.172749 
L 285.571107 178.926012 
L 285.713227 181.679274 
L 285.861418 184.432537 
L 286.009652 187.185799 
L 286.156859 189.939062 
L 286.305289 192.692324 
L 286.458249 195.445586 
L 286.61867 198.198849 
L 286.788536 200.952111 
L 286.968839 203.705374 
L 287.159912 206.458636 
L 287.362009 209.211899 
L 287.575791 211.965161 
L 287.80244 214.718424 
L 288.043378 217.471686 
L 288.299839 220.224949 
L 288.572541 222.978211 
L 288.861641 225.731474 
L 289.166874 228.484736 
L 289.487699 231.237999 
L 289.823436 233.991261 
L 290.173602 236.744524 
L 290.538469 239.497786 
L 290.919351 242.251048 
L 291.318174 245.004311 
L 291.736599 247.757573 
L 292.175485 250.510836 
L 292.635077 253.264098 
L 293.115334 256.017361 
L 293.615719 258.770623 
L 294.134512 261.523886 
L 294.668472 264.277148 
L 295.21335 267.030411 
L 295.764602 269.783673 
L 296.317033 272.536936 
L 296.863164 275.290198 
L 297.392353 278.043461 
L 297.893964 280.796723 
L 298.36519 283.549985 
L 298.818141 286.303248 
L 299.277293 289.05651 
L 299.764296 291.809773 
L 300.27963 294.563035 
L 300.79639 297.316298 
L 301.271848 300.06956 
L 301.6669 302.822823 
L 301.958656 305.576085 
L 302.140355 308.329348 
L 302.213689 311.08261 
L 302.181372 313.835873 
L 302.043912 316.589135 
L 301.800184 319.342398 
L 301.449514 322.09566 
L 300.993274 324.848922 
L 300.435135 327.602185 
L 299.780377 330.355447 
L 299.035196 333.10871 
L 298.206771 335.861972 
L 297.30444 338.615235 
L 296.341681 341.368497 
L 295.337532 344.12176 
L 294.315132 346.875022 
L 293.295895 349.628285 
L 292.290844 352.381547 
L 291.293915 355.13481 
L 290.282786 357.888072 
L 289.230455 360.641335 
L 288.125552 363.394597 
L 286.992185 366.14786 
L 285.8951 368.901122 
z
" style="fill:#4c72b0;fill-opacity:0.3;"/>
   </g>
   <g id="PolyCollection_4">
    <path clip-path="url(#pa3e4fb90f5)" d="M 362.935547 369.36 
L 357.244754 369.36 
L 356.2148 366.787507 
L 355.159254 364.215015 
L 354.13886 361.642522 
L 353.176024 359.07003 
L 352.259795 356.497537 
L 351.362705 353.925044 
L 350.457787 351.352552 
L 349.529816 348.780059 
L 348.579488 346.207566 
L 347.621084 343.635074 
L 346.676032 341.062581 
L 345.766406 338.490089 
L 344.911226 335.917596 
L 344.125345 333.345103 
L 343.419205 330.772611 
L 342.798612 328.200118 
L 342.265035 325.627625 
L 341.81685 323.055133 
L 341.451199 320.48264 
L 341.165795 317.910148 
L 340.960173 315.337655 
L 340.836208 312.765162 
L 340.797997 310.19267 
L 340.851396 307.620177 
L 341.002924 305.047684 
L 341.256591 302.475192 
L 341.607423 299.902699 
L 342.034245 297.330207 
L 342.499139 294.757714 
L 342.959571 292.185221 
L 343.388487 289.612729 
L 343.787343 287.040236 
L 344.180694 284.467743 
L 344.597045 281.895251 
L 345.051978 279.322758 
L 345.544437 276.750266 
L 346.063629 274.177773 
L 346.597209 271.60528 
L 347.134969 269.032788 
L 347.668737 266.460295 
L 348.191635 263.887803 
L 348.698424 261.31531 
L 349.186477 258.742817 
L 349.656164 256.170325 
L 350.109973 253.597832 
L 350.550758 251.025339 
L 350.980164 248.452847 
L 351.398047 245.880354 
L 351.802852 243.307862 
L 352.192374 240.735369 
L 352.564475 238.162876 
L 352.917669 235.590384 
L 353.251527 233.017891 
L 353.566742 230.445398 
L 353.864771 227.872906 
L 354.147266 225.300413 
L 354.415681 222.727921 
L 354.671222 220.155428 
L 354.91498 217.582935 
L 355.147984 215.010443 
L 355.371082 212.43795 
L 355.584784 209.865457 
L 355.789202 207.292965 
L 355.984122 204.720472 
L 356.169141 202.14798 
L 356.343889 199.575487 
L 356.508328 197.002994 
L 356.663168 194.430502 
L 356.810244 191.858009 
L 356.952669 189.285516 
L 357.094275 186.713024 
L 357.237921 184.140531 
L 357.382843 181.568039 
L 357.522791 178.995546 
L 357.647445 176.423053 
L 357.747744 173.850561 
L 357.82178 171.278068 
L 357.876307 168.705576 
L 357.922402 166.133083 
L 357.969135 163.56059 
L 358.020345 160.988098 
L 358.075778 158.415605 
L 358.133934 155.843112 
L 358.193743 153.27062 
L 358.254556 150.698127 
L 358.315584 148.125635 
L 358.37575 145.553142 
L 358.433966 142.980649 
L 358.48938 140.408157 
L 358.541347 137.835664 
L 358.589411 135.263171 
L 358.633696 132.690679 
L 358.675898 130.118186 
L 358.720637 127.545694 
L 358.776442 124.973201 
L 358.855177 122.400708 
L 358.968654 119.828216 
L 359.12252 117.255723 
L 359.310269 114.68323 
L 360.870031 114.68323 
L 360.870031 114.68323 
L 361.05778 117.255723 
L 361.211647 119.828216 
L 361.325124 122.400708 
L 361.403858 124.973201 
L 361.459663 127.545694 
L 361.504403 130.118186 
L 361.546605 132.690679 
L 361.59089 135.263171 
L 361.638954 137.835664 
L 361.690921 140.408157 
L 361.746334 142.980649 
L 361.804551 145.553142 
L 361.864717 148.125635 
L 361.925745 150.698127 
L 361.986558 153.27062 
L 362.046366 155.843112 
L 362.104523 158.415605 
L 362.159956 160.988098 
L 362.211165 163.56059 
L 362.257898 166.133083 
L 362.303993 168.705576 
L 362.358521 171.278068 
L 362.432556 173.850561 
L 362.532855 176.423053 
L 362.65751 178.995546 
L 362.797457 181.568039 
L 362.94238 184.140531 
L 363.086025 186.713024 
L 363.227632 189.285516 
L 363.370056 191.858009 
L 363.517133 194.430502 
L 363.671972 197.002994 
L 363.836412 199.575487 
L 364.011159 202.14798 
L 364.196179 204.720472 
L 364.391098 207.292965 
L 364.595517 209.865457 
L 364.809218 212.43795 
L 365.032317 215.010443 
L 365.265321 217.582935 
L 365.509079 220.155428 
L 365.76462 222.727921 
L 366.033035 225.300413 
L 366.31553 227.872906 
L 366.613559 230.445398 
L 366.928774 233.017891 
L 367.262631 235.590384 
L 367.615826 238.162876 
L 367.987927 240.735369 
L 368.377448 243.307862 
L 368.782253 245.880354 
L 369.200137 248.452847 
L 369.629543 251.025339 
L 370.070327 253.597832 
L 370.524137 256.170325 
L 370.993823 258.742817 
L 371.481877 261.31531 
L 371.988666 263.887803 
L 372.511564 266.460295 
L 373.045331 269.032788 
L 373.583092 271.60528 
L 374.116671 274.177773 
L 374.635863 276.750266 
L 375.128322 279.322758 
L 375.583256 281.895251 
L 375.999607 284.467743 
L 376.392957 287.040236 
L 376.791814 289.612729 
L 377.22073 292.185221 
L 377.681162 294.757714 
L 378.146055 297.330207 
L 378.572878 299.902699 
L 378.92371 302.475192 
L 379.177376 305.047684 
L 379.328905 307.620177 
L 379.382304 310.19267 
L 379.344093 312.765162 
L 379.220127 315.337655 
L 379.014506 317.910148 
L 378.729102 320.48264 
L 378.363451 323.055133 
L 377.915266 325.627625 
L 377.381689 328.200118 
L 376.761095 330.772611 
L 376.054955 333.345103 
L 375.269075 335.917596 
L 374.413894 338.490089 
L 373.504269 341.062581 
L 372.559216 343.635074 
L 371.600812 346.207566 
L 370.650485 348.780059 
L 369.722514 351.352552 
L 368.817596 353.925044 
L 367.920505 356.497537 
L 367.004276 359.07003 
L 366.041441 361.642522 
L 365.021046 364.215015 
L 363.9655 366.787507 
L 362.935547 369.36 
z
" style="fill:#4c72b0;fill-opacity:0.3;"/>
   </g>
   <g id="PolyCollection_5">
    <path clip-path="url(#pa3e4fb90f5)" d="M 439.802288 367.983369 
L 434.072169 367.983369 
L 433.028085 365.276458 
L 431.942245 362.569547 
L 430.872762 359.862636 
L 429.842471 357.155725 
L 428.842891 354.448813 
L 427.851255 351.741902 
L 426.848467 349.034991 
L 425.829498 346.32808 
L 424.804194 343.621169 
L 423.791544 340.914258 
L 422.812724 338.207346 
L 421.886925 335.500435 
L 421.030473 332.793524 
L 420.257092 330.086613 
L 419.57745 327.379702 
L 418.998181 324.67279 
L 418.521868 321.965879 
L 418.148578 319.258968 
L 417.877901 316.552057 
L 417.709967 313.845146 
L 417.645075 311.138234 
L 417.682877 308.431323 
L 417.821917 305.724412 
L 418.058608 303.017501 
L 418.383872 300.31059 
L 418.778213 297.603678 
L 419.210558 294.896767 
L 419.646462 292.189856 
L 420.063533 289.482945 
L 420.462816 286.776034 
L 420.865747 284.069123 
L 421.298379 281.362211 
L 421.775216 278.6553 
L 422.293473 275.948389 
L 422.838334 273.241478 
L 423.392231 270.534567 
L 423.941553 267.827655 
L 424.478824 265.120744 
L 425.001739 262.413833 
L 425.510949 259.706922 
L 426.007738 257.000011 
L 426.492292 254.293099 
L 426.963144 251.586188 
L 427.4178 248.879277 
L 427.853933 246.172366 
L 428.270289 243.465455 
L 428.66696 240.758543 
L 429.045071 238.051632 
L 429.406099 235.344721 
L 429.751147 232.63781 
L 430.080569 229.930899 
L 430.394207 227.223988 
L 430.692022 224.517076 
L 430.974578 221.810165 
L 431.243005 219.103254 
L 431.498516 216.396343 
L 431.741903 213.689432 
L 431.973353 210.98252 
L 432.192684 208.275609 
L 432.399708 205.568698 
L 432.59444 202.861787 
L 432.777195 200.154876 
L 432.94882 197.447964 
L 433.111074 194.741053 
L 433.266854 192.034142 
L 433.419886 189.327231 
L 433.573741 186.62032 
L 433.730138 183.913409 
L 433.886844 181.206497 
L 434.036591 178.499586 
L 434.169032 175.792675 
L 434.275989 173.085764 
L 434.356794 170.378853 
L 434.419242 167.671941 
L 434.475011 164.96503 
L 434.533166 162.258119 
L 434.596578 159.551208 
L 434.662919 156.844297 
L 434.728163 154.137385 
L 434.789555 151.430474 
L 434.846573 148.723563 
L 434.900265 146.016652 
L 434.952101 143.309741 
L 435.003152 140.602829 
L 435.053796 137.895918 
L 435.103786 135.189007 
L 435.152523 132.482096 
L 435.199393 129.775185 
L 435.244038 127.068274 
L 435.286488 124.361362 
L 435.327164 121.654451 
L 435.36706 118.94754 
L 435.408395 116.240629 
L 435.455836 113.533718 
L 435.517643 110.826806 
L 435.605324 108.119895 
L 435.730245 105.412984 
L 435.897353 102.706073 
L 436.099142 99.999162 
L 437.775315 99.999162 
L 437.775315 99.999162 
L 437.977104 102.706073 
L 438.144212 105.412984 
L 438.269134 108.119895 
L 438.356814 110.826806 
L 438.418622 113.533718 
L 438.466063 116.240629 
L 438.507398 118.94754 
L 438.547293 121.654451 
L 438.58797 124.361362 
L 438.630419 127.068274 
L 438.675065 129.775185 
L 438.721934 132.482096 
L 438.770672 135.189007 
L 438.820662 137.895918 
L 438.871305 140.602829 
L 438.922357 143.309741 
L 438.974192 146.016652 
L 439.027884 148.723563 
L 439.084902 151.430474 
L 439.146294 154.137385 
L 439.211538 156.844297 
L 439.277879 159.551208 
L 439.341292 162.258119 
L 439.399447 164.96503 
L 439.455216 167.671941 
L 439.517664 170.378853 
L 439.598468 173.085764 
L 439.705426 175.792675 
L 439.837866 178.499586 
L 439.987613 181.206497 
L 440.144319 183.913409 
L 440.300716 186.62032 
L 440.454572 189.327231 
L 440.607603 192.034142 
L 440.763384 194.741053 
L 440.925638 197.447964 
L 441.097262 200.154876 
L 441.280018 202.861787 
L 441.474749 205.568698 
L 441.681773 208.275609 
L 441.901105 210.98252 
L 442.132555 213.689432 
L 442.375941 216.396343 
L 442.631453 219.103254 
L 442.899879 221.810165 
L 443.182435 224.517076 
L 443.480251 227.223988 
L 443.793889 229.930899 
L 444.123311 232.63781 
L 444.468358 235.344721 
L 444.829386 238.051632 
L 445.207497 240.758543 
L 445.604169 243.465455 
L 446.020525 246.172366 
L 446.456657 248.879277 
L 446.911314 251.586188 
L 447.382165 254.293099 
L 447.86672 257.000011 
L 448.363508 259.706922 
L 448.872718 262.413833 
L 449.395633 265.120744 
L 449.932904 267.827655 
L 450.482227 270.534567 
L 451.036124 273.241478 
L 451.580985 275.948389 
L 452.099242 278.6553 
L 452.576079 281.362211 
L 453.00871 284.069123 
L 453.411641 286.776034 
L 453.810924 289.482945 
L 454.227995 292.189856 
L 454.663899 294.896767 
L 455.096245 297.603678 
L 455.490586 300.31059 
L 455.815849 303.017501 
L 456.052541 305.724412 
L 456.191581 308.431323 
L 456.229382 311.138234 
L 456.16449 313.845146 
L 455.996557 316.552057 
L 455.72588 319.258968 
L 455.352589 321.965879 
L 454.876276 324.67279 
L 454.297007 327.379702 
L 453.617365 330.086613 
L 452.843985 332.793524 
L 451.987532 335.500435 
L 451.061733 338.207346 
L 450.082913 340.914258 
L 449.070263 343.621169 
L 448.044959 346.32808 
L 447.02599 349.034991 
L 446.023202 351.741902 
L 445.031567 354.448813 
L 444.031987 357.155725 
L 443.001695 359.862636 
L 441.932213 362.569547 
L 440.846373 365.276458 
L 439.802288 367.983369 
z
" style="fill:#4c72b0;fill-opacity:0.3;"/>
   </g>
   <g id="LineCollection_1">
    <path clip-path="url(#pa3e4fb90f5)" d="M 118.93823 279.162765 
L 138.230384 279.162765 
" style="fill:none;stroke:#0000ff;stroke-width:1.75;"/>
    <path clip-path="url(#pa3e4fb90f5)" d="M 196.106845 280.408968 
L 215.398998 280.408968 
" style="fill:none;stroke:#0000ff;stroke-width:1.75;"/>
    <path clip-path="url(#pa3e4fb90f5)" d="M 273.275459 281.657797 
L 292.567613 281.657797 
" style="fill:none;stroke:#0000ff;stroke-width:1.75;"/>
    <path clip-path="url(#pa3e4fb90f5)" d="M 350.444073 283.924227 
L 369.736227 283.924227 
" style="fill:none;stroke:#0000ff;stroke-width:1.75;"/>
    <path clip-path="url(#pa3e4fb90f5)" d="M 427.291152 279.466624 
L 446.583306 279.466624 
" style="fill:none;stroke:#0000ff;stroke-width:1.75;"/>
   </g>
   <g id="LineCollection_2">
    <path clip-path="url(#pa3e4fb90f5)" d="M 118.93823 66.96 
L 138.230384 66.96 
" style="fill:none;stroke:#4c72b0;stroke-width:1.75;"/>
    <path clip-path="url(#pa3e4fb90f5)" d="M 196.106845 85.315093 
L 215.398998 85.315093 
" style="fill:none;stroke:#4c72b0;stroke-width:1.75;"/>
    <path clip-path="url(#pa3e4fb90f5)" d="M 273.275459 96.328138 
L 292.567613 96.328138 
" style="fill:none;stroke:#4c72b0;stroke-width:1.75;"/>
    <path clip-path="url(#pa3e4fb90f5)" d="M 350.444073 114.68323 
L 369.736227 114.68323 
" style="fill:none;stroke:#4c72b0;stroke-width:1.75;"/>
    <path clip-path="url(#pa3e4fb90f5)" d="M 427.291152 99.999162 
L 446.583306 99.999162 
" style="fill:none;stroke:#4c72b0;stroke-width:1.75;"/>
   </g>
   <g id="LineCollection_3">
    <path clip-path="url(#pa3e4fb90f5)" d="M 118.93823 368.442247 
L 138.230384 368.442247 
" style="fill:none;stroke:#4c72b0;stroke-width:1.75;"/>
    <path clip-path="url(#pa3e4fb90f5)" d="M 196.106845 369.36 
L 215.398998 369.36 
" style="fill:none;stroke:#4c72b0;stroke-width:1.75;"/>
    <path clip-path="url(#pa3e4fb90f5)" d="M 273.275459 368.901122 
L 292.567613 368.901122 
" style="fill:none;stroke:#4c72b0;stroke-width:1.75;"/>
    <path clip-path="url(#pa3e4fb90f5)" d="M 350.444073 369.36 
L 369.736227 369.36 
" style="fill:none;stroke:#4c72b0;stroke-width:1.75;"/>
    <path clip-path="url(#pa3e4fb90f5)" d="M 427.291152 367.983369 
L 446.583306 367.983369 
" style="fill:none;stroke:#4c72b0;stroke-width:1.75;"/>
   </g>
   <g id="LineCollection_4">
    <path clip-path="url(#pa3e4fb90f5)" d="M 128.584307 368.442247 
L 128.584307 66.96 
" style="fill:none;stroke:#4c72b0;stroke-width:1.75;"/>
    <path clip-path="url(#pa3e4fb90f5)" d="M 205.752922 369.36 
L 205.752922 85.315093 
" style="fill:none;stroke:#4c72b0;stroke-width:1.75;"/>
    <path clip-path="url(#pa3e4fb90f5)" d="M 282.921536 368.901122 
L 282.921536 96.328138 
" style="fill:none;stroke:#4c72b0;stroke-width:1.75;"/>
    <path clip-path="url(#pa3e4fb90f5)" d="M 360.09015 369.36 
L 360.09015 114.68323 
" style="fill:none;stroke:#4c72b0;stroke-width:1.75;"/>
    <path clip-path="url(#pa3e4fb90f5)" d="M 436.937229 367.983369 
L 436.937229 99.999162 
" style="fill:none;stroke:#4c72b0;stroke-width:1.75;"/>
   </g>
   <g id="LineCollection_5">
    <path clip-path="url(#pa3e4fb90f5)" d="M 118.93823 293.645283 
L 138.230384 293.645283 
" style="fill:none;stroke:#008000;stroke-width:1.75;"/>
    <path clip-path="url(#pa3e4fb90f5)" d="M 196.106845 293.645283 
L 215.398998 293.645283 
" style="fill:none;stroke:#008000;stroke-width:1.75;"/>
    <path clip-path="url(#pa3e4fb90f5)" d="M 273.275459 293.645283 
L 292.567613 293.645283 
" style="fill:none;stroke:#008000;stroke-width:1.75;"/>
    <path clip-path="url(#pa3e4fb90f5)" d="M 350.444073 294.563039 
L 369.736227 294.563039 
" style="fill:none;stroke:#008000;stroke-width:1.75;"/>
    <path clip-path="url(#pa3e4fb90f5)" d="M 427.291152 291.809771 
L 446.583306 291.809771 
" style="fill:none;stroke:#008000;stroke-width:1.75;"/>
   </g>
   <g id="patch_3">
    <path d="M 90 384.48 
L 90 51.84 
" style="fill:none;"/>
   </g>
   <g id="patch_4">
    <path d="M 475.2 384.48 
L 475.2 51.84 
" style="fill:none;"/>
   </g>
   <g id="patch_5">
    <path d="M 90 384.48 
L 475.2 384.48 
" style="fill:none;"/>
   </g>
   <g id="patch_6">
    <path d="M 90 51.84 
L 475.2 51.84 
" style="fill:none;"/>
   </g>
   <g id="text_15">
    <!-- Latency -->
    <g style="fill:#262626;" transform="translate(261.586875 45.84)scale(0.12 -0.12)">
     <use xlink:href="#LiberationSans-4c"/>
     <use x="55.615234" xlink:href="#LiberationSans-61"/>
     <use x="111.230469" xlink:href="#LiberationSans-74"/>
     <use x="139.013672" xlink:href="#LiberationSans-65"/>
     <use x="194.628906" xlink:href="#LiberationSans-6e"/>
     <use x="250.244141" xlink:href="#LiberationSans-63"/>
     <use x="300.244141" xlink:href="#LiberationSans-79"/>
    </g>
   </g>
   <g id="legend_1">
    <g id="line2d_25">
     <path d="M 495.756 106.9666 
L 515.756 106.9666 
" style="fill:none;stroke:#0000ff;stroke-width:1.75;"/>
    </g>
    <g id="text_16">
     <!-- mean -->
     <g style="fill:#262626;" transform="translate(523.756 110.4666)scale(0.1 -0.1)">
      <use xlink:href="#LiberationSans-6d"/>
      <use x="83.300781" xlink:href="#LiberationSans-65"/>
      <use x="138.916016" xlink:href="#LiberationSans-61"/>
      <use x="194.53125" xlink:href="#LiberationSans-6e"/>
     </g>
    </g>
    <g id="line2d_26">
     <path d="M 495.756 121.288475 
L 515.756 121.288475 
" style="fill:none;stroke:#008000;stroke-width:1.75;"/>
    </g>
    <g id="text_17">
     <!-- median -->
     <g style="fill:#262626;" transform="translate(523.756 124.788475)scale(0.1 -0.1)">
      <use xlink:href="#LiberationSans-6d"/>
      <use x="83.300781" xlink:href="#LiberationSans-65"/>
      <use x="138.916016" xlink:href="#LiberationSans-64"/>
      <use x="194.53125" xlink:href="#LiberationSans-69"/>
      <use x="216.748047" xlink:href="#LiberationSans-61"/>
      <use x="272.363281" xlink:href="#LiberationSans-6e"/>
     </g>
    </g>
   </g>
  </g>
 </g>
 <defs>
  <clipPath id="pa3e4fb90f5">
   <rect height="332.64" width="385.2" x="90" y="51.84"/>
  </clipPath>
 </defs>
</svg>
