
<svg height="432pt" version="1.1" viewBox="0 0 720 432" width="720pt" xmlns="http://www.w3.org/2000/svg" xmlns:xlink="http://www.w3.org/1999/xlink">
 <defs>
  <style type="text/css">
*{stroke-linecap:butt;stroke-linejoin:round;}
  </style>
 </defs>
 <g id="figure_1">
  <g id="patch_1">
   <path d="M 0 432 
L 720 432 
L 720 0 
L 0 0 
z
" style="fill:#ffffff;"/>
  </g>
  <g id="axes_1">
   <g id="patch_2">
    <path d="M 90 384.48 
L 475.2 384.48 
L 475.2 51.84 
L 90 51.84 
z
" style="fill:#eaeaf2;"/>
   </g>
   <g id="matplotlib.axis_1">
    <g id="xtick_1">
     <g id="line2d_1">
      <path clip-path="url(#p3086917a7d)" d="M 90 384.48 
L 90 51.84 
" style="fill:none;stroke:#ffffff;stroke-linecap:round;"/>
     </g>
     <g id="line2d_2"/>
     <g id="text_1">
      <!-- 0 -->
      <defs>
       <path d="M 51.703125 34.421875 
Q 51.703125 24.515625 49.828125 17.75 
Q 47.953125 10.984375 44.703125 6.8125 
Q 41.453125 2.640625 37.0625 0.828125 
Q 32.671875 -0.984375 27.6875 -0.984375 
Q 22.65625 -0.984375 18.3125 0.828125 
Q 13.96875 2.640625 10.765625 6.78125 
Q 7.5625 10.9375 5.734375 17.703125 
Q 3.90625 24.46875 3.90625 34.421875 
Q 3.90625 44.828125 5.734375 51.640625 
Q 7.5625 58.453125 10.78125 62.5 
Q 14.015625 66.546875 18.40625 68.1875 
Q 22.796875 69.828125 27.984375 69.828125 
Q 32.90625 69.828125 37.21875 68.1875 
Q 41.546875 66.546875 44.765625 62.5 
Q 48 58.453125 49.84375 51.640625 
Q 51.703125 44.828125 51.703125 34.421875 
M 42.78125 34.421875 
Q 42.78125 42.625 41.796875 48.0625 
Q 40.828125 53.515625 38.921875 56.765625 
Q 37.015625 60.015625 34.25 61.359375 
Q 31.5 62.703125 27.984375 62.703125 
Q 24.265625 62.703125 21.4375 61.328125 
Q 18.609375 59.96875 16.671875 56.71875 
Q 14.75 53.46875 13.765625 48.015625 
Q 12.796875 42.578125 12.796875 34.421875 
Q 12.796875 26.515625 13.796875 21.09375 
Q 14.796875 15.671875 16.71875 12.375 
Q 18.65625 9.078125 21.4375 7.640625 
Q 24.21875 6.203125 27.78125 6.203125 
Q 31.25 6.203125 34.03125 7.640625 
Q 36.8125 9.078125 38.734375 12.375 
Q 40.671875 15.671875 41.71875 21.09375 
Q 42.78125 26.515625 42.78125 34.421875 
" id="LiberationSans-30"/>
      </defs>
      <g style="fill:#262626;" transform="translate(87.219531 398.726875)scale(0.1 -0.1)">
       <use xlink:href="#LiberationSans-30"/>
      </g>
     </g>
    </g>
    <g id="xtick_2">
     <g id="line2d_3">
      <path clip-path="url(#p3086917a7d)" d="M 154.307179 384.48 
L 154.307179 51.84 
" style="fill:none;stroke:#ffffff;stroke-linecap:round;"/>
     </g>
     <g id="line2d_4"/>
     <g id="text_2">
      <!-- 100 -->
      <defs>
       <path d="M 7.625 0 
L 7.625 7.46875 
L 25.140625 7.46875 
L 25.140625 60.40625 
L 9.625 49.3125 
L 9.625 57.625 
L 25.875 68.796875 
L 33.984375 68.796875 
L 33.984375 7.46875 
L 50.734375 7.46875 
L 50.734375 0 
z
" id="LiberationSans-31"/>
      </defs>
      <g style="fill:#262626;" transform="translate(145.965772 398.726875)scale(0.1 -0.1)">
       <use xlink:href="#LiberationSans-31"/>
       <use x="55.615234" xlink:href="#LiberationSans-30"/>
       <use x="111.230469" xlink:href="#LiberationSans-30"/>
      </g>
     </g>
    </g>
    <g id="xtick_3">
     <g id="line2d_5">
      <path clip-path="url(#p3086917a7d)" d="M 218.614357 384.48 
L 218.614357 51.84 
" style="fill:none;stroke:#ffffff;stroke-linecap:round;"/>
     </g>
     <g id="line2d_6"/>
     <g id="text_3">
      <!-- 200 -->
      <defs>
       <path d="M 5.03125 0 
L 5.03125 6.203125 
Q 7.515625 11.921875 11.109375 16.28125 
Q 14.703125 20.65625 18.65625 24.1875 
Q 22.609375 27.734375 26.484375 30.765625 
Q 30.375 33.796875 33.5 36.8125 
Q 36.625 39.84375 38.546875 43.15625 
Q 40.484375 46.484375 40.484375 50.6875 
Q 40.484375 53.609375 39.59375 55.828125 
Q 38.71875 58.0625 37.0625 59.5625 
Q 35.40625 61.078125 33.078125 61.828125 
Q 30.765625 62.59375 27.9375 62.59375 
Q 25.296875 62.59375 22.96875 61.859375 
Q 20.65625 61.140625 18.84375 59.671875 
Q 17.046875 58.203125 15.890625 56.03125 
Q 14.75 53.859375 14.40625 50.984375 
L 5.421875 51.8125 
Q 5.859375 55.515625 7.46875 58.78125 
Q 9.078125 62.0625 11.90625 64.53125 
Q 14.75 67 18.71875 68.40625 
Q 22.703125 69.828125 27.9375 69.828125 
Q 33.0625 69.828125 37.0625 68.609375 
Q 41.0625 67.390625 43.8125 64.984375 
Q 46.578125 62.59375 48.046875 59.078125 
Q 49.515625 55.5625 49.515625 50.984375 
Q 49.515625 47.515625 48.265625 44.390625 
Q 47.015625 41.265625 44.9375 38.421875 
Q 42.875 35.59375 40.140625 32.953125 
Q 37.40625 30.328125 34.421875 27.8125 
Q 31.453125 25.296875 28.421875 22.828125 
Q 25.390625 20.359375 22.71875 17.859375 
Q 20.0625 15.375 17.96875 12.8125 
Q 15.875 10.25 14.703125 7.46875 
L 50.59375 7.46875 
L 50.59375 0 
z
" id="LiberationSans-32"/>
      </defs>
      <g style="fill:#262626;" transform="translate(210.272951 398.726875)scale(0.1 -0.1)">
       <use xlink:href="#LiberationSans-32"/>
       <use x="55.615234" xlink:href="#LiberationSans-30"/>
       <use x="111.230469" xlink:href="#LiberationSans-30"/>
      </g>
     </g>
    </g>
    <g id="xtick_4">
     <g id="line2d_7">
      <path clip-path="url(#p3086917a7d)" d="M 282.921536 384.48 
L 282.921536 51.84 
" style="fill:none;stroke:#ffffff;stroke-linecap:round;"/>
     </g>
     <g id="line2d_8"/>
     <g id="text_4">
      <!-- 300 -->
      <defs>
       <path d="M 51.21875 19 
Q 51.21875 14.265625 49.671875 10.546875 
Q 48.140625 6.84375 45.1875 4.265625 
Q 42.234375 1.703125 37.859375 0.359375 
Q 33.5 -0.984375 27.875 -0.984375 
Q 21.484375 -0.984375 17.109375 0.609375 
Q 12.75 2.203125 9.90625 4.8125 
Q 7.078125 7.421875 5.65625 10.765625 
Q 4.25 14.109375 3.8125 17.671875 
L 12.890625 18.5 
Q 13.28125 15.765625 14.328125 13.515625 
Q 15.375 11.28125 17.1875 9.671875 
Q 19 8.0625 21.625 7.171875 
Q 24.265625 6.296875 27.875 6.296875 
Q 34.515625 6.296875 38.296875 9.5625 
Q 42.09375 12.84375 42.09375 19.28125 
Q 42.09375 23.09375 40.40625 25.40625 
Q 38.71875 27.734375 36.203125 29.03125 
Q 33.6875 30.328125 30.734375 30.765625 
Q 27.78125 31.203125 25.296875 31.203125 
L 20.3125 31.203125 
L 20.3125 38.8125 
L 25.09375 38.8125 
Q 27.59375 38.8125 30.265625 39.328125 
Q 32.953125 39.84375 35.171875 41.1875 
Q 37.40625 42.53125 38.84375 44.828125 
Q 40.28125 47.125 40.28125 50.6875 
Q 40.28125 56.203125 37.03125 59.390625 
Q 33.796875 62.59375 27.390625 62.59375 
Q 21.578125 62.59375 17.984375 59.609375 
Q 14.40625 56.640625 13.8125 51.21875 
L 4.984375 51.90625 
Q 5.515625 56.453125 7.46875 59.8125 
Q 9.421875 63.1875 12.421875 65.40625 
Q 15.4375 67.625 19.28125 68.71875 
Q 23.140625 69.828125 27.484375 69.828125 
Q 33.25 69.828125 37.390625 68.375 
Q 41.546875 66.9375 44.1875 64.46875 
Q 46.828125 62.015625 48.0625 58.6875 
Q 49.3125 55.375 49.3125 51.609375 
Q 49.3125 48.578125 48.484375 45.9375 
Q 47.65625 43.3125 45.890625 41.203125 
Q 44.140625 39.109375 41.421875 37.59375 
Q 38.71875 36.078125 34.90625 35.296875 
L 34.90625 35.109375 
Q 39.0625 34.671875 42.140625 33.21875 
Q 45.21875 31.78125 47.21875 29.625 
Q 49.21875 27.484375 50.21875 24.75 
Q 51.21875 22.015625 51.21875 19 
" id="LiberationSans-33"/>
      </defs>
      <g style="fill:#262626;" transform="translate(274.58013 398.726875)scale(0.1 -0.1)">
       <use xlink:href="#LiberationSans-33"/>
       <use x="55.615234" xlink:href="#LiberationSans-30"/>
       <use x="111.230469" xlink:href="#LiberationSans-30"/>
      </g>
     </g>
    </g>
    <g id="xtick_5">
     <g id="line2d_9">
      <path clip-path="url(#p3086917a7d)" d="M 347.228715 384.48 
L 347.228715 51.84 
" style="fill:none;stroke:#ffffff;stroke-linecap:round;"/>
     </g>
     <g id="line2d_10"/>
     <g id="text_5">
      <!-- 400 -->
      <defs>
       <path d="M 43.015625 15.578125 
L 43.015625 0 
L 34.71875 0 
L 34.71875 15.578125 
L 2.296875 15.578125 
L 2.296875 22.40625 
L 33.796875 68.796875 
L 43.015625 68.796875 
L 43.015625 22.515625 
L 52.6875 22.515625 
L 52.6875 15.578125 
z
M 34.71875 58.890625 
Q 34.625 58.640625 34.234375 57.9375 
Q 33.84375 57.234375 33.34375 56.34375 
Q 32.859375 55.46875 32.34375 54.5625 
Q 31.84375 53.65625 31.453125 53.078125 
L 13.8125 27.09375 
Q 13.578125 26.703125 13.109375 26.0625 
Q 12.640625 25.4375 12.15625 24.78125 
Q 11.671875 24.125 11.171875 23.484375 
Q 10.6875 22.859375 10.40625 22.515625 
L 34.71875 22.515625 
z
" id="LiberationSans-34"/>
      </defs>
      <g style="fill:#262626;" transform="translate(338.887308 398.726875)scale(0.1 -0.1)">
       <use xlink:href="#LiberationSans-34"/>
       <use x="55.615234" xlink:href="#LiberationSans-30"/>
       <use x="111.230469" xlink:href="#LiberationSans-30"/>
      </g>
     </g>
    </g>
    <g id="xtick_6">
     <g id="line2d_11">
      <path clip-path="url(#p3086917a7d)" d="M 411.535893 384.48 
L 411.535893 51.84 
" style="fill:none;stroke:#ffffff;stroke-linecap:round;"/>
     </g>
     <g id="line2d_12"/>
     <g id="text_6">
      <!-- 500 -->
      <defs>
       <path d="M 51.421875 22.40625 
Q 51.421875 17.234375 49.859375 12.9375 
Q 48.296875 8.640625 45.21875 5.53125 
Q 42.140625 2.4375 37.578125 0.71875 
Q 33.015625 -0.984375 27 -0.984375 
Q 21.578125 -0.984375 17.546875 0.28125 
Q 13.53125 1.5625 10.734375 3.78125 
Q 7.953125 6 6.3125 8.984375 
Q 4.6875 11.96875 4 15.375 
L 12.890625 16.40625 
Q 13.421875 14.453125 14.390625 12.625 
Q 15.375 10.796875 17.0625 9.34375 
Q 18.75 7.90625 21.21875 7.046875 
Q 23.6875 6.203125 27.203125 6.203125 
Q 30.609375 6.203125 33.390625 7.25 
Q 36.1875 8.296875 38.15625 10.34375 
Q 40.140625 12.40625 41.203125 15.375 
Q 42.28125 18.359375 42.28125 22.21875 
Q 42.28125 25.390625 41.25 28.046875 
Q 40.234375 30.71875 38.328125 32.640625 
Q 36.421875 34.578125 33.65625 35.640625 
Q 30.90625 36.71875 27.390625 36.71875 
Q 25.203125 36.71875 23.34375 36.328125 
Q 21.484375 35.9375 19.890625 35.25 
Q 18.3125 34.578125 17.015625 33.671875 
Q 15.71875 32.765625 14.59375 31.78125 
L 6 31.78125 
L 8.296875 68.796875 
L 47.40625 68.796875 
L 47.40625 61.328125 
L 16.3125 61.328125 
L 14.984375 39.5 
Q 17.328125 41.3125 20.84375 42.59375 
Q 24.359375 43.890625 29.203125 43.890625 
Q 34.328125 43.890625 38.421875 42.328125 
Q 42.53125 40.765625 45.40625 37.90625 
Q 48.296875 35.0625 49.859375 31.109375 
Q 51.421875 27.15625 51.421875 22.40625 
" id="LiberationSans-35"/>
      </defs>
      <g style="fill:#262626;" transform="translate(403.194487 398.726875)scale(0.1 -0.1)">
       <use xlink:href="#LiberationSans-35"/>
       <use x="55.615234" xlink:href="#LiberationSans-30"/>
       <use x="111.230469" xlink:href="#LiberationSans-30"/>
      </g>
     </g>
    </g>
    <g id="text_7">
     <!-- Time, seconds from test begin, sampled for ~120 seconds -->
     <defs>
      <path d="M 35.15625 61.1875 
L 35.15625 0 
L 25.875 0 
L 25.875 61.1875 
L 2.25 61.1875 
L 2.25 68.796875 
L 58.796875 68.796875 
L 58.796875 61.1875 
z
" id="LiberationSans-54"/>
      <path d="M 6.6875 64.0625 
L 6.6875 72.46875 
L 15.484375 72.46875 
L 15.484375 64.0625 
z
M 6.6875 0 
L 6.6875 52.828125 
L 15.484375 52.828125 
L 15.484375 0 
z
" id="LiberationSans-69"/>
      <path d="M 37.5 0 
L 37.5 33.5 
Q 37.5 37.359375 37.015625 39.9375 
Q 36.53125 42.53125 35.375 44.109375 
Q 34.234375 45.703125 32.375 46.359375 
Q 30.515625 47.015625 27.828125 47.015625 
Q 25.046875 47.015625 22.796875 45.921875 
Q 20.5625 44.828125 18.96875 42.75 
Q 17.390625 40.671875 16.53125 37.625 
Q 15.671875 34.578125 15.671875 30.609375 
L 15.671875 0 
L 6.9375 0 
L 6.9375 41.546875 
Q 6.9375 43.21875 6.90625 45.046875 
Q 6.890625 46.875 6.828125 48.5 
Q 6.78125 50.140625 6.734375 51.3125 
Q 6.6875 52.484375 6.640625 52.828125 
L 14.9375 52.828125 
Q 14.984375 52.59375 15.03125 51.515625 
Q 15.09375 50.4375 15.15625 49.046875 
Q 15.234375 47.65625 15.28125 46.21875 
Q 15.328125 44.78125 15.328125 43.796875 
L 15.484375 43.796875 
Q 16.65625 46.09375 18.015625 47.953125 
Q 19.390625 49.8125 21.21875 51.09375 
Q 23.046875 52.390625 25.40625 53.09375 
Q 27.78125 53.8125 30.90625 53.8125 
Q 36.921875 53.8125 40.40625 51.421875 
Q 43.890625 49.03125 45.265625 43.796875 
L 45.40625 43.796875 
Q 46.578125 46.09375 48.046875 47.953125 
Q 49.515625 49.8125 51.46875 51.09375 
Q 53.421875 52.390625 55.859375 53.09375 
Q 58.296875 53.8125 61.421875 53.8125 
Q 65.4375 53.8125 68.328125 52.734375 
Q 71.234375 51.65625 73.09375 49.40625 
Q 74.953125 47.171875 75.828125 43.625 
Q 76.703125 40.09375 76.703125 35.203125 
L 76.703125 0 
L 68.015625 0 
L 68.015625 33.5 
Q 68.015625 37.359375 67.53125 39.9375 
Q 67.046875 42.53125 65.890625 44.109375 
Q 64.75 45.703125 62.890625 46.359375 
Q 61.03125 47.015625 58.34375 47.015625 
Q 55.5625 47.015625 53.3125 45.96875 
Q 51.078125 44.921875 49.484375 42.875 
Q 47.90625 40.828125 47.046875 37.75 
Q 46.1875 34.671875 46.1875 30.609375 
L 46.1875 0 
z
" id="LiberationSans-6d"/>
      <path d="M 13.484375 24.5625 
Q 13.484375 20.40625 14.328125 16.90625 
Q 15.1875 13.421875 16.96875 10.90625 
Q 18.75 8.40625 21.53125 7 
Q 24.3125 5.609375 28.21875 5.609375 
Q 33.9375 5.609375 37.375 7.90625 
Q 40.828125 10.203125 42.046875 13.71875 
L 49.75 11.53125 
Q 48.921875 9.328125 47.4375 7.109375 
Q 45.953125 4.890625 43.453125 3.09375 
Q 40.96875 1.3125 37.234375 0.15625 
Q 33.5 -0.984375 28.21875 -0.984375 
Q 16.5 -0.984375 10.375 6 
Q 4.25 12.984375 4.25 26.765625 
Q 4.25 34.1875 6.09375 39.328125 
Q 7.953125 44.484375 11.171875 47.703125 
Q 14.40625 50.921875 18.703125 52.359375 
Q 23 53.8125 27.875 53.8125 
Q 34.515625 53.8125 38.984375 51.65625 
Q 43.453125 49.515625 46.15625 45.71875 
Q 48.875 41.9375 50.015625 36.8125 
Q 51.171875 31.6875 51.171875 25.734375 
L 51.171875 24.5625 
z
M 42.09375 31.296875 
Q 41.359375 39.65625 37.84375 43.484375 
Q 34.328125 47.3125 27.734375 47.3125 
Q 25.53125 47.3125 23.109375 46.609375 
Q 20.703125 45.90625 18.65625 44.09375 
Q 16.609375 42.28125 15.1875 39.171875 
Q 13.765625 36.078125 13.578125 31.296875 
z
" id="LiberationSans-65"/>
      <path d="M 18.796875 10.6875 
L 18.796875 2.484375 
Q 18.796875 -0.09375 18.578125 -2.21875 
Q 18.359375 -4.34375 17.875 -6.171875 
Q 17.390625 -8.015625 16.671875 -9.625 
Q 15.96875 -11.234375 14.984375 -12.796875 
L 8.984375 -12.796875 
Q 11.1875 -9.625 12.375 -6.390625 
Q 13.578125 -3.171875 13.578125 0 
L 9.28125 0 
L 9.28125 10.6875 
z
" id="LiberationSans-2c"/>
      <path id="LiberationSans-20"/>
      <path d="M 46.390625 14.59375 
Q 46.390625 10.890625 44.9375 7.984375 
Q 43.5 5.078125 40.765625 3.09375 
Q 38.03125 1.125 34.046875 0.0625 
Q 30.078125 -0.984375 24.953125 -0.984375 
Q 20.359375 -0.984375 16.671875 -0.265625 
Q 12.984375 0.4375 10.203125 2 
Q 7.421875 3.5625 5.53125 6.125 
Q 3.65625 8.6875 2.78125 12.40625 
L 10.546875 13.921875 
Q 11.671875 9.671875 15.1875 7.6875 
Q 18.703125 5.71875 24.953125 5.71875 
Q 27.78125 5.71875 30.140625 6.109375 
Q 32.515625 6.5 34.21875 7.453125 
Q 35.9375 8.40625 36.890625 9.984375 
Q 37.84375 11.578125 37.84375 13.921875 
Q 37.84375 16.3125 36.71875 17.84375 
Q 35.59375 19.390625 33.59375 20.40625 
Q 31.59375 21.4375 28.734375 22.1875 
Q 25.875 22.953125 22.46875 23.875 
Q 19.28125 24.703125 16.15625 25.734375 
Q 13.03125 26.765625 10.515625 28.4375 
Q 8.015625 30.125 6.453125 32.609375 
Q 4.890625 35.109375 4.890625 38.875 
Q 4.890625 46.09375 10.03125 49.875 
Q 15.1875 53.65625 25.046875 53.65625 
Q 33.796875 53.65625 38.9375 50.578125 
Q 44.09375 47.515625 45.453125 40.71875 
L 37.546875 39.75 
Q 37.109375 41.796875 35.9375 43.1875 
Q 34.765625 44.578125 33.109375 45.4375 
Q 31.453125 46.296875 29.375 46.65625 
Q 27.296875 47.015625 25.046875 47.015625 
Q 19.09375 47.015625 16.25 45.203125 
Q 13.421875 43.40625 13.421875 39.75 
Q 13.421875 37.59375 14.46875 36.203125 
Q 15.53125 34.8125 17.40625 33.859375 
Q 19.28125 32.90625 21.921875 32.203125 
Q 24.5625 31.5 27.734375 30.71875 
Q 29.828125 30.171875 32.03125 29.5625 
Q 34.234375 28.953125 36.296875 28.09375 
Q 38.375 27.25 40.203125 26.09375 
Q 42.046875 24.953125 43.40625 23.34375 
Q 44.78125 21.734375 45.578125 19.578125 
Q 46.390625 17.4375 46.390625 14.59375 
" id="LiberationSans-73"/>
      <path d="M 13.421875 26.65625 
Q 13.421875 22.125 14.078125 18.3125 
Q 14.75 14.5 16.3125 11.734375 
Q 17.875 8.984375 20.4375 7.46875 
Q 23 5.953125 26.765625 5.953125 
Q 31.453125 5.953125 34.59375 8.484375 
Q 37.75 11.03125 38.484375 16.3125 
L 47.359375 15.71875 
Q 46.921875 12.453125 45.453125 9.421875 
Q 44 6.390625 41.484375 4.09375 
Q 38.96875 1.8125 35.34375 0.40625 
Q 31.734375 -0.984375 27 -0.984375 
Q 20.796875 -0.984375 16.453125 1.109375 
Q 12.109375 3.21875 9.390625 6.90625 
Q 6.6875 10.59375 5.46875 15.59375 
Q 4.25 20.609375 4.25 26.46875 
Q 4.25 31.78125 5.125 35.859375 
Q 6 39.9375 7.59375 42.984375 
Q 9.1875 46.046875 11.328125 48.125 
Q 13.484375 50.203125 15.984375 51.4375 
Q 18.5 52.6875 21.28125 53.25 
Q 24.078125 53.8125 26.90625 53.8125 
Q 31.34375 53.8125 34.8125 52.59375 
Q 38.28125 51.375 40.796875 49.25 
Q 43.3125 47.125 44.875 44.234375 
Q 46.4375 41.359375 47.078125 38.03125 
L 38.03125 37.359375 
Q 37.359375 41.75 34.5625 44.328125 
Q 31.78125 46.921875 26.65625 46.921875 
Q 22.90625 46.921875 20.390625 45.671875 
Q 17.875 44.4375 16.3125 41.921875 
Q 14.75 39.40625 14.078125 35.59375 
Q 13.421875 31.78125 13.421875 26.65625 
" id="LiberationSans-63"/>
      <path d="M 51.421875 26.46875 
Q 51.421875 12.59375 45.3125 5.796875 
Q 39.203125 -0.984375 27.59375 -0.984375 
Q 22.078125 -0.984375 17.71875 0.671875 
Q 13.375 2.34375 10.375 5.765625 
Q 7.375 9.1875 5.78125 14.328125 
Q 4.203125 19.484375 4.203125 26.46875 
Q 4.203125 53.8125 27.875 53.8125 
Q 34.03125 53.8125 38.5 52.09375 
Q 42.96875 50.390625 45.828125 46.96875 
Q 48.6875 43.5625 50.046875 38.421875 
Q 51.421875 33.296875 51.421875 26.46875 
M 42.1875 26.46875 
Q 42.1875 32.625 41.234375 36.625 
Q 40.28125 40.625 38.453125 43.015625 
Q 36.625 45.40625 33.984375 46.359375 
Q 31.34375 47.3125 28.03125 47.3125 
Q 24.65625 47.3125 21.9375 46.3125 
Q 19.234375 45.3125 17.328125 42.890625 
Q 15.4375 40.484375 14.421875 36.46875 
Q 13.421875 32.46875 13.421875 26.46875 
Q 13.421875 20.3125 14.5 16.28125 
Q 15.578125 12.25 17.453125 9.859375 
Q 19.34375 7.46875 21.90625 6.484375 
Q 24.46875 5.515625 27.484375 5.515625 
Q 30.859375 5.515625 33.59375 6.46875 
Q 36.328125 7.421875 38.234375 9.8125 
Q 40.140625 12.203125 41.15625 16.25 
Q 42.1875 20.3125 42.1875 26.46875 
" id="LiberationSans-6f"/>
      <path d="M 40.28125 0 
L 40.28125 33.5 
Q 40.28125 37.359375 39.71875 39.9375 
Q 39.15625 42.53125 37.890625 44.109375 
Q 36.625 45.703125 34.546875 46.359375 
Q 32.46875 47.015625 29.390625 47.015625 
Q 26.265625 47.015625 23.75 45.921875 
Q 21.234375 44.828125 19.453125 42.75 
Q 17.671875 40.671875 16.6875 37.625 
Q 15.71875 34.578125 15.71875 30.609375 
L 15.71875 0 
L 6.9375 0 
L 6.9375 41.546875 
Q 6.9375 43.21875 6.90625 45.046875 
Q 6.890625 46.875 6.828125 48.5 
Q 6.78125 50.140625 6.734375 51.3125 
Q 6.6875 52.484375 6.640625 52.828125 
L 14.9375 52.828125 
Q 14.984375 52.59375 15.03125 51.515625 
Q 15.09375 50.4375 15.15625 49.046875 
Q 15.234375 47.65625 15.28125 46.21875 
Q 15.328125 44.78125 15.328125 43.796875 
L 15.484375 43.796875 
Q 16.75 46.09375 18.265625 47.953125 
Q 19.78125 49.8125 21.78125 51.09375 
Q 23.78125 52.390625 26.359375 53.09375 
Q 28.953125 53.8125 32.375 53.8125 
Q 36.765625 53.8125 39.9375 52.734375 
Q 43.109375 51.65625 45.15625 49.40625 
Q 47.21875 47.171875 48.171875 43.625 
Q 49.125 40.09375 49.125 35.203125 
L 49.125 0 
z
" id="LiberationSans-6e"/>
      <path d="M 40.09375 8.5 
Q 37.640625 3.421875 33.609375 1.21875 
Q 29.59375 -0.984375 23.640625 -0.984375 
Q 13.625 -0.984375 8.90625 5.75 
Q 4.203125 12.5 4.203125 26.171875 
Q 4.203125 53.8125 23.640625 53.8125 
Q 29.640625 53.8125 33.640625 51.609375 
Q 37.640625 49.421875 40.09375 44.625 
L 40.1875 44.625 
Q 40.1875 45.125 40.15625 46.171875 
Q 40.140625 47.21875 40.109375 48.359375 
Q 40.09375 49.515625 40.09375 50.53125 
Q 40.09375 51.5625 40.09375 52 
L 40.09375 72.46875 
L 48.875 72.46875 
L 48.875 10.890625 
Q 48.875 8.984375 48.890625 7.21875 
Q 48.921875 5.46875 48.96875 4 
Q 49.03125 2.546875 49.078125 1.484375 
Q 49.125 0.4375 49.171875 0 
L 40.765625 0 
Q 40.671875 0.484375 40.59375 1.390625 
Q 40.53125 2.296875 40.453125 3.46875 
Q 40.375 4.640625 40.328125 5.9375 
Q 40.28125 7.234375 40.28125 8.5 
z
M 13.421875 26.46875 
Q 13.421875 21 14.109375 17.09375 
Q 14.796875 13.1875 16.3125 10.671875 
Q 17.828125 8.15625 20.171875 6.984375 
Q 22.515625 5.8125 25.875 5.8125 
Q 29.34375 5.8125 32 6.9375 
Q 34.671875 8.0625 36.453125 10.578125 
Q 38.234375 13.09375 39.15625 17.140625 
Q 40.09375 21.1875 40.09375 27.046875 
Q 40.09375 32.671875 39.15625 36.546875 
Q 38.234375 40.4375 36.421875 42.828125 
Q 34.625 45.21875 32 46.265625 
Q 29.390625 47.3125 25.984375 47.3125 
Q 22.75 47.3125 20.40625 46.1875 
Q 18.0625 45.0625 16.5 42.578125 
Q 14.9375 40.09375 14.171875 36.109375 
Q 13.421875 32.125 13.421875 26.46875 
" id="LiberationSans-64"/>
      <path d="M 17.625 46.4375 
L 17.625 0 
L 8.84375 0 
L 8.84375 46.4375 
L 1.421875 46.4375 
L 1.421875 52.828125 
L 8.84375 52.828125 
L 8.84375 58.796875 
Q 8.84375 61.671875 9.375 64.140625 
Q 9.90625 66.609375 11.34375 68.4375 
Q 12.796875 70.265625 15.28125 71.3125 
Q 17.78125 72.359375 21.734375 72.359375 
Q 23.296875 72.359375 24.96875 72.21875 
Q 26.65625 72.078125 27.9375 71.78125 
L 27.9375 65.09375 
Q 27.09375 65.234375 26 65.359375 
Q 24.90625 65.484375 24.03125 65.484375 
Q 22.078125 65.484375 20.828125 64.9375 
Q 19.578125 64.40625 18.875 63.40625 
Q 18.171875 62.40625 17.890625 60.9375 
Q 17.625 59.46875 17.625 57.5625 
L 17.625 52.828125 
L 27.9375 52.828125 
L 27.9375 46.4375 
z
" id="LiberationSans-66"/>
      <path d="M 6.9375 0 
L 6.9375 40.53125 
Q 6.9375 42.1875 6.90625 43.921875 
Q 6.890625 45.65625 6.828125 47.265625 
Q 6.78125 48.875 6.734375 50.28125 
Q 6.6875 51.703125 6.640625 52.828125 
L 14.9375 52.828125 
Q 14.984375 51.703125 15.0625 50.265625 
Q 15.140625 48.828125 15.203125 47.3125 
Q 15.28125 45.796875 15.296875 44.40625 
Q 15.328125 43.015625 15.328125 42.046875 
L 15.53125 42.046875 
Q 16.453125 45.0625 17.5 47.28125 
Q 18.5625 49.515625 19.96875 50.953125 
Q 21.390625 52.390625 23.34375 53.09375 
Q 25.296875 53.8125 28.078125 53.8125 
Q 29.15625 53.8125 30.125 53.640625 
Q 31.109375 53.46875 31.640625 53.328125 
L 31.640625 45.265625 
Q 30.765625 45.515625 29.59375 45.625 
Q 28.421875 45.75 26.953125 45.75 
Q 23.921875 45.75 21.796875 44.375 
Q 19.671875 43.015625 18.328125 40.59375 
Q 17 38.1875 16.359375 34.84375 
Q 15.71875 31.5 15.71875 27.546875 
L 15.71875 0 
z
" id="LiberationSans-72"/>
      <path d="M 27.046875 0.390625 
Q 25.046875 -0.140625 22.96875 -0.453125 
Q 20.90625 -0.78125 18.171875 -0.78125 
Q 7.625 -0.78125 7.625 11.1875 
L 7.625 46.4375 
L 1.515625 46.4375 
L 1.515625 52.828125 
L 7.953125 52.828125 
L 10.546875 64.65625 
L 16.40625 64.65625 
L 16.40625 52.828125 
L 26.171875 52.828125 
L 26.171875 46.4375 
L 16.40625 46.4375 
L 16.40625 13.09375 
Q 16.40625 9.28125 17.640625 7.734375 
Q 18.890625 6.203125 21.96875 6.203125 
Q 23.25 6.203125 24.4375 6.390625 
Q 25.640625 6.59375 27.046875 6.890625 
z
" id="LiberationSans-74"/>
      <path d="M 51.421875 26.65625 
Q 51.421875 -0.984375 31.984375 -0.984375 
Q 25.984375 -0.984375 22 1.1875 
Q 18.015625 3.375 15.53125 8.203125 
L 15.4375 8.203125 
Q 15.4375 6.9375 15.359375 5.5625 
Q 15.28125 4.203125 15.203125 3.03125 
Q 15.140625 1.859375 15.0625 1.03125 
Q 14.984375 0.203125 14.9375 0 
L 6.453125 0 
Q 6.5 0.4375 6.546875 1.484375 
Q 6.59375 2.546875 6.640625 4 
Q 6.6875 5.46875 6.703125 7.21875 
Q 6.734375 8.984375 6.734375 10.890625 
L 6.734375 72.46875 
L 15.53125 72.46875 
L 15.53125 51.8125 
Q 15.53125 50.34375 15.5 49 
Q 15.484375 47.65625 15.4375 46.625 
Q 15.375 45.40625 15.328125 44.34375 
L 15.53125 44.34375 
Q 17.96875 49.421875 22 51.609375 
Q 26.03125 53.8125 31.984375 53.8125 
Q 42 53.8125 46.703125 47.0625 
Q 51.421875 40.328125 51.421875 26.65625 
M 42.1875 26.375 
Q 42.1875 31.84375 41.5 35.75 
Q 40.828125 39.65625 39.3125 42.15625 
Q 37.796875 44.671875 35.453125 45.84375 
Q 33.109375 47.015625 29.734375 47.015625 
Q 26.265625 47.015625 23.609375 45.890625 
Q 20.953125 44.78125 19.171875 42.28125 
Q 17.390625 39.796875 16.453125 35.734375 
Q 15.53125 31.6875 15.53125 25.828125 
Q 15.53125 20.171875 16.453125 16.3125 
Q 17.390625 12.453125 19.171875 10.03125 
Q 20.953125 7.625 23.578125 6.5625 
Q 26.21875 5.515625 29.640625 5.515625 
Q 32.859375 5.515625 35.203125 6.640625 
Q 37.546875 7.765625 39.109375 10.25 
Q 40.671875 12.75 41.421875 16.71875 
Q 42.1875 20.703125 42.1875 26.375 
" id="LiberationSans-62"/>
      <path d="M 26.765625 -20.75 
Q 22.21875 -20.75 18.703125 -19.8125 
Q 15.1875 -18.890625 12.6875 -17.15625 
Q 10.203125 -15.4375 8.640625 -13.03125 
Q 7.078125 -10.640625 6.390625 -7.71875 
L 15.234375 -6.453125 
Q 16.109375 -10.109375 19.109375 -12.078125 
Q 22.125 -14.0625 27 -14.0625 
Q 29.984375 -14.0625 32.421875 -13.234375 
Q 34.859375 -12.40625 36.5625 -10.5625 
Q 38.28125 -8.734375 39.203125 -5.796875 
Q 40.140625 -2.875 40.140625 1.3125 
L 40.140625 9.8125 
L 40.046875 9.8125 
Q 39.0625 7.8125 37.625 5.984375 
Q 36.1875 4.15625 34.109375 2.734375 
Q 32.03125 1.3125 29.296875 0.453125 
Q 26.5625 -0.390625 23.046875 -0.390625 
Q 18.015625 -0.390625 14.421875 1.296875 
Q 10.84375 2.984375 8.5625 6.34375 
Q 6.296875 9.71875 5.25 14.71875 
Q 4.203125 19.734375 4.203125 26.3125 
Q 4.203125 32.671875 5.25 37.75 
Q 6.296875 42.828125 8.65625 46.359375 
Q 11.03125 49.90625 14.8125 51.78125 
Q 18.609375 53.65625 24.03125 53.65625 
Q 29.640625 53.65625 33.765625 51.09375 
Q 37.890625 48.53125 40.140625 43.796875 
L 40.234375 43.796875 
Q 40.234375 45.015625 40.296875 46.53125 
Q 40.375 48.046875 40.453125 49.390625 
Q 40.53125 50.734375 40.625 51.703125 
Q 40.71875 52.6875 40.828125 52.828125 
L 49.171875 52.828125 
Q 49.125 52.390625 49.078125 51.34375 
Q 49.03125 50.296875 48.96875 48.828125 
Q 48.921875 47.359375 48.890625 45.578125 
Q 48.875 43.796875 48.875 41.890625 
L 48.875 1.515625 
Q 48.875 -9.578125 43.421875 -15.15625 
Q 37.984375 -20.75 26.765625 -20.75 
M 40.140625 26.421875 
Q 40.140625 31.9375 38.9375 35.859375 
Q 37.75 39.796875 35.796875 42.28125 
Q 33.84375 44.78125 31.328125 45.953125 
Q 28.8125 47.125 26.171875 47.125 
Q 22.796875 47.125 20.375 45.953125 
Q 17.96875 44.78125 16.375 42.265625 
Q 14.796875 39.75 14.03125 35.8125 
Q 13.28125 31.890625 13.28125 26.421875 
Q 13.28125 20.703125 14.03125 16.8125 
Q 14.796875 12.9375 16.359375 10.546875 
Q 17.921875 8.15625 20.3125 7.125 
Q 22.703125 6.109375 26.03125 6.109375 
Q 28.65625 6.109375 31.171875 7.21875 
Q 33.6875 8.34375 35.6875 10.78125 
Q 37.703125 13.234375 38.921875 17.09375 
Q 40.140625 20.953125 40.140625 26.421875 
" id="LiberationSans-67"/>
      <path d="M 20.21875 -0.984375 
Q 12.25 -0.984375 8.25 3.21875 
Q 4.25 7.421875 4.25 14.75 
Q 4.25 19.96875 6.21875 23.3125 
Q 8.203125 26.65625 11.390625 28.5625 
Q 14.59375 30.46875 18.6875 31.203125 
Q 22.796875 31.9375 27.046875 32.03125 
L 38.921875 32.234375 
L 38.921875 35.109375 
Q 38.921875 38.375 38.234375 40.671875 
Q 37.546875 42.96875 36.125 44.375 
Q 34.71875 45.796875 32.59375 46.453125 
Q 30.46875 47.125 27.59375 47.125 
Q 25.046875 47.125 23 46.75 
Q 20.953125 46.390625 19.4375 45.4375 
Q 17.921875 44.484375 16.984375 42.84375 
Q 16.0625 41.21875 15.765625 38.71875 
L 6.59375 39.546875 
Q 7.078125 42.671875 8.4375 45.28125 
Q 9.8125 47.90625 12.328125 49.796875 
Q 14.84375 51.703125 18.625 52.75 
Q 22.40625 53.8125 27.78125 53.8125 
Q 37.75 53.8125 42.765625 49.234375 
Q 47.796875 44.671875 47.796875 36.03125 
L 47.796875 13.28125 
Q 47.796875 9.375 48.828125 7.390625 
Q 49.859375 5.421875 52.734375 5.421875 
Q 53.46875 5.421875 54.203125 5.515625 
Q 54.9375 5.609375 55.609375 5.765625 
L 55.609375 0.296875 
Q 53.953125 -0.09375 52.3125 -0.28125 
Q 50.6875 -0.484375 48.828125 -0.484375 
Q 46.34375 -0.484375 44.5625 0.171875 
Q 42.78125 0.828125 41.65625 2.171875 
Q 40.53125 3.515625 39.9375 5.484375 
Q 39.359375 7.46875 39.203125 10.109375 
L 38.921875 10.109375 
Q 37.5 7.5625 35.8125 5.515625 
Q 34.125 3.46875 31.875 2.03125 
Q 29.640625 0.59375 26.78125 -0.1875 
Q 23.921875 -0.984375 20.21875 -0.984375 
M 22.21875 5.609375 
Q 26.421875 5.609375 29.5625 7.140625 
Q 32.71875 8.6875 34.78125 11.078125 
Q 36.859375 13.484375 37.890625 16.3125 
Q 38.921875 19.140625 38.921875 21.734375 
L 38.921875 26.078125 
L 29.296875 25.875 
Q 26.078125 25.828125 23.171875 25.40625 
Q 20.265625 25 18.0625 23.78125 
Q 15.875 22.5625 14.578125 20.359375 
Q 13.28125 18.171875 13.28125 14.59375 
Q 13.28125 10.296875 15.59375 7.953125 
Q 17.921875 5.609375 22.21875 5.609375 
" id="LiberationSans-61"/>
      <path d="M 51.421875 26.65625 
Q 51.421875 20.65625 50.4375 15.578125 
Q 49.46875 10.5 47.1875 6.828125 
Q 44.921875 3.171875 41.1875 1.09375 
Q 37.453125 -0.984375 31.984375 -0.984375 
Q 26.3125 -0.984375 22.0625 1.171875 
Q 17.828125 3.328125 15.578125 8.203125 
L 15.328125 8.203125 
Q 15.375 8.109375 15.40625 7.328125 
Q 15.4375 6.546875 15.453125 5.375 
Q 15.484375 4.203125 15.5 2.75 
Q 15.53125 1.3125 15.53125 -0.09375 
L 15.53125 -20.75 
L 6.734375 -20.75 
L 6.734375 42.046875 
Q 6.734375 43.953125 6.703125 45.703125 
Q 6.6875 47.46875 6.640625 48.90625 
Q 6.59375 50.34375 6.546875 51.359375 
Q 6.5 52.390625 6.453125 52.828125 
L 14.9375 52.828125 
Q 14.984375 52.6875 15.0625 51.796875 
Q 15.140625 50.921875 15.203125 49.671875 
Q 15.28125 48.4375 15.359375 47.015625 
Q 15.4375 45.609375 15.4375 44.34375 
L 15.625 44.34375 
Q 16.84375 46.875 18.40625 48.65625 
Q 19.96875 50.4375 21.96875 51.578125 
Q 23.96875 52.734375 26.4375 53.25 
Q 28.90625 53.765625 31.984375 53.765625 
Q 37.453125 53.765625 41.1875 51.8125 
Q 44.921875 49.859375 47.1875 46.3125 
Q 49.46875 42.78125 50.4375 37.765625 
Q 51.421875 32.765625 51.421875 26.65625 
M 42.1875 26.46875 
Q 42.1875 31.34375 41.59375 35.15625 
Q 41.015625 38.96875 39.578125 41.59375 
Q 38.140625 44.234375 35.734375 45.59375 
Q 33.34375 46.96875 29.734375 46.96875 
Q 26.8125 46.96875 24.21875 46.140625 
Q 21.625 45.3125 19.703125 42.96875 
Q 17.78125 40.625 16.65625 36.5 
Q 15.53125 32.375 15.53125 25.78125 
Q 15.53125 20.171875 16.453125 16.28125 
Q 17.390625 12.40625 19.171875 10.015625 
Q 20.953125 7.625 23.578125 6.5625 
Q 26.21875 5.515625 29.640625 5.515625 
Q 33.296875 5.515625 35.71875 6.921875 
Q 38.140625 8.34375 39.578125 11.03125 
Q 41.015625 13.71875 41.59375 17.59375 
Q 42.1875 21.484375 42.1875 26.46875 
" id="LiberationSans-70"/>
      <path d="M 6.734375 0 
L 6.734375 72.46875 
L 15.53125 72.46875 
L 15.53125 0 
z
" id="LiberationSans-6c"/>
      <path d="M 41.21875 27 
Q 37.84375 27 34.296875 28.078125 
Q 30.765625 29.15625 27.203125 30.421875 
Q 20.90625 32.625 16.609375 32.625 
Q 14.75 32.625 13.15625 32.328125 
Q 11.578125 32.03125 10.109375 31.46875 
Q 8.640625 30.90625 7.265625 30.125 
Q 5.90625 29.34375 4.5 28.328125 
L 4.5 35.296875 
Q 6.9375 37.15625 10.15625 38.28125 
Q 13.375 39.40625 17.328125 39.40625 
Q 19.28125 39.40625 21.234375 39.078125 
Q 23.1875 38.765625 25.0625 38.28125 
Q 26.953125 37.796875 28.78125 37.15625 
Q 30.609375 36.53125 32.421875 35.890625 
Q 33.453125 35.5 34.671875 35.125 
Q 35.890625 34.765625 37.125 34.421875 
Q 38.375 34.078125 39.625 33.875 
Q 40.875 33.6875 42 33.6875 
Q 45.359375 33.6875 48.359375 34.90625 
Q 51.375 36.140625 53.90625 38.1875 
L 53.90625 30.90625 
Q 52.34375 29.78125 50.90625 29.046875 
Q 49.46875 28.328125 47.96875 27.859375 
Q 46.484375 27.390625 44.828125 27.1875 
Q 43.171875 27 41.21875 27 
" id="LiberationSans-7e"/>
     </defs>
     <g style="fill:#262626;" transform="translate(141.220781 412.773438)scale(0.11 -0.11)">
      <use xlink:href="#LiberationSans-54"/>
      <use x="61.037109" xlink:href="#LiberationSans-69"/>
      <use x="83.253906" xlink:href="#LiberationSans-6d"/>
      <use x="166.554688" xlink:href="#LiberationSans-65"/>
      <use x="222.169922" xlink:href="#LiberationSans-2c"/>
      <use x="249.953125" xlink:href="#LiberationSans-20"/>
      <use x="277.736328" xlink:href="#LiberationSans-73"/>
      <use x="327.736328" xlink:href="#LiberationSans-65"/>
      <use x="383.351562" xlink:href="#LiberationSans-63"/>
      <use x="433.351562" xlink:href="#LiberationSans-6f"/>
      <use x="488.966797" xlink:href="#LiberationSans-6e"/>
      <use x="544.582031" xlink:href="#LiberationSans-64"/>
      <use x="600.197266" xlink:href="#LiberationSans-73"/>
      <use x="650.197266" xlink:href="#LiberationSans-20"/>
      <use x="677.980469" xlink:href="#LiberationSans-66"/>
      <use x="705.763672" xlink:href="#LiberationSans-72"/>
      <use x="739.064453" xlink:href="#LiberationSans-6f"/>
      <use x="794.679688" xlink:href="#LiberationSans-6d"/>
      <use x="877.980469" xlink:href="#LiberationSans-20"/>
      <use x="905.763672" xlink:href="#LiberationSans-74"/>
      <use x="933.546875" xlink:href="#LiberationSans-65"/>
      <use x="989.162109" xlink:href="#LiberationSans-73"/>
      <use x="1039.162109" xlink:href="#LiberationSans-74"/>
      <use x="1066.945312" xlink:href="#LiberationSans-20"/>
      <use x="1094.728516" xlink:href="#LiberationSans-62"/>
      <use x="1150.34375" xlink:href="#LiberationSans-65"/>
      <use x="1205.958984" xlink:href="#LiberationSans-67"/>
      <use x="1261.574219" xlink:href="#LiberationSans-69"/>
      <use x="1283.791016" xlink:href="#LiberationSans-6e"/>
      <use x="1339.40625" xlink:href="#LiberationSans-2c"/>
      <use x="1367.189453" xlink:href="#LiberationSans-20"/>
      <use x="1394.972656" xlink:href="#LiberationSans-73"/>
      <use x="1444.972656" xlink:href="#LiberationSans-61"/>
      <use x="1500.587891" xlink:href="#LiberationSans-6d"/>
      <use x="1583.888672" xlink:href="#LiberationSans-70"/>
      <use x="1639.503906" xlink:href="#LiberationSans-6c"/>
      <use x="1661.720703" xlink:href="#LiberationSans-65"/>
      <use x="1717.335938" xlink:href="#LiberationSans-64"/>
      <use x="1772.951172" xlink:href="#LiberationSans-20"/>
      <use x="1800.734375" xlink:href="#LiberationSans-66"/>
      <use x="1828.517578" xlink:href="#LiberationSans-6f"/>
      <use x="1884.132812" xlink:href="#LiberationSans-72"/>
      <use x="1917.433594" xlink:href="#LiberationSans-20"/>
      <use x="1945.216797" xlink:href="#LiberationSans-7e"/>
      <use x="2003.615234" xlink:href="#LiberationSans-31"/>
      <use x="2059.230469" xlink:href="#LiberationSans-32"/>
      <use x="2114.845703" xlink:href="#LiberationSans-30"/>
      <use x="2170.460938" xlink:href="#LiberationSans-20"/>
      <use x="2198.244141" xlink:href="#LiberationSans-73"/>
      <use x="2248.244141" xlink:href="#LiberationSans-65"/>
      <use x="2303.859375" xlink:href="#LiberationSans-63"/>
      <use x="2353.859375" xlink:href="#LiberationSans-6f"/>
      <use x="2409.474609" xlink:href="#LiberationSans-6e"/>
      <use x="2465.089844" xlink:href="#LiberationSans-64"/>
      <use x="2520.705078" xlink:href="#LiberationSans-73"/>
     </g>
    </g>
   </g>
   <g id="matplotlib.axis_2">
    <g id="ytick_1">
     <g id="line2d_13">
      <path clip-path="url(#p3086917a7d)" d="M 90 374.366617 
L 475.2 374.366617 
" style="fill:none;stroke:#ffffff;stroke-linecap:round;"/>
     </g>
     <g id="line2d_14"/>
     <g id="text_8">
      <!-- 1.0 -->
      <defs>
       <path d="M 9.125 0 
L 9.125 10.6875 
L 18.65625 10.6875 
L 18.65625 0 
z
" id="LiberationSans-2e"/>
      </defs>
      <g style="fill:#262626;" transform="translate(69.1 377.990055)scale(0.1 -0.1)">
       <use xlink:href="#LiberationSans-31"/>
       <use x="55.615234" xlink:href="#LiberationSans-2e"/>
       <use x="83.398438" xlink:href="#LiberationSans-30"/>
      </g>
     </g>
    </g>
    <g id="ytick_2">
     <g id="line2d_15">
      <path clip-path="url(#p3086917a7d)" d="M 90 311.783839 
L 475.2 311.783839 
" style="fill:none;stroke:#ffffff;stroke-linecap:round;"/>
     </g>
     <g id="line2d_16"/>
     <g id="text_9">
      <!-- 1.5 -->
      <g style="fill:#262626;" transform="translate(69.1 315.407277)scale(0.1 -0.1)">
       <use xlink:href="#LiberationSans-31"/>
       <use x="55.615234" xlink:href="#LiberationSans-2e"/>
       <use x="83.398438" xlink:href="#LiberationSans-35"/>
      </g>
     </g>
    </g>
    <g id="ytick_3">
     <g id="line2d_17">
      <path clip-path="url(#p3086917a7d)" d="M 90 249.201061 
L 475.2 249.201061 
" style="fill:none;stroke:#ffffff;stroke-linecap:round;"/>
     </g>
     <g id="line2d_18"/>
     <g id="text_10">
      <!-- 2.0 -->
      <g style="fill:#262626;" transform="translate(69.1 252.824499)scale(0.1 -0.1)">
       <use xlink:href="#LiberationSans-32"/>
       <use x="55.615234" xlink:href="#LiberationSans-2e"/>
       <use x="83.398438" xlink:href="#LiberationSans-30"/>
      </g>
     </g>
    </g>
    <g id="ytick_4">
     <g id="line2d_19">
      <path clip-path="url(#p3086917a7d)" d="M 90 186.618283 
L 475.2 186.618283 
" style="fill:none;stroke:#ffffff;stroke-linecap:round;"/>
     </g>
     <g id="line2d_20"/>
     <g id="text_11">
      <!-- 2.5 -->
      <g style="fill:#262626;" transform="translate(69.1 190.241721)scale(0.1 -0.1)">
       <use xlink:href="#LiberationSans-32"/>
       <use x="55.615234" xlink:href="#LiberationSans-2e"/>
       <use x="83.398438" xlink:href="#LiberationSans-35"/>
      </g>
     </g>
    </g>
    <g id="ytick_5">
     <g id="line2d_21">
      <path clip-path="url(#p3086917a7d)" d="M 90 124.035505 
L 475.2 124.035505 
" style="fill:none;stroke:#ffffff;stroke-linecap:round;"/>
     </g>
     <g id="line2d_22"/>
     <g id="text_12">
      <!-- 3.0 -->
      <g style="fill:#262626;" transform="translate(69.1 127.658942)scale(0.1 -0.1)">
       <use xlink:href="#LiberationSans-33"/>
       <use x="55.615234" xlink:href="#LiberationSans-2e"/>
       <use x="83.398438" xlink:href="#LiberationSans-30"/>
      </g>
     </g>
    </g>
    <g id="ytick_6">
     <g id="line2d_23">
      <path clip-path="url(#p3086917a7d)" d="M 90 61.452727 
L 475.2 61.452727 
" style="fill:none;stroke:#ffffff;stroke-linecap:round;"/>
     </g>
     <g id="line2d_24"/>
     <g id="text_13">
      <!-- 3.5 -->
      <g style="fill:#262626;" transform="translate(69.1 65.076164)scale(0.1 -0.1)">
       <use xlink:href="#LiberationSans-33"/>
       <use x="55.615234" xlink:href="#LiberationSans-2e"/>
       <use x="83.398438" xlink:href="#LiberationSans-35"/>
      </g>
     </g>
    </g>
    <g id="text_14">
     <!-- Latency, ms -->
     <defs>
      <path d="M 8.203125 0 
L 8.203125 68.796875 
L 17.53125 68.796875 
L 17.53125 7.625 
L 52.296875 7.625 
L 52.296875 0 
z
" id="LiberationSans-4c"/>
      <path d="M 29.5 0 
Q 27.640625 -4.78125 25.703125 -8.609375 
Q 23.78125 -12.453125 21.390625 -15.15625 
Q 19 -17.875 16.0625 -19.3125 
Q 13.140625 -20.75 9.328125 -20.75 
Q 7.671875 -20.75 6.25 -20.65625 
Q 4.828125 -20.5625 3.265625 -20.21875 
L 3.265625 -13.625 
Q 4.203125 -13.765625 5.375 -13.84375 
Q 6.546875 -13.921875 7.375 -13.921875 
Q 11.234375 -13.921875 14.546875 -11.03125 
Q 17.875 -8.15625 20.359375 -1.859375 
L 21.1875 0.25 
L 0.25 52.828125 
L 9.625 52.828125 
L 20.75 23.640625 
Q 21.234375 22.3125 21.984375 20.109375 
Q 22.75 17.921875 23.5 15.71875 
Q 24.265625 13.53125 24.84375 11.765625 
Q 25.4375 10.015625 25.53125 9.578125 
Q 25.6875 10.109375 26.25 11.6875 
Q 26.8125 13.28125 27.515625 15.234375 
Q 28.21875 17.1875 28.953125 19.1875 
Q 29.6875 21.1875 30.171875 22.65625 
L 40.53125 52.828125 
L 49.8125 52.828125 
z
" id="LiberationSans-79"/>
     </defs>
     <g style="fill:#262626;" transform="translate(62.8175 247.803281)rotate(-90)scale(0.11 -0.11)">
      <use xlink:href="#LiberationSans-4c"/>
      <use x="55.615234" xlink:href="#LiberationSans-61"/>
      <use x="111.230469" xlink:href="#LiberationSans-74"/>
      <use x="139.013672" xlink:href="#LiberationSans-65"/>
      <use x="194.628906" xlink:href="#LiberationSans-6e"/>
      <use x="250.244141" xlink:href="#LiberationSans-63"/>
      <use x="300.244141" xlink:href="#LiberationSans-79"/>
      <use x="350.134766" xlink:href="#LiberationSans-2c"/>
      <use x="377.917969" xlink:href="#LiberationSans-20"/>
      <use x="405.701172" xlink:href="#LiberationSans-6d"/>
      <use x="489.001953" xlink:href="#LiberationSans-73"/>
     </g>
    </g>
   </g>
   <g id="PolyCollection_1">
    <path clip-path="url(#p3086917a7d)" d="M 132.340681 369.36 
L 124.827933 369.36 
L 123.429918 366.467285 
L 121.886817 363.57457 
L 120.266394 360.681854 
L 118.629106 357.789139 
L 117.025645 354.896424 
L 115.499613 352.003709 
L 114.090024 349.110994 
L 112.831028 346.218278 
L 111.749663 343.325563 
L 110.863666 340.432848 
L 110.180617 337.540133 
L 109.698546 334.647417 
L 109.407584 331.754702 
L 109.292154 328.861987 
L 109.333241 325.969272 
L 109.510358 323.076557 
L 109.803066 320.183841 
L 110.192101 317.291126 
L 110.659991 314.398411 
L 111.190967 311.505696 
L 111.7702 308.612981 
L 112.382959 305.720265 
L 113.014456 302.82755 
L 113.650661 299.934835 
L 114.279661 297.04212 
L 114.892733 294.149404 
L 115.484558 291.256689 
L 116.052527 288.363974 
L 116.595591 285.471259 
L 117.113269 282.578544 
L 117.605231 279.685828 
L 118.071518 276.793113 
L 118.513053 273.900398 
L 118.932092 271.007683 
L 119.332436 268.114968 
L 119.71943 265.222252 
L 120.099633 262.329537 
L 120.479697 259.436822 
L 120.863883 256.544107 
L 121.250467 253.651391 
L 121.629013 250.758676 
L 121.981572 247.865961 
L 122.289369 244.973246 
L 122.542255 242.080531 
L 122.744768 239.187815 
L 122.914056 236.2951 
L 123.070907 233.402385 
L 123.230196 230.50967 
L 123.396627 227.616955 
L 123.566819 224.724239 
L 123.734481 221.831524 
L 123.894729 218.938809 
L 124.04573 216.046094 
L 124.188133 213.153378 
L 124.323671 210.260663 
L 124.454031 207.367948 
L 124.58035 204.475233 
L 124.703209 201.582518 
L 124.822837 198.689802 
L 124.939294 195.797087 
L 125.052513 192.904372 
L 125.162186 190.011657 
L 125.267623 187.118942 
L 125.367803 184.226226 
L 125.461769 181.333511 
L 125.549238 178.440796 
L 125.631001 175.548081 
L 125.708715 172.655365 
L 125.784125 169.76265 
L 125.858198 166.869935 
L 125.930748 163.97722 
L 126.000735 161.084505 
L 126.066955 158.191789 
L 126.12863 155.299074 
L 126.185641 152.406359 
L 126.238415 149.513644 
L 126.287688 146.620929 
L 126.334319 143.728213 
L 126.379204 140.835498 
L 126.423256 137.942783 
L 126.467378 135.050068 
L 126.512389 132.157352 
L 126.558896 129.264637 
L 126.607126 126.371922 
L 126.656823 123.479207 
L 126.707319 120.586492 
L 126.757786 117.693776 
L 126.807547 114.801061 
L 126.856283 111.908346 
L 126.904107 109.015631 
L 126.951611 106.122916 
L 127.000106 103.2302 
L 127.052167 100.337485 
L 127.112412 97.44477 
L 127.187928 94.552055 
L 127.287416 91.659339 
L 127.418319 88.766624 
L 127.582439 85.873909 
L 127.772279 82.981194 
L 129.396336 82.981194 
L 129.396336 82.981194 
L 129.586176 85.873909 
L 129.750295 88.766624 
L 129.881199 91.659339 
L 129.980687 94.552055 
L 130.056202 97.44477 
L 130.116447 100.337485 
L 130.168508 103.2302 
L 130.217003 106.122916 
L 130.264508 109.015631 
L 130.312331 111.908346 
L 130.361067 114.801061 
L 130.410828 117.693776 
L 130.461296 120.586492 
L 130.511791 123.479207 
L 130.561488 126.371922 
L 130.609718 129.264637 
L 130.656226 132.157352 
L 130.701237 135.050068 
L 130.745358 137.942783 
L 130.78941 140.835498 
L 130.834296 143.728213 
L 130.880926 146.620929 
L 130.9302 149.513644 
L 130.982974 152.406359 
L 131.039984 155.299074 
L 131.101659 158.191789 
L 131.167879 161.084505 
L 131.237867 163.97722 
L 131.310416 166.869935 
L 131.384489 169.76265 
L 131.459899 172.655365 
L 131.537613 175.548081 
L 131.619376 178.440796 
L 131.706845 181.333511 
L 131.800811 184.226226 
L 131.900991 187.118942 
L 132.006428 190.011657 
L 132.116101 192.904372 
L 132.229321 195.797087 
L 132.345778 198.689802 
L 132.465406 201.582518 
L 132.588265 204.475233 
L 132.714584 207.367948 
L 132.844943 210.260663 
L 132.980482 213.153378 
L 133.122885 216.046094 
L 133.273886 218.938809 
L 133.434133 221.831524 
L 133.601795 224.724239 
L 133.771988 227.616955 
L 133.938418 230.50967 
L 134.097707 233.402385 
L 134.254558 236.2951 
L 134.423847 239.187815 
L 134.62636 242.080531 
L 134.879246 244.973246 
L 135.187042 247.865961 
L 135.539601 250.758676 
L 135.918147 253.651391 
L 136.304731 256.544107 
L 136.688917 259.436822 
L 137.068982 262.329537 
L 137.449185 265.222252 
L 137.836178 268.114968 
L 138.236523 271.007683 
L 138.655561 273.900398 
L 139.097096 276.793113 
L 139.563383 279.685828 
L 140.055346 282.578544 
L 140.573023 285.471259 
L 141.116087 288.363974 
L 141.684056 291.256689 
L 142.275881 294.149404 
L 142.888954 297.04212 
L 143.517953 299.934835 
L 144.154158 302.82755 
L 144.785655 305.720265 
L 145.398415 308.612981 
L 145.977648 311.505696 
L 146.508623 314.398411 
L 146.976514 317.291126 
L 147.365549 320.183841 
L 147.658257 323.076557 
L 147.835373 325.969272 
L 147.876461 328.861987 
L 147.761031 331.754702 
L 147.470068 334.647417 
L 146.987997 337.540133 
L 146.304949 340.432848 
L 145.418952 343.325563 
L 144.337586 346.218278 
L 143.07859 349.110994 
L 141.669001 352.003709 
L 140.142969 354.896424 
L 138.539508 357.789139 
L 136.902221 360.681854 
L 135.281797 363.57457 
L 133.738697 366.467285 
L 132.340681 369.36 
z
" style="fill:#4c72b0;fill-opacity:0.3;"/>
   </g>
   <g id="PolyCollection_2">
    <path clip-path="url(#p3086917a7d)" d="M 209.691313 369.36 
L 201.81453 369.36 
L 200.325816 366.305455 
L 198.684858 363.250909 
L 196.972 360.196364 
L 195.259653 357.141818 
L 193.606918 354.087273 
L 192.06106 351.032727 
L 190.66063 347.978182 
L 189.436895 344.923636 
L 188.4133 341.869091 
L 187.604181 338.814545 
L 187.013928 335.76 
L 186.637261 332.705455 
L 186.460768 329.650909 
L 186.465347 326.596364 
L 186.628758 323.541818 
L 186.927502 320.487273 
L 187.337845 317.432727 
L 187.836488 314.378182 
L 188.401401 311.323636 
L 189.012783 308.269091 
L 189.653627 305.214545 
L 190.309548 302.16 
L 190.968181 299.105455 
L 191.61873 296.050909 
L 192.252076 292.996364 
L 192.861317 289.941818 
L 193.442294 286.887273 
L 193.993639 283.832727 
L 194.516205 280.778182 
L 195.012112 277.723636 
L 195.483859 274.669091 
L 195.933908 271.614545 
L 196.36487 268.56 
L 196.780197 265.505455 
L 197.184814 262.450909 
L 197.584667 259.396364 
L 197.984202 256.341818 
L 198.38222 253.287273 
L 198.768813 250.232727 
L 199.126953 247.178182 
L 199.43982 244.123636 
L 199.700004 241.069091 
L 199.914123 238.014545 
L 200.099282 234.96 
L 200.274075 231.905455 
L 200.450537 228.850909 
L 200.631531 225.796364 
L 200.813339 222.741818 
L 200.990177 219.687273 
L 201.157666 216.632727 
L 201.314193 213.578182 
L 201.460626 210.523636 
L 201.599204 207.469091 
L 201.732292 204.414545 
L 201.861429 201.36 
L 201.986929 198.305455 
L 202.108085 195.250909 
L 202.223763 192.196364 
L 202.333049 189.141818 
L 202.435633 186.087273 
L 202.531798 183.032727 
L 202.622143 179.978182 
L 202.707307 176.923636 
L 202.787872 173.869091 
L 202.864445 170.814545 
L 202.937711 167.76 
L 203.00835 164.705455 
L 203.076869 161.650909 
L 203.143486 158.596364 
L 203.208125 155.541818 
L 203.270498 152.487273 
L 203.330222 149.432727 
L 203.386955 146.378182 
L 203.440559 143.323636 
L 203.49127 140.269091 
L 203.539778 137.214545 
L 203.587121 134.16 
L 203.634364 131.105455 
L 203.682218 128.050909 
L 203.730797 124.996364 
L 203.779667 121.941818 
L 203.828179 118.887273 
L 203.875876 115.832727 
L 203.922743 112.778182 
L 203.969161 109.723636 
L 204.015613 106.669091 
L 204.062389 103.614545 
L 204.10945 100.56 
L 204.156542 97.505455 
L 204.203507 94.450909 
L 204.250671 91.396364 
L 204.299227 88.341818 
L 204.351621 85.287273 
L 204.411989 82.232727 
L 204.486401 79.178182 
L 204.582186 76.123636 
L 204.705526 73.069091 
L 204.857613 70.014545 
L 205.03136 66.96 
L 206.474483 66.96 
L 206.474483 66.96 
L 206.64823 70.014545 
L 206.800317 73.069091 
L 206.923657 76.123636 
L 207.019442 79.178182 
L 207.093854 82.232727 
L 207.154222 85.287273 
L 207.206616 88.341818 
L 207.255172 91.396364 
L 207.302336 94.450909 
L 207.349301 97.505455 
L 207.396393 100.56 
L 207.443454 103.614545 
L 207.49023 106.669091 
L 207.536683 109.723636 
L 207.5831 112.778182 
L 207.629967 115.832727 
L 207.677664 118.887273 
L 207.726176 121.941818 
L 207.775046 124.996364 
L 207.823625 128.050909 
L 207.871479 131.105455 
L 207.918722 134.16 
L 207.966065 137.214545 
L 208.014573 140.269091 
L 208.065284 143.323636 
L 208.118888 146.378182 
L 208.175621 149.432727 
L 208.235345 152.487273 
L 208.297718 155.541818 
L 208.362357 158.596364 
L 208.428974 161.650909 
L 208.497493 164.705455 
L 208.568132 167.76 
L 208.641398 170.814545 
L 208.717971 173.869091 
L 208.798536 176.923636 
L 208.8837 179.978182 
L 208.974045 183.032727 
L 209.07021 186.087273 
L 209.172794 189.141818 
L 209.28208 192.196364 
L 209.397758 195.250909 
L 209.518914 198.305455 
L 209.644414 201.36 
L 209.773551 204.414545 
L 209.906639 207.469091 
L 210.045217 210.523636 
L 210.19165 213.578182 
L 210.348177 216.632727 
L 210.515666 219.687273 
L 210.692505 222.741818 
L 210.874312 225.796364 
L 211.055306 228.850909 
L 211.231768 231.905455 
L 211.406562 234.96 
L 211.59172 238.014545 
L 211.805839 241.069091 
L 212.066023 244.123636 
L 212.37889 247.178182 
L 212.73703 250.232727 
L 213.123623 253.287273 
L 213.521641 256.341818 
L 213.921176 259.396364 
L 214.321029 262.450909 
L 214.725646 265.505455 
L 215.140973 268.56 
L 215.571935 271.614545 
L 216.021984 274.669091 
L 216.493732 277.723636 
L 216.989638 280.778182 
L 217.512204 283.832727 
L 218.063549 286.887273 
L 218.644526 289.941818 
L 219.253767 292.996364 
L 219.887113 296.050909 
L 220.537662 299.105455 
L 221.196295 302.16 
L 221.852216 305.214545 
L 222.49306 308.269091 
L 223.104442 311.323636 
L 223.669355 314.378182 
L 224.167998 317.432727 
L 224.578341 320.487273 
L 224.877085 323.541818 
L 225.040496 326.596364 
L 225.045075 329.650909 
L 224.868582 332.705455 
L 224.491915 335.76 
L 223.901662 338.814545 
L 223.092543 341.869091 
L 222.068949 344.923636 
L 220.845213 347.978182 
L 219.444783 351.032727 
L 217.898925 354.087273 
L 216.24619 357.141818 
L 214.533843 360.196364 
L 212.820985 363.250909 
L 211.180027 366.305455 
L 209.691313 369.36 
z
" style="fill:#4c72b0;fill-opacity:0.3;"/>
   </g>
   <g id="PolyCollection_3">
    <path clip-path="url(#p3086917a7d)" d="M 286.775653 369.36 
L 279.067419 369.36 
L 277.603827 366.305455 
L 275.985296 363.250909 
L 274.288697 360.196364 
L 272.584243 357.141818 
L 270.93089 354.087273 
L 269.377792 351.032727 
L 267.966443 347.978182 
L 266.73056 344.923636 
L 265.694276 341.869091 
L 264.870767 338.814545 
L 264.262511 335.76 
L 263.862859 332.705455 
L 263.658068 329.650909 
L 263.629382 326.596364 
L 263.75523 323.541818 
L 264.013365 320.487273 
L 264.382399 317.432727 
L 264.842264 314.378182 
L 265.373875 311.323636 
L 265.958704 308.269091 
L 266.578906 305.214545 
L 267.218067 302.16 
L 267.862206 299.105455 
L 268.50047 296.050909 
L 269.125133 292.996364 
L 269.730964 289.941818 
L 270.314379 286.887273 
L 270.87282 283.832727 
L 271.404534 280.778182 
L 271.908635 277.723636 
L 272.385294 274.669091 
L 272.836039 271.614545 
L 273.264219 268.56 
L 273.675455 265.505455 
L 274.077562 262.450909 
L 274.479032 259.396364 
L 274.885493 256.341818 
L 275.294962 253.287273 
L 275.694912 250.232727 
L 276.064788 247.178182 
L 276.384737 244.123636 
L 276.646109 241.069091 
L 276.856503 238.014545 
L 277.035594 234.96 
L 277.204906 231.905455 
L 277.378737 228.850909 
L 277.561132 225.796364 
L 277.748511 222.741818 
L 277.934357 219.687273 
L 278.112936 216.632727 
L 278.281032 213.578182 
L 278.438044 210.523636 
L 278.585131 207.469091 
L 278.72406 204.414545 
L 278.856371 201.36 
L 278.983143 198.305455 
L 279.105168 195.250909 
L 279.22315 192.196364 
L 279.337657 189.141818 
L 279.448893 186.087273 
L 279.556491 183.032727 
L 279.659553 179.978182 
L 279.756959 176.923636 
L 279.847871 173.869091 
L 279.932155 170.814545 
L 280.010528 167.76 
L 280.084327 164.705455 
L 280.155056 161.650909 
L 280.223907 158.596364 
L 280.291486 155.541818 
L 280.357826 152.487273 
L 280.422597 149.432727 
L 280.485348 146.378182 
L 280.545681 143.323636 
L 280.60339 140.269091 
L 280.658604 137.214545 
L 280.711865 134.16 
L 280.764031 131.105455 
L 280.815968 128.050909 
L 280.8682 124.996364 
L 280.920782 121.941818 
L 280.973471 118.887273 
L 281.026065 115.832727 
L 281.078647 112.778182 
L 281.131525 109.723636 
L 281.184909 106.669091 
L 281.238561 103.614545 
L 281.291713 100.56 
L 281.343383 97.505455 
L 281.392939 94.450909 
L 281.440635 91.396364 
L 281.487938 88.341818 
L 281.537738 85.287273 
L 281.594656 82.232727 
L 281.665239 79.178182 
L 281.757281 76.123636 
L 281.877401 73.069091 
L 282.02712 70.014545 
L 282.199491 66.96 
L 283.643581 66.96 
L 283.643581 66.96 
L 283.815951 70.014545 
L 283.965671 73.069091 
L 284.085791 76.123636 
L 284.177833 79.178182 
L 284.248416 82.232727 
L 284.305334 85.287273 
L 284.355134 88.341818 
L 284.402436 91.396364 
L 284.450133 94.450909 
L 284.499688 97.505455 
L 284.551358 100.56 
L 284.604511 103.614545 
L 284.658163 106.669091 
L 284.711547 109.723636 
L 284.764424 112.778182 
L 284.817006 115.832727 
L 284.869601 118.887273 
L 284.922289 121.941818 
L 284.974872 124.996364 
L 285.027104 128.050909 
L 285.079041 131.105455 
L 285.131207 134.16 
L 285.184468 137.214545 
L 285.239681 140.269091 
L 285.297391 143.323636 
L 285.357724 146.378182 
L 285.420475 149.432727 
L 285.485246 152.487273 
L 285.551586 155.541818 
L 285.619165 158.596364 
L 285.688016 161.650909 
L 285.758745 164.705455 
L 285.832544 167.76 
L 285.910916 170.814545 
L 285.995201 173.869091 
L 286.086113 176.923636 
L 286.183519 179.978182 
L 286.28658 183.032727 
L 286.394179 186.087273 
L 286.505415 189.141818 
L 286.619922 192.196364 
L 286.737904 195.250909 
L 286.859929 198.305455 
L 286.986701 201.36 
L 287.119012 204.414545 
L 287.25794 207.469091 
L 287.405028 210.523636 
L 287.56204 213.578182 
L 287.730135 216.632727 
L 287.908714 219.687273 
L 288.094561 222.741818 
L 288.28194 225.796364 
L 288.464335 228.850909 
L 288.638166 231.905455 
L 288.807478 234.96 
L 288.986569 238.014545 
L 289.196963 241.069091 
L 289.458334 244.123636 
L 289.778284 247.178182 
L 290.148159 250.232727 
L 290.54811 253.287273 
L 290.957579 256.341818 
L 291.364039 259.396364 
L 291.76551 262.450909 
L 292.167617 265.505455 
L 292.578853 268.56 
L 293.007033 271.614545 
L 293.457778 274.669091 
L 293.934437 277.723636 
L 294.438538 280.778182 
L 294.970252 283.832727 
L 295.528692 286.887273 
L 296.112108 289.941818 
L 296.717939 292.996364 
L 297.342602 296.050909 
L 297.980866 299.105455 
L 298.625005 302.16 
L 299.264166 305.214545 
L 299.884367 308.269091 
L 300.469197 311.323636 
L 301.000808 314.378182 
L 301.460673 317.432727 
L 301.829707 320.487273 
L 302.087842 323.541818 
L 302.213689 326.596364 
L 302.185004 329.650909 
L 301.980213 332.705455 
L 301.580561 335.76 
L 300.972305 338.814545 
L 300.148796 341.869091 
L 299.112512 344.923636 
L 297.876628 347.978182 
L 296.46528 351.032727 
L 294.912182 354.087273 
L 293.258829 357.141818 
L 291.554374 360.196364 
L 289.857775 363.250909 
L 288.239245 366.305455 
L 286.775653 369.36 
z
" style="fill:#4c72b0;fill-opacity:0.3;"/>
   </g>
   <g id="PolyCollection_4">
    <path clip-path="url(#p3086917a7d)" d="M 363.874795 369.36 
L 356.305505 369.36 
L 354.860863 366.305455 
L 353.262241 363.250909 
L 351.585766 360.196364 
L 349.900081 357.141818 
L 348.26159 354.087273 
L 346.71646 351.032727 
L 345.30386 347.978182 
L 344.056874 344.923636 
L 343.001001 341.869091 
L 342.152143 338.814545 
L 341.515704 335.76 
L 341.08723 332.705455 
L 340.854152 329.650909 
L 340.797997 326.596364 
L 340.896722 323.541818 
L 341.126995 320.487273 
L 341.466215 317.432727 
L 341.893906 314.378182 
L 342.392168 311.323636 
L 342.94522 308.269091 
L 343.538456 305.214545 
L 344.157685 302.16 
L 344.789055 299.105455 
L 345.419791 296.050909 
L 346.039314 292.996364 
L 346.64002 289.941818 
L 347.217223 286.887273 
L 347.768459 283.832727 
L 348.292775 280.778182 
L 348.790486 277.723636 
L 349.263296 274.669091 
L 349.71436 271.614545 
L 350.148088 268.56 
L 350.569887 265.505455 
L 350.985884 262.450909 
L 351.40207 259.396364 
L 351.821856 256.341818 
L 352.242194 253.287273 
L 352.650805 250.232727 
L 353.028335 247.178182 
L 353.356609 244.123636 
L 353.628699 241.069091 
L 353.853428 238.014545 
L 354.050527 234.96 
L 354.240039 231.905455 
L 354.433652 228.850909 
L 354.632788 225.796364 
L 354.832438 222.741818 
L 355.026388 219.687273 
L 355.210471 216.632727 
L 355.383174 213.578182 
L 355.544734 210.523636 
L 355.696081 207.469091 
L 355.838342 204.414545 
L 355.972829 201.36 
L 356.101056 198.305455 
L 356.224476 195.250909 
L 356.344036 192.196364 
L 356.459936 189.141818 
L 356.571822 186.087273 
L 356.679281 183.032727 
L 356.782254 179.978182 
L 356.881007 176.923636 
L 356.975747 173.869091 
L 357.066265 170.814545 
L 357.152007 167.76 
L 357.232548 164.705455 
L 357.308055 161.650909 
L 357.379317 158.596364 
L 357.447309 155.541818 
L 357.512661 152.487273 
L 357.575487 149.432727 
L 357.635638 146.378182 
L 357.693093 143.323636 
L 357.748117 140.269091 
L 357.801146 137.214545 
L 357.852676 134.16 
L 357.903336 131.105455 
L 357.954048 128.050909 
L 358.005953 124.996364 
L 358.059978 121.941818 
L 358.116297 118.887273 
L 358.174055 115.832727 
L 358.231649 112.778182 
L 358.287429 109.723636 
L 358.340429 106.669091 
L 358.390703 103.614545 
L 358.439081 100.56 
L 358.486601 97.505455 
L 358.53405 94.450909 
L 358.581957 91.396364 
L 358.631115 88.341818 
L 358.683435 85.287273 
L 358.742837 82.232727 
L 358.815658 79.178182 
L 358.90981 76.123636 
L 359.032097 73.069091 
L 359.184132 70.014545 
L 359.358929 66.96 
L 360.821371 66.96 
L 360.821371 66.96 
L 360.996168 70.014545 
L 361.148203 73.069091 
L 361.270491 76.123636 
L 361.364643 79.178182 
L 361.437463 82.232727 
L 361.496866 85.287273 
L 361.549186 88.341818 
L 361.598344 91.396364 
L 361.646251 94.450909 
L 361.693699 97.505455 
L 361.741219 100.56 
L 361.789597 103.614545 
L 361.839871 106.669091 
L 361.892872 109.723636 
L 361.948651 112.778182 
L 362.006245 115.832727 
L 362.064004 118.887273 
L 362.120322 121.941818 
L 362.174348 124.996364 
L 362.226252 128.050909 
L 362.276965 131.105455 
L 362.327625 134.16 
L 362.379154 137.214545 
L 362.432184 140.269091 
L 362.487208 143.323636 
L 362.544663 146.378182 
L 362.604814 149.432727 
L 362.667639 152.487273 
L 362.732992 155.541818 
L 362.800983 158.596364 
L 362.872246 161.650909 
L 362.947753 164.705455 
L 363.028294 167.76 
L 363.114036 170.814545 
L 363.204554 173.869091 
L 363.299294 176.923636 
L 363.398047 179.978182 
L 363.501019 183.032727 
L 363.608479 186.087273 
L 363.720364 189.141818 
L 363.836264 192.196364 
L 363.955824 195.250909 
L 364.079244 198.305455 
L 364.207471 201.36 
L 364.341958 204.414545 
L 364.484219 207.469091 
L 364.635567 210.523636 
L 364.797127 213.578182 
L 364.96983 216.632727 
L 365.153913 219.687273 
L 365.347863 222.741818 
L 365.547513 225.796364 
L 365.746649 228.850909 
L 365.940261 231.905455 
L 366.129774 234.96 
L 366.326872 238.014545 
L 366.551602 241.069091 
L 366.823692 244.123636 
L 367.151966 247.178182 
L 367.529495 250.232727 
L 367.938107 253.287273 
L 368.358444 256.341818 
L 368.77823 259.396364 
L 369.194416 262.450909 
L 369.610414 265.505455 
L 370.032212 268.56 
L 370.465941 271.614545 
L 370.917004 274.669091 
L 371.389815 277.723636 
L 371.887526 280.778182 
L 372.411842 283.832727 
L 372.963078 286.887273 
L 373.540281 289.941818 
L 374.140986 292.996364 
L 374.760509 296.050909 
L 375.391245 299.105455 
L 376.022616 302.16 
L 376.641844 305.214545 
L 377.235081 308.269091 
L 377.788132 311.323636 
L 378.286395 314.378182 
L 378.714085 317.432727 
L 379.053305 320.487273 
L 379.283579 323.541818 
L 379.382304 326.596364 
L 379.326149 329.650909 
L 379.09307 332.705455 
L 378.664597 335.76 
L 378.028157 338.814545 
L 377.1793 341.869091 
L 376.123426 344.923636 
L 374.87644 347.978182 
L 373.463841 351.032727 
L 371.91871 354.087273 
L 370.28022 357.141818 
L 368.594535 360.196364 
L 366.918059 363.250909 
L 365.319438 366.305455 
L 363.874795 369.36 
z
" style="fill:#4c72b0;fill-opacity:0.3;"/>
   </g>
   <g id="PolyCollection_5">
    <path clip-path="url(#p3086917a7d)" d="M 441.205601 367.357347 
L 432.668856 367.357347 
L 431.119808 364.32303 
L 429.447045 361.288714 
L 427.737776 358.254397 
L 426.063346 355.22008 
L 424.4749 352.185764 
L 423.007903 349.151447 
L 421.688753 346.117131 
L 420.538767 343.082814 
L 419.574577 340.048497 
L 418.806562 337.014181 
L 418.237455 333.979864 
L 417.862371 330.945547 
L 417.67015 327.911231 
L 417.645075 324.876914 
L 417.768126 321.842597 
L 418.017773 318.808281 
L 418.371 315.773964 
L 418.80504 312.739648 
L 419.299403 309.705331 
L 419.837121 306.671014 
L 420.404568 303.636698 
L 420.990246 300.602381 
L 421.583649 297.568064 
L 422.17503 294.533748 
L 422.756071 291.499431 
L 423.320845 288.465114 
L 423.866278 285.430798 
L 424.391734 282.396481 
L 424.89789 279.362165 
L 425.385613 276.327848 
L 425.855591 273.293531 
L 426.308933 270.259215 
L 426.748273 267.224898 
L 427.178459 264.190581 
L 427.605957 261.156265 
L 428.036347 258.121948 
L 428.470215 255.087631 
L 428.899269 252.053315 
L 429.306041 249.018998 
L 429.669642 245.984682 
L 429.97592 242.950365 
L 430.225735 239.916048 
L 430.435009 236.881732 
L 430.626159 233.847415 
L 430.817184 230.813098 
L 431.015719 227.778782 
L 431.220305 224.744465 
L 431.425594 221.710148 
L 431.626824 218.675832 
L 431.821405 215.641515 
L 432.008307 212.607199 
L 432.187002 209.572882 
L 432.356971 206.538565 
L 432.51778 203.504249 
L 432.669279 200.469932 
L 432.811688 197.435615 
L 432.945619 194.401299 
L 433.072123 191.366982 
L 433.192673 188.332665 
L 433.308911 185.298349 
L 433.422113 182.264032 
L 433.532631 179.229716 
L 433.639674 176.195399 
L 433.741719 173.161082 
L 433.837404 170.126766 
L 433.926368 167.092449 
L 434.009455 164.058132 
L 434.088145 161.023816 
L 434.163664 157.989499 
L 434.23643 154.955182 
L 434.306163 151.920866 
L 434.372451 148.886549 
L 434.435303 145.852233 
L 434.495319 142.817916 
L 434.553494 139.783599 
L 434.610847 136.749283 
L 434.668106 133.714966 
L 434.725533 130.680649 
L 434.782865 127.646333 
L 434.839419 124.612016 
L 434.894383 121.577699 
L 434.947231 118.543383 
L 434.998024 115.509066 
L 435.047394 112.47475 
L 435.096212 109.440433 
L 435.145151 106.406116 
L 435.194432 103.3718 
L 435.243854 100.337483 
L 435.293033 97.303166 
L 435.34171 94.26885 
L 435.39004 91.234533 
L 435.438959 88.200216 
L 435.490732 85.1659 
L 435.549686 82.131583 
L 435.622623 79.097267 
L 435.717992 76.06295 
L 435.843047 73.028633 
L 435.9995 69.994317 
L 436.17997 66.96 
L 437.694488 66.96 
L 437.694488 66.96 
L 437.874957 69.994317 
L 438.031411 73.028633 
L 438.156466 76.06295 
L 438.251834 79.097267 
L 438.324771 82.131583 
L 438.383725 85.1659 
L 438.435499 88.200216 
L 438.484417 91.234533 
L 438.532748 94.26885 
L 438.581424 97.303166 
L 438.630604 100.337483 
L 438.680025 103.3718 
L 438.729306 106.406116 
L 438.778245 109.440433 
L 438.827063 112.47475 
L 438.876434 115.509066 
L 438.927226 118.543383 
L 438.980074 121.577699 
L 439.035038 124.612016 
L 439.091592 127.646333 
L 439.148925 130.680649 
L 439.206352 133.714966 
L 439.263611 136.749283 
L 439.320963 139.783599 
L 439.379138 142.817916 
L 439.439155 145.852233 
L 439.502006 148.886549 
L 439.568295 151.920866 
L 439.638028 154.955182 
L 439.710794 157.989499 
L 439.786312 161.023816 
L 439.865002 164.058132 
L 439.94809 167.092449 
L 440.037053 170.126766 
L 440.132738 173.161082 
L 440.234783 176.195399 
L 440.341827 179.229716 
L 440.452345 182.264032 
L 440.565547 185.298349 
L 440.681784 188.332665 
L 440.802335 191.366982 
L 440.928839 194.401299 
L 441.06277 197.435615 
L 441.205178 200.469932 
L 441.356677 203.504249 
L 441.517486 206.538565 
L 441.687456 209.572882 
L 441.866151 212.607199 
L 442.053052 215.641515 
L 442.247633 218.675832 
L 442.448864 221.710148 
L 442.654153 224.744465 
L 442.858739 227.778782 
L 443.057273 230.813098 
L 443.248299 233.847415 
L 443.439448 236.881732 
L 443.648722 239.916048 
L 443.898537 242.950365 
L 444.204816 245.984682 
L 444.568416 249.018998 
L 444.975189 252.053315 
L 445.404243 255.087631 
L 445.83811 258.121948 
L 446.268501 261.156265 
L 446.695998 264.190581 
L 447.126185 267.224898 
L 447.565524 270.259215 
L 448.018867 273.293531 
L 448.488844 276.327848 
L 448.976567 279.362165 
L 449.482723 282.396481 
L 450.00818 285.430798 
L 450.553613 288.465114 
L 451.118386 291.499431 
L 451.699428 294.533748 
L 452.290808 297.568064 
L 452.884212 300.602381 
L 453.469889 303.636698 
L 454.037336 306.671014 
L 454.575054 309.705331 
L 455.069417 312.739648 
L 455.503458 315.773964 
L 455.856684 318.808281 
L 456.106331 321.842597 
L 456.229382 324.876914 
L 456.204308 327.911231 
L 456.012087 330.945547 
L 455.637002 333.979864 
L 455.067895 337.014181 
L 454.29988 340.048497 
L 453.335691 343.082814 
L 452.185705 346.117131 
L 450.866554 349.151447 
L 449.399557 352.185764 
L 447.811112 355.22008 
L 446.136681 358.254397 
L 444.427413 361.288714 
L 442.75465 364.32303 
L 441.205601 367.357347 
z
" style="fill:#4c72b0;fill-opacity:0.3;"/>
   </g>
   <g id="LineCollection_1">
    <path clip-path="url(#p3086917a7d)" d="M 118.93823 282.536061 
L 138.230384 282.536061 
" style="fill:none;stroke:#0000ff;stroke-width:1.75;"/>
    <path clip-path="url(#p3086917a7d)" d="M 196.106845 280.214653 
L 215.398998 280.214653 
" style="fill:none;stroke:#0000ff;stroke-width:1.75;"/>
    <path clip-path="url(#p3086917a7d)" d="M 273.275459 279.451449 
L 292.567613 279.451449 
" style="fill:none;stroke:#0000ff;stroke-width:1.75;"/>
    <path clip-path="url(#p3086917a7d)" d="M 350.444073 278.952837 
L 369.736227 278.952837 
" style="fill:none;stroke:#0000ff;stroke-width:1.75;"/>
    <path clip-path="url(#p3086917a7d)" d="M 427.291152 277.532771 
L 446.583306 277.532771 
" style="fill:none;stroke:#0000ff;stroke-width:1.75;"/>
   </g>
   <g id="LineCollection_2">
    <path clip-path="url(#p3086917a7d)" d="M 118.93823 82.981194 
L 138.230384 82.981194 
" style="fill:none;stroke:#4c72b0;stroke-width:1.75;"/>
    <path clip-path="url(#p3086917a7d)" d="M 196.106845 66.96 
L 215.398998 66.96 
" style="fill:none;stroke:#4c72b0;stroke-width:1.75;"/>
    <path clip-path="url(#p3086917a7d)" d="M 273.275459 66.96 
L 292.567613 66.96 
" style="fill:none;stroke:#4c72b0;stroke-width:1.75;"/>
    <path clip-path="url(#p3086917a7d)" d="M 350.444073 66.96 
L 369.736227 66.96 
" style="fill:none;stroke:#4c72b0;stroke-width:1.75;"/>
    <path clip-path="url(#p3086917a7d)" d="M 427.291152 66.96 
L 446.583306 66.96 
" style="fill:none;stroke:#4c72b0;stroke-width:1.75;"/>
   </g>
   <g id="LineCollection_3">
    <path clip-path="url(#p3086917a7d)" d="M 118.93823 369.36 
L 138.230384 369.36 
" style="fill:none;stroke:#4c72b0;stroke-width:1.75;"/>
    <path clip-path="url(#p3086917a7d)" d="M 196.106845 369.36 
L 215.398998 369.36 
" style="fill:none;stroke:#4c72b0;stroke-width:1.75;"/>
    <path clip-path="url(#p3086917a7d)" d="M 273.275459 369.36 
L 292.567613 369.36 
" style="fill:none;stroke:#4c72b0;stroke-width:1.75;"/>
    <path clip-path="url(#p3086917a7d)" d="M 350.444073 369.36 
L 369.736227 369.36 
" style="fill:none;stroke:#4c72b0;stroke-width:1.75;"/>
    <path clip-path="url(#p3086917a7d)" d="M 427.291152 367.357347 
L 446.583306 367.357347 
" style="fill:none;stroke:#4c72b0;stroke-width:1.75;"/>
   </g>
   <g id="LineCollection_4">
    <path clip-path="url(#p3086917a7d)" d="M 128.584307 369.36 
L 128.584307 82.981194 
" style="fill:none;stroke:#4c72b0;stroke-width:1.75;"/>
    <path clip-path="url(#p3086917a7d)" d="M 205.752922 369.36 
L 205.752922 66.96 
" style="fill:none;stroke:#4c72b0;stroke-width:1.75;"/>
    <path clip-path="url(#p3086917a7d)" d="M 282.921536 369.36 
L 282.921536 66.96 
" style="fill:none;stroke:#4c72b0;stroke-width:1.75;"/>
    <path clip-path="url(#p3086917a7d)" d="M 360.09015 369.36 
L 360.09015 66.96 
" style="fill:none;stroke:#4c72b0;stroke-width:1.75;"/>
    <path clip-path="url(#p3086917a7d)" d="M 436.937229 367.357347 
L 436.937229 66.96 
" style="fill:none;stroke:#4c72b0;stroke-width:1.75;"/>
   </g>
   <g id="LineCollection_5">
    <path clip-path="url(#p3086917a7d)" d="M 118.93823 301.269934 
L 138.230384 301.269934 
" style="fill:none;stroke:#008000;stroke-width:1.75;"/>
    <path clip-path="url(#p3086917a7d)" d="M 196.106845 301.269934 
L 215.398998 301.269934 
" style="fill:none;stroke:#008000;stroke-width:1.75;"/>
    <path clip-path="url(#p3086917a7d)" d="M 273.275459 299.267281 
L 292.567613 299.267281 
" style="fill:none;stroke:#008000;stroke-width:1.75;"/>
    <path clip-path="url(#p3086917a7d)" d="M 350.444073 299.267281 
L 369.736227 299.267281 
" style="fill:none;stroke:#008000;stroke-width:1.75;"/>
    <path clip-path="url(#p3086917a7d)" d="M 427.291152 297.264628 
L 446.583306 297.264628 
" style="fill:none;stroke:#008000;stroke-width:1.75;"/>
   </g>
   <g id="patch_3">
    <path d="M 90 384.48 
L 90 51.84 
" style="fill:none;"/>
   </g>
   <g id="patch_4">
    <path d="M 475.2 384.48 
L 475.2 51.84 
" style="fill:none;"/>
   </g>
   <g id="patch_5">
    <path d="M 90 384.48 
L 475.2 384.48 
" style="fill:none;"/>
   </g>
   <g id="patch_6">
    <path d="M 90 51.84 
L 475.2 51.84 
" style="fill:none;"/>
   </g>
   <g id="text_15">
    <!-- Latency -->
    <g style="fill:#262626;" transform="translate(261.586875 45.84)scale(0.12 -0.12)">
     <use xlink:href="#LiberationSans-4c"/>
     <use x="55.615234" xlink:href="#LiberationSans-61"/>
     <use x="111.230469" xlink:href="#LiberationSans-74"/>
     <use x="139.013672" xlink:href="#LiberationSans-65"/>
     <use x="194.628906" xlink:href="#LiberationSans-6e"/>
     <use x="250.244141" xlink:href="#LiberationSans-63"/>
     <use x="300.244141" xlink:href="#LiberationSans-79"/>
    </g>
   </g>
   <g id="legend_1">
    <g id="line2d_25">
     <path d="M 495.756 106.9666 
L 515.756 106.9666 
" style="fill:none;stroke:#0000ff;stroke-width:1.75;"/>
    </g>
    <g id="text_16">
     <!-- mean -->
     <g style="fill:#262626;" transform="translate(523.756 110.4666)scale(0.1 -0.1)">
      <use xlink:href="#LiberationSans-6d"/>
      <use x="83.300781" xlink:href="#LiberationSans-65"/>
      <use x="138.916016" xlink:href="#LiberationSans-61"/>
      <use x="194.53125" xlink:href="#LiberationSans-6e"/>
     </g>
    </g>
    <g id="line2d_26">
     <path d="M 495.756 121.288475 
L 515.756 121.288475 
" style="fill:none;stroke:#008000;stroke-width:1.75;"/>
    </g>
    <g id="text_17">
     <!-- median -->
     <g style="fill:#262626;" transform="translate(523.756 124.788475)scale(0.1 -0.1)">
      <use xlink:href="#LiberationSans-6d"/>
      <use x="83.300781" xlink:href="#LiberationSans-65"/>
      <use x="138.916016" xlink:href="#LiberationSans-64"/>
      <use x="194.53125" xlink:href="#LiberationSans-69"/>
      <use x="216.748047" xlink:href="#LiberationSans-61"/>
      <use x="272.363281" xlink:href="#LiberationSans-6e"/>
     </g>
    </g>
   </g>
  </g>
 </g>
 <defs>
  <clipPath id="p3086917a7d">
   <rect height="332.64" width="385.2" x="90" y="51.84"/>
  </clipPath>
 </defs>
</svg>
