
<svg height="432pt" version="1.1" viewBox="0 0 720 432" width="720pt" xmlns="http://www.w3.org/2000/svg" xmlns:xlink="http://www.w3.org/1999/xlink">
 <defs>
  <style type="text/css">
*{stroke-linecap:butt;stroke-linejoin:round;}
  </style>
 </defs>
 <g id="figure_1">
  <g id="patch_1">
   <path d="M 0 432 
L 720 432 
L 720 0 
L 0 0 
z
" style="fill:#ffffff;"/>
  </g>
  <g id="axes_1">
   <g id="patch_2">
    <path d="M 90 384.48 
L 475.2 384.48 
L 475.2 51.84 
L 90 51.84 
z
" style="fill:#eaeaf2;"/>
   </g>
   <g id="matplotlib.axis_1">
    <g id="xtick_1">
     <g id="line2d_1">
      <path clip-path="url(#p2be8af6ba0)" d="M 90 384.48 
L 90 51.84 
" style="fill:none;stroke:#ffffff;stroke-linecap:round;"/>
     </g>
     <g id="line2d_2"/>
     <g id="text_1">
      <!-- 0 -->
      <defs>
       <path d="M 51.703125 34.421875 
Q 51.703125 24.515625 49.828125 17.75 
Q 47.953125 10.984375 44.703125 6.8125 
Q 41.453125 2.640625 37.0625 0.828125 
Q 32.671875 -0.984375 27.6875 -0.984375 
Q 22.65625 -0.984375 18.3125 0.828125 
Q 13.96875 2.640625 10.765625 6.78125 
Q 7.5625 10.9375 5.734375 17.703125 
Q 3.90625 24.46875 3.90625 34.421875 
Q 3.90625 44.828125 5.734375 51.640625 
Q 7.5625 58.453125 10.78125 62.5 
Q 14.015625 66.546875 18.40625 68.1875 
Q 22.796875 69.828125 27.984375 69.828125 
Q 32.90625 69.828125 37.21875 68.1875 
Q 41.546875 66.546875 44.765625 62.5 
Q 48 58.453125 49.84375 51.640625 
Q 51.703125 44.828125 51.703125 34.421875 
M 42.78125 34.421875 
Q 42.78125 42.625 41.796875 48.0625 
Q 40.828125 53.515625 38.921875 56.765625 
Q 37.015625 60.015625 34.25 61.359375 
Q 31.5 62.703125 27.984375 62.703125 
Q 24.265625 62.703125 21.4375 61.328125 
Q 18.609375 59.96875 16.671875 56.71875 
Q 14.75 53.46875 13.765625 48.015625 
Q 12.796875 42.578125 12.796875 34.421875 
Q 12.796875 26.515625 13.796875 21.09375 
Q 14.796875 15.671875 16.71875 12.375 
Q 18.65625 9.078125 21.4375 7.640625 
Q 24.21875 6.203125 27.78125 6.203125 
Q 31.25 6.203125 34.03125 7.640625 
Q 36.8125 9.078125 38.734375 12.375 
Q 40.671875 15.671875 41.71875 21.09375 
Q 42.78125 26.515625 42.78125 34.421875 
" id="LiberationSans-30"/>
      </defs>
      <g style="fill:#262626;" transform="translate(87.219531 398.726875)scale(0.1 -0.1)">
       <use xlink:href="#LiberationSans-30"/>
      </g>
     </g>
    </g>
    <g id="xtick_2">
     <g id="line2d_3">
      <path clip-path="url(#p2be8af6ba0)" d="M 154.307179 384.48 
L 154.307179 51.84 
" style="fill:none;stroke:#ffffff;stroke-linecap:round;"/>
     </g>
     <g id="line2d_4"/>
     <g id="text_2">
      <!-- 100 -->
      <defs>
       <path d="M 7.625 0 
L 7.625 7.46875 
L 25.140625 7.46875 
L 25.140625 60.40625 
L 9.625 49.3125 
L 9.625 57.625 
L 25.875 68.796875 
L 33.984375 68.796875 
L 33.984375 7.46875 
L 50.734375 7.46875 
L 50.734375 0 
z
" id="LiberationSans-31"/>
      </defs>
      <g style="fill:#262626;" transform="translate(145.965772 398.726875)scale(0.1 -0.1)">
       <use xlink:href="#LiberationSans-31"/>
       <use x="55.615234" xlink:href="#LiberationSans-30"/>
       <use x="111.230469" xlink:href="#LiberationSans-30"/>
      </g>
     </g>
    </g>
    <g id="xtick_3">
     <g id="line2d_5">
      <path clip-path="url(#p2be8af6ba0)" d="M 218.614357 384.48 
L 218.614357 51.84 
" style="fill:none;stroke:#ffffff;stroke-linecap:round;"/>
     </g>
     <g id="line2d_6"/>
     <g id="text_3">
      <!-- 200 -->
      <defs>
       <path d="M 5.03125 0 
L 5.03125 6.203125 
Q 7.515625 11.921875 11.109375 16.28125 
Q 14.703125 20.65625 18.65625 24.1875 
Q 22.609375 27.734375 26.484375 30.765625 
Q 30.375 33.796875 33.5 36.8125 
Q 36.625 39.84375 38.546875 43.15625 
Q 40.484375 46.484375 40.484375 50.6875 
Q 40.484375 53.609375 39.59375 55.828125 
Q 38.71875 58.0625 37.0625 59.5625 
Q 35.40625 61.078125 33.078125 61.828125 
Q 30.765625 62.59375 27.9375 62.59375 
Q 25.296875 62.59375 22.96875 61.859375 
Q 20.65625 61.140625 18.84375 59.671875 
Q 17.046875 58.203125 15.890625 56.03125 
Q 14.75 53.859375 14.40625 50.984375 
L 5.421875 51.8125 
Q 5.859375 55.515625 7.46875 58.78125 
Q 9.078125 62.0625 11.90625 64.53125 
Q 14.75 67 18.71875 68.40625 
Q 22.703125 69.828125 27.9375 69.828125 
Q 33.0625 69.828125 37.0625 68.609375 
Q 41.0625 67.390625 43.8125 64.984375 
Q 46.578125 62.59375 48.046875 59.078125 
Q 49.515625 55.5625 49.515625 50.984375 
Q 49.515625 47.515625 48.265625 44.390625 
Q 47.015625 41.265625 44.9375 38.421875 
Q 42.875 35.59375 40.140625 32.953125 
Q 37.40625 30.328125 34.421875 27.8125 
Q 31.453125 25.296875 28.421875 22.828125 
Q 25.390625 20.359375 22.71875 17.859375 
Q 20.0625 15.375 17.96875 12.8125 
Q 15.875 10.25 14.703125 7.46875 
L 50.59375 7.46875 
L 50.59375 0 
z
" id="LiberationSans-32"/>
      </defs>
      <g style="fill:#262626;" transform="translate(210.272951 398.726875)scale(0.1 -0.1)">
       <use xlink:href="#LiberationSans-32"/>
       <use x="55.615234" xlink:href="#LiberationSans-30"/>
       <use x="111.230469" xlink:href="#LiberationSans-30"/>
      </g>
     </g>
    </g>
    <g id="xtick_4">
     <g id="line2d_7">
      <path clip-path="url(#p2be8af6ba0)" d="M 282.921536 384.48 
L 282.921536 51.84 
" style="fill:none;stroke:#ffffff;stroke-linecap:round;"/>
     </g>
     <g id="line2d_8"/>
     <g id="text_4">
      <!-- 300 -->
      <defs>
       <path d="M 51.21875 19 
Q 51.21875 14.265625 49.671875 10.546875 
Q 48.140625 6.84375 45.1875 4.265625 
Q 42.234375 1.703125 37.859375 0.359375 
Q 33.5 -0.984375 27.875 -0.984375 
Q 21.484375 -0.984375 17.109375 0.609375 
Q 12.75 2.203125 9.90625 4.8125 
Q 7.078125 7.421875 5.65625 10.765625 
Q 4.25 14.109375 3.8125 17.671875 
L 12.890625 18.5 
Q 13.28125 15.765625 14.328125 13.515625 
Q 15.375 11.28125 17.1875 9.671875 
Q 19 8.0625 21.625 7.171875 
Q 24.265625 6.296875 27.875 6.296875 
Q 34.515625 6.296875 38.296875 9.5625 
Q 42.09375 12.84375 42.09375 19.28125 
Q 42.09375 23.09375 40.40625 25.40625 
Q 38.71875 27.734375 36.203125 29.03125 
Q 33.6875 30.328125 30.734375 30.765625 
Q 27.78125 31.203125 25.296875 31.203125 
L 20.3125 31.203125 
L 20.3125 38.8125 
L 25.09375 38.8125 
Q 27.59375 38.8125 30.265625 39.328125 
Q 32.953125 39.84375 35.171875 41.1875 
Q 37.40625 42.53125 38.84375 44.828125 
Q 40.28125 47.125 40.28125 50.6875 
Q 40.28125 56.203125 37.03125 59.390625 
Q 33.796875 62.59375 27.390625 62.59375 
Q 21.578125 62.59375 17.984375 59.609375 
Q 14.40625 56.640625 13.8125 51.21875 
L 4.984375 51.90625 
Q 5.515625 56.453125 7.46875 59.8125 
Q 9.421875 63.1875 12.421875 65.40625 
Q 15.4375 67.625 19.28125 68.71875 
Q 23.140625 69.828125 27.484375 69.828125 
Q 33.25 69.828125 37.390625 68.375 
Q 41.546875 66.9375 44.1875 64.46875 
Q 46.828125 62.015625 48.0625 58.6875 
Q 49.3125 55.375 49.3125 51.609375 
Q 49.3125 48.578125 48.484375 45.9375 
Q 47.65625 43.3125 45.890625 41.203125 
Q 44.140625 39.109375 41.421875 37.59375 
Q 38.71875 36.078125 34.90625 35.296875 
L 34.90625 35.109375 
Q 39.0625 34.671875 42.140625 33.21875 
Q 45.21875 31.78125 47.21875 29.625 
Q 49.21875 27.484375 50.21875 24.75 
Q 51.21875 22.015625 51.21875 19 
" id="LiberationSans-33"/>
      </defs>
      <g style="fill:#262626;" transform="translate(274.58013 398.726875)scale(0.1 -0.1)">
       <use xlink:href="#LiberationSans-33"/>
       <use x="55.615234" xlink:href="#LiberationSans-30"/>
       <use x="111.230469" xlink:href="#LiberationSans-30"/>
      </g>
     </g>
    </g>
    <g id="xtick_5">
     <g id="line2d_9">
      <path clip-path="url(#p2be8af6ba0)" d="M 347.228715 384.48 
L 347.228715 51.84 
" style="fill:none;stroke:#ffffff;stroke-linecap:round;"/>
     </g>
     <g id="line2d_10"/>
     <g id="text_5">
      <!-- 400 -->
      <defs>
       <path d="M 43.015625 15.578125 
L 43.015625 0 
L 34.71875 0 
L 34.71875 15.578125 
L 2.296875 15.578125 
L 2.296875 22.40625 
L 33.796875 68.796875 
L 43.015625 68.796875 
L 43.015625 22.515625 
L 52.6875 22.515625 
L 52.6875 15.578125 
z
M 34.71875 58.890625 
Q 34.625 58.640625 34.234375 57.9375 
Q 33.84375 57.234375 33.34375 56.34375 
Q 32.859375 55.46875 32.34375 54.5625 
Q 31.84375 53.65625 31.453125 53.078125 
L 13.8125 27.09375 
Q 13.578125 26.703125 13.109375 26.0625 
Q 12.640625 25.4375 12.15625 24.78125 
Q 11.671875 24.125 11.171875 23.484375 
Q 10.6875 22.859375 10.40625 22.515625 
L 34.71875 22.515625 
z
" id="LiberationSans-34"/>
      </defs>
      <g style="fill:#262626;" transform="translate(338.887308 398.726875)scale(0.1 -0.1)">
       <use xlink:href="#LiberationSans-34"/>
       <use x="55.615234" xlink:href="#LiberationSans-30"/>
       <use x="111.230469" xlink:href="#LiberationSans-30"/>
      </g>
     </g>
    </g>
    <g id="xtick_6">
     <g id="line2d_11">
      <path clip-path="url(#p2be8af6ba0)" d="M 411.535893 384.48 
L 411.535893 51.84 
" style="fill:none;stroke:#ffffff;stroke-linecap:round;"/>
     </g>
     <g id="line2d_12"/>
     <g id="text_6">
      <!-- 500 -->
      <defs>
       <path d="M 51.421875 22.40625 
Q 51.421875 17.234375 49.859375 12.9375 
Q 48.296875 8.640625 45.21875 5.53125 
Q 42.140625 2.4375 37.578125 0.71875 
Q 33.015625 -0.984375 27 -0.984375 
Q 21.578125 -0.984375 17.546875 0.28125 
Q 13.53125 1.5625 10.734375 3.78125 
Q 7.953125 6 6.3125 8.984375 
Q 4.6875 11.96875 4 15.375 
L 12.890625 16.40625 
Q 13.421875 14.453125 14.390625 12.625 
Q 15.375 10.796875 17.0625 9.34375 
Q 18.75 7.90625 21.21875 7.046875 
Q 23.6875 6.203125 27.203125 6.203125 
Q 30.609375 6.203125 33.390625 7.25 
Q 36.1875 8.296875 38.15625 10.34375 
Q 40.140625 12.40625 41.203125 15.375 
Q 42.28125 18.359375 42.28125 22.21875 
Q 42.28125 25.390625 41.25 28.046875 
Q 40.234375 30.71875 38.328125 32.640625 
Q 36.421875 34.578125 33.65625 35.640625 
Q 30.90625 36.71875 27.390625 36.71875 
Q 25.203125 36.71875 23.34375 36.328125 
Q 21.484375 35.9375 19.890625 35.25 
Q 18.3125 34.578125 17.015625 33.671875 
Q 15.71875 32.765625 14.59375 31.78125 
L 6 31.78125 
L 8.296875 68.796875 
L 47.40625 68.796875 
L 47.40625 61.328125 
L 16.3125 61.328125 
L 14.984375 39.5 
Q 17.328125 41.3125 20.84375 42.59375 
Q 24.359375 43.890625 29.203125 43.890625 
Q 34.328125 43.890625 38.421875 42.328125 
Q 42.53125 40.765625 45.40625 37.90625 
Q 48.296875 35.0625 49.859375 31.109375 
Q 51.421875 27.15625 51.421875 22.40625 
" id="LiberationSans-35"/>
      </defs>
      <g style="fill:#262626;" transform="translate(403.194487 398.726875)scale(0.1 -0.1)">
       <use xlink:href="#LiberationSans-35"/>
       <use x="55.615234" xlink:href="#LiberationSans-30"/>
       <use x="111.230469" xlink:href="#LiberationSans-30"/>
      </g>
     </g>
    </g>
    <g id="text_7">
     <!-- Time, seconds from test begin, sampled for ~120 seconds -->
     <defs>
      <path d="M 35.15625 61.1875 
L 35.15625 0 
L 25.875 0 
L 25.875 61.1875 
L 2.25 61.1875 
L 2.25 68.796875 
L 58.796875 68.796875 
L 58.796875 61.1875 
z
" id="LiberationSans-54"/>
      <path d="M 6.6875 64.0625 
L 6.6875 72.46875 
L 15.484375 72.46875 
L 15.484375 64.0625 
z
M 6.6875 0 
L 6.6875 52.828125 
L 15.484375 52.828125 
L 15.484375 0 
z
" id="LiberationSans-69"/>
      <path d="M 37.5 0 
L 37.5 33.5 
Q 37.5 37.359375 37.015625 39.9375 
Q 36.53125 42.53125 35.375 44.109375 
Q 34.234375 45.703125 32.375 46.359375 
Q 30.515625 47.015625 27.828125 47.015625 
Q 25.046875 47.015625 22.796875 45.921875 
Q 20.5625 44.828125 18.96875 42.75 
Q 17.390625 40.671875 16.53125 37.625 
Q 15.671875 34.578125 15.671875 30.609375 
L 15.671875 0 
L 6.9375 0 
L 6.9375 41.546875 
Q 6.9375 43.21875 6.90625 45.046875 
Q 6.890625 46.875 6.828125 48.5 
Q 6.78125 50.140625 6.734375 51.3125 
Q 6.6875 52.484375 6.640625 52.828125 
L 14.9375 52.828125 
Q 14.984375 52.59375 15.03125 51.515625 
Q 15.09375 50.4375 15.15625 49.046875 
Q 15.234375 47.65625 15.28125 46.21875 
Q 15.328125 44.78125 15.328125 43.796875 
L 15.484375 43.796875 
Q 16.65625 46.09375 18.015625 47.953125 
Q 19.390625 49.8125 21.21875 51.09375 
Q 23.046875 52.390625 25.40625 53.09375 
Q 27.78125 53.8125 30.90625 53.8125 
Q 36.921875 53.8125 40.40625 51.421875 
Q 43.890625 49.03125 45.265625 43.796875 
L 45.40625 43.796875 
Q 46.578125 46.09375 48.046875 47.953125 
Q 49.515625 49.8125 51.46875 51.09375 
Q 53.421875 52.390625 55.859375 53.09375 
Q 58.296875 53.8125 61.421875 53.8125 
Q 65.4375 53.8125 68.328125 52.734375 
Q 71.234375 51.65625 73.09375 49.40625 
Q 74.953125 47.171875 75.828125 43.625 
Q 76.703125 40.09375 76.703125 35.203125 
L 76.703125 0 
L 68.015625 0 
L 68.015625 33.5 
Q 68.015625 37.359375 67.53125 39.9375 
Q 67.046875 42.53125 65.890625 44.109375 
Q 64.75 45.703125 62.890625 46.359375 
Q 61.03125 47.015625 58.34375 47.015625 
Q 55.5625 47.015625 53.3125 45.96875 
Q 51.078125 44.921875 49.484375 42.875 
Q 47.90625 40.828125 47.046875 37.75 
Q 46.1875 34.671875 46.1875 30.609375 
L 46.1875 0 
z
" id="LiberationSans-6d"/>
      <path d="M 13.484375 24.5625 
Q 13.484375 20.40625 14.328125 16.90625 
Q 15.1875 13.421875 16.96875 10.90625 
Q 18.75 8.40625 21.53125 7 
Q 24.3125 5.609375 28.21875 5.609375 
Q 33.9375 5.609375 37.375 7.90625 
Q 40.828125 10.203125 42.046875 13.71875 
L 49.75 11.53125 
Q 48.921875 9.328125 47.4375 7.109375 
Q 45.953125 4.890625 43.453125 3.09375 
Q 40.96875 1.3125 37.234375 0.15625 
Q 33.5 -0.984375 28.21875 -0.984375 
Q 16.5 -0.984375 10.375 6 
Q 4.25 12.984375 4.25 26.765625 
Q 4.25 34.1875 6.09375 39.328125 
Q 7.953125 44.484375 11.171875 47.703125 
Q 14.40625 50.921875 18.703125 52.359375 
Q 23 53.8125 27.875 53.8125 
Q 34.515625 53.8125 38.984375 51.65625 
Q 43.453125 49.515625 46.15625 45.71875 
Q 48.875 41.9375 50.015625 36.8125 
Q 51.171875 31.6875 51.171875 25.734375 
L 51.171875 24.5625 
z
M 42.09375 31.296875 
Q 41.359375 39.65625 37.84375 43.484375 
Q 34.328125 47.3125 27.734375 47.3125 
Q 25.53125 47.3125 23.109375 46.609375 
Q 20.703125 45.90625 18.65625 44.09375 
Q 16.609375 42.28125 15.1875 39.171875 
Q 13.765625 36.078125 13.578125 31.296875 
z
" id="LiberationSans-65"/>
      <path d="M 18.796875 10.6875 
L 18.796875 2.484375 
Q 18.796875 -0.09375 18.578125 -2.21875 
Q 18.359375 -4.34375 17.875 -6.171875 
Q 17.390625 -8.015625 16.671875 -9.625 
Q 15.96875 -11.234375 14.984375 -12.796875 
L 8.984375 -12.796875 
Q 11.1875 -9.625 12.375 -6.390625 
Q 13.578125 -3.171875 13.578125 0 
L 9.28125 0 
L 9.28125 10.6875 
z
" id="LiberationSans-2c"/>
      <path id="LiberationSans-20"/>
      <path d="M 46.390625 14.59375 
Q 46.390625 10.890625 44.9375 7.984375 
Q 43.5 5.078125 40.765625 3.09375 
Q 38.03125 1.125 34.046875 0.0625 
Q 30.078125 -0.984375 24.953125 -0.984375 
Q 20.359375 -0.984375 16.671875 -0.265625 
Q 12.984375 0.4375 10.203125 2 
Q 7.421875 3.5625 5.53125 6.125 
Q 3.65625 8.6875 2.78125 12.40625 
L 10.546875 13.921875 
Q 11.671875 9.671875 15.1875 7.6875 
Q 18.703125 5.71875 24.953125 5.71875 
Q 27.78125 5.71875 30.140625 6.109375 
Q 32.515625 6.5 34.21875 7.453125 
Q 35.9375 8.40625 36.890625 9.984375 
Q 37.84375 11.578125 37.84375 13.921875 
Q 37.84375 16.3125 36.71875 17.84375 
Q 35.59375 19.390625 33.59375 20.40625 
Q 31.59375 21.4375 28.734375 22.1875 
Q 25.875 22.953125 22.46875 23.875 
Q 19.28125 24.703125 16.15625 25.734375 
Q 13.03125 26.765625 10.515625 28.4375 
Q 8.015625 30.125 6.453125 32.609375 
Q 4.890625 35.109375 4.890625 38.875 
Q 4.890625 46.09375 10.03125 49.875 
Q 15.1875 53.65625 25.046875 53.65625 
Q 33.796875 53.65625 38.9375 50.578125 
Q 44.09375 47.515625 45.453125 40.71875 
L 37.546875 39.75 
Q 37.109375 41.796875 35.9375 43.1875 
Q 34.765625 44.578125 33.109375 45.4375 
Q 31.453125 46.296875 29.375 46.65625 
Q 27.296875 47.015625 25.046875 47.015625 
Q 19.09375 47.015625 16.25 45.203125 
Q 13.421875 43.40625 13.421875 39.75 
Q 13.421875 37.59375 14.46875 36.203125 
Q 15.53125 34.8125 17.40625 33.859375 
Q 19.28125 32.90625 21.921875 32.203125 
Q 24.5625 31.5 27.734375 30.71875 
Q 29.828125 30.171875 32.03125 29.5625 
Q 34.234375 28.953125 36.296875 28.09375 
Q 38.375 27.25 40.203125 26.09375 
Q 42.046875 24.953125 43.40625 23.34375 
Q 44.78125 21.734375 45.578125 19.578125 
Q 46.390625 17.4375 46.390625 14.59375 
" id="LiberationSans-73"/>
      <path d="M 13.421875 26.65625 
Q 13.421875 22.125 14.078125 18.3125 
Q 14.75 14.5 16.3125 11.734375 
Q 17.875 8.984375 20.4375 7.46875 
Q 23 5.953125 26.765625 5.953125 
Q 31.453125 5.953125 34.59375 8.484375 
Q 37.75 11.03125 38.484375 16.3125 
L 47.359375 15.71875 
Q 46.921875 12.453125 45.453125 9.421875 
Q 44 6.390625 41.484375 4.09375 
Q 38.96875 1.8125 35.34375 0.40625 
Q 31.734375 -0.984375 27 -0.984375 
Q 20.796875 -0.984375 16.453125 1.109375 
Q 12.109375 3.21875 9.390625 6.90625 
Q 6.6875 10.59375 5.46875 15.59375 
Q 4.25 20.609375 4.25 26.46875 
Q 4.25 31.78125 5.125 35.859375 
Q 6 39.9375 7.59375 42.984375 
Q 9.1875 46.046875 11.328125 48.125 
Q 13.484375 50.203125 15.984375 51.4375 
Q 18.5 52.6875 21.28125 53.25 
Q 24.078125 53.8125 26.90625 53.8125 
Q 31.34375 53.8125 34.8125 52.59375 
Q 38.28125 51.375 40.796875 49.25 
Q 43.3125 47.125 44.875 44.234375 
Q 46.4375 41.359375 47.078125 38.03125 
L 38.03125 37.359375 
Q 37.359375 41.75 34.5625 44.328125 
Q 31.78125 46.921875 26.65625 46.921875 
Q 22.90625 46.921875 20.390625 45.671875 
Q 17.875 44.4375 16.3125 41.921875 
Q 14.75 39.40625 14.078125 35.59375 
Q 13.421875 31.78125 13.421875 26.65625 
" id="LiberationSans-63"/>
      <path d="M 51.421875 26.46875 
Q 51.421875 12.59375 45.3125 5.796875 
Q 39.203125 -0.984375 27.59375 -0.984375 
Q 22.078125 -0.984375 17.71875 0.671875 
Q 13.375 2.34375 10.375 5.765625 
Q 7.375 9.1875 5.78125 14.328125 
Q 4.203125 19.484375 4.203125 26.46875 
Q 4.203125 53.8125 27.875 53.8125 
Q 34.03125 53.8125 38.5 52.09375 
Q 42.96875 50.390625 45.828125 46.96875 
Q 48.6875 43.5625 50.046875 38.421875 
Q 51.421875 33.296875 51.421875 26.46875 
M 42.1875 26.46875 
Q 42.1875 32.625 41.234375 36.625 
Q 40.28125 40.625 38.453125 43.015625 
Q 36.625 45.40625 33.984375 46.359375 
Q 31.34375 47.3125 28.03125 47.3125 
Q 24.65625 47.3125 21.9375 46.3125 
Q 19.234375 45.3125 17.328125 42.890625 
Q 15.4375 40.484375 14.421875 36.46875 
Q 13.421875 32.46875 13.421875 26.46875 
Q 13.421875 20.3125 14.5 16.28125 
Q 15.578125 12.25 17.453125 9.859375 
Q 19.34375 7.46875 21.90625 6.484375 
Q 24.46875 5.515625 27.484375 5.515625 
Q 30.859375 5.515625 33.59375 6.46875 
Q 36.328125 7.421875 38.234375 9.8125 
Q 40.140625 12.203125 41.15625 16.25 
Q 42.1875 20.3125 42.1875 26.46875 
" id="LiberationSans-6f"/>
      <path d="M 40.28125 0 
L 40.28125 33.5 
Q 40.28125 37.359375 39.71875 39.9375 
Q 39.15625 42.53125 37.890625 44.109375 
Q 36.625 45.703125 34.546875 46.359375 
Q 32.46875 47.015625 29.390625 47.015625 
Q 26.265625 47.015625 23.75 45.921875 
Q 21.234375 44.828125 19.453125 42.75 
Q 17.671875 40.671875 16.6875 37.625 
Q 15.71875 34.578125 15.71875 30.609375 
L 15.71875 0 
L 6.9375 0 
L 6.9375 41.546875 
Q 6.9375 43.21875 6.90625 45.046875 
Q 6.890625 46.875 6.828125 48.5 
Q 6.78125 50.140625 6.734375 51.3125 
Q 6.6875 52.484375 6.640625 52.828125 
L 14.9375 52.828125 
Q 14.984375 52.59375 15.03125 51.515625 
Q 15.09375 50.4375 15.15625 49.046875 
Q 15.234375 47.65625 15.28125 46.21875 
Q 15.328125 44.78125 15.328125 43.796875 
L 15.484375 43.796875 
Q 16.75 46.09375 18.265625 47.953125 
Q 19.78125 49.8125 21.78125 51.09375 
Q 23.78125 52.390625 26.359375 53.09375 
Q 28.953125 53.8125 32.375 53.8125 
Q 36.765625 53.8125 39.9375 52.734375 
Q 43.109375 51.65625 45.15625 49.40625 
Q 47.21875 47.171875 48.171875 43.625 
Q 49.125 40.09375 49.125 35.203125 
L 49.125 0 
z
" id="LiberationSans-6e"/>
      <path d="M 40.09375 8.5 
Q 37.640625 3.421875 33.609375 1.21875 
Q 29.59375 -0.984375 23.640625 -0.984375 
Q 13.625 -0.984375 8.90625 5.75 
Q 4.203125 12.5 4.203125 26.171875 
Q 4.203125 53.8125 23.640625 53.8125 
Q 29.640625 53.8125 33.640625 51.609375 
Q 37.640625 49.421875 40.09375 44.625 
L 40.1875 44.625 
Q 40.1875 45.125 40.15625 46.171875 
Q 40.140625 47.21875 40.109375 48.359375 
Q 40.09375 49.515625 40.09375 50.53125 
Q 40.09375 51.5625 40.09375 52 
L 40.09375 72.46875 
L 48.875 72.46875 
L 48.875 10.890625 
Q 48.875 8.984375 48.890625 7.21875 
Q 48.921875 5.46875 48.96875 4 
Q 49.03125 2.546875 49.078125 1.484375 
Q 49.125 0.4375 49.171875 0 
L 40.765625 0 
Q 40.671875 0.484375 40.59375 1.390625 
Q 40.53125 2.296875 40.453125 3.46875 
Q 40.375 4.640625 40.328125 5.9375 
Q 40.28125 7.234375 40.28125 8.5 
z
M 13.421875 26.46875 
Q 13.421875 21 14.109375 17.09375 
Q 14.796875 13.1875 16.3125 10.671875 
Q 17.828125 8.15625 20.171875 6.984375 
Q 22.515625 5.8125 25.875 5.8125 
Q 29.34375 5.8125 32 6.9375 
Q 34.671875 8.0625 36.453125 10.578125 
Q 38.234375 13.09375 39.15625 17.140625 
Q 40.09375 21.1875 40.09375 27.046875 
Q 40.09375 32.671875 39.15625 36.546875 
Q 38.234375 40.4375 36.421875 42.828125 
Q 34.625 45.21875 32 46.265625 
Q 29.390625 47.3125 25.984375 47.3125 
Q 22.75 47.3125 20.40625 46.1875 
Q 18.0625 45.0625 16.5 42.578125 
Q 14.9375 40.09375 14.171875 36.109375 
Q 13.421875 32.125 13.421875 26.46875 
" id="LiberationSans-64"/>
      <path d="M 17.625 46.4375 
L 17.625 0 
L 8.84375 0 
L 8.84375 46.4375 
L 1.421875 46.4375 
L 1.421875 52.828125 
L 8.84375 52.828125 
L 8.84375 58.796875 
Q 8.84375 61.671875 9.375 64.140625 
Q 9.90625 66.609375 11.34375 68.4375 
Q 12.796875 70.265625 15.28125 71.3125 
Q 17.78125 72.359375 21.734375 72.359375 
Q 23.296875 72.359375 24.96875 72.21875 
Q 26.65625 72.078125 27.9375 71.78125 
L 27.9375 65.09375 
Q 27.09375 65.234375 26 65.359375 
Q 24.90625 65.484375 24.03125 65.484375 
Q 22.078125 65.484375 20.828125 64.9375 
Q 19.578125 64.40625 18.875 63.40625 
Q 18.171875 62.40625 17.890625 60.9375 
Q 17.625 59.46875 17.625 57.5625 
L 17.625 52.828125 
L 27.9375 52.828125 
L 27.9375 46.4375 
z
" id="LiberationSans-66"/>
      <path d="M 6.9375 0 
L 6.9375 40.53125 
Q 6.9375 42.1875 6.90625 43.921875 
Q 6.890625 45.65625 6.828125 47.265625 
Q 6.78125 48.875 6.734375 50.28125 
Q 6.6875 51.703125 6.640625 52.828125 
L 14.9375 52.828125 
Q 14.984375 51.703125 15.0625 50.265625 
Q 15.140625 48.828125 15.203125 47.3125 
Q 15.28125 45.796875 15.296875 44.40625 
Q 15.328125 43.015625 15.328125 42.046875 
L 15.53125 42.046875 
Q 16.453125 45.0625 17.5 47.28125 
Q 18.5625 49.515625 19.96875 50.953125 
Q 21.390625 52.390625 23.34375 53.09375 
Q 25.296875 53.8125 28.078125 53.8125 
Q 29.15625 53.8125 30.125 53.640625 
Q 31.109375 53.46875 31.640625 53.328125 
L 31.640625 45.265625 
Q 30.765625 45.515625 29.59375 45.625 
Q 28.421875 45.75 26.953125 45.75 
Q 23.921875 45.75 21.796875 44.375 
Q 19.671875 43.015625 18.328125 40.59375 
Q 17 38.1875 16.359375 34.84375 
Q 15.71875 31.5 15.71875 27.546875 
L 15.71875 0 
z
" id="LiberationSans-72"/>
      <path d="M 27.046875 0.390625 
Q 25.046875 -0.140625 22.96875 -0.453125 
Q 20.90625 -0.78125 18.171875 -0.78125 
Q 7.625 -0.78125 7.625 11.1875 
L 7.625 46.4375 
L 1.515625 46.4375 
L 1.515625 52.828125 
L 7.953125 52.828125 
L 10.546875 64.65625 
L 16.40625 64.65625 
L 16.40625 52.828125 
L 26.171875 52.828125 
L 26.171875 46.4375 
L 16.40625 46.4375 
L 16.40625 13.09375 
Q 16.40625 9.28125 17.640625 7.734375 
Q 18.890625 6.203125 21.96875 6.203125 
Q 23.25 6.203125 24.4375 6.390625 
Q 25.640625 6.59375 27.046875 6.890625 
z
" id="LiberationSans-74"/>
      <path d="M 51.421875 26.65625 
Q 51.421875 -0.984375 31.984375 -0.984375 
Q 25.984375 -0.984375 22 1.1875 
Q 18.015625 3.375 15.53125 8.203125 
L 15.4375 8.203125 
Q 15.4375 6.9375 15.359375 5.5625 
Q 15.28125 4.203125 15.203125 3.03125 
Q 15.140625 1.859375 15.0625 1.03125 
Q 14.984375 0.203125 14.9375 0 
L 6.453125 0 
Q 6.5 0.4375 6.546875 1.484375 
Q 6.59375 2.546875 6.640625 4 
Q 6.6875 5.46875 6.703125 7.21875 
Q 6.734375 8.984375 6.734375 10.890625 
L 6.734375 72.46875 
L 15.53125 72.46875 
L 15.53125 51.8125 
Q 15.53125 50.34375 15.5 49 
Q 15.484375 47.65625 15.4375 46.625 
Q 15.375 45.40625 15.328125 44.34375 
L 15.53125 44.34375 
Q 17.96875 49.421875 22 51.609375 
Q 26.03125 53.8125 31.984375 53.8125 
Q 42 53.8125 46.703125 47.0625 
Q 51.421875 40.328125 51.421875 26.65625 
M 42.1875 26.375 
Q 42.1875 31.84375 41.5 35.75 
Q 40.828125 39.65625 39.3125 42.15625 
Q 37.796875 44.671875 35.453125 45.84375 
Q 33.109375 47.015625 29.734375 47.015625 
Q 26.265625 47.015625 23.609375 45.890625 
Q 20.953125 44.78125 19.171875 42.28125 
Q 17.390625 39.796875 16.453125 35.734375 
Q 15.53125 31.6875 15.53125 25.828125 
Q 15.53125 20.171875 16.453125 16.3125 
Q 17.390625 12.453125 19.171875 10.03125 
Q 20.953125 7.625 23.578125 6.5625 
Q 26.21875 5.515625 29.640625 5.515625 
Q 32.859375 5.515625 35.203125 6.640625 
Q 37.546875 7.765625 39.109375 10.25 
Q 40.671875 12.75 41.421875 16.71875 
Q 42.1875 20.703125 42.1875 26.375 
" id="LiberationSans-62"/>
      <path d="M 26.765625 -20.75 
Q 22.21875 -20.75 18.703125 -19.8125 
Q 15.1875 -18.890625 12.6875 -17.15625 
Q 10.203125 -15.4375 8.640625 -13.03125 
Q 7.078125 -10.640625 6.390625 -7.71875 
L 15.234375 -6.453125 
Q 16.109375 -10.109375 19.109375 -12.078125 
Q 22.125 -14.0625 27 -14.0625 
Q 29.984375 -14.0625 32.421875 -13.234375 
Q 34.859375 -12.40625 36.5625 -10.5625 
Q 38.28125 -8.734375 39.203125 -5.796875 
Q 40.140625 -2.875 40.140625 1.3125 
L 40.140625 9.8125 
L 40.046875 9.8125 
Q 39.0625 7.8125 37.625 5.984375 
Q 36.1875 4.15625 34.109375 2.734375 
Q 32.03125 1.3125 29.296875 0.453125 
Q 26.5625 -0.390625 23.046875 -0.390625 
Q 18.015625 -0.390625 14.421875 1.296875 
Q 10.84375 2.984375 8.5625 6.34375 
Q 6.296875 9.71875 5.25 14.71875 
Q 4.203125 19.734375 4.203125 26.3125 
Q 4.203125 32.671875 5.25 37.75 
Q 6.296875 42.828125 8.65625 46.359375 
Q 11.03125 49.90625 14.8125 51.78125 
Q 18.609375 53.65625 24.03125 53.65625 
Q 29.640625 53.65625 33.765625 51.09375 
Q 37.890625 48.53125 40.140625 43.796875 
L 40.234375 43.796875 
Q 40.234375 45.015625 40.296875 46.53125 
Q 40.375 48.046875 40.453125 49.390625 
Q 40.53125 50.734375 40.625 51.703125 
Q 40.71875 52.6875 40.828125 52.828125 
L 49.171875 52.828125 
Q 49.125 52.390625 49.078125 51.34375 
Q 49.03125 50.296875 48.96875 48.828125 
Q 48.921875 47.359375 48.890625 45.578125 
Q 48.875 43.796875 48.875 41.890625 
L 48.875 1.515625 
Q 48.875 -9.578125 43.421875 -15.15625 
Q 37.984375 -20.75 26.765625 -20.75 
M 40.140625 26.421875 
Q 40.140625 31.9375 38.9375 35.859375 
Q 37.75 39.796875 35.796875 42.28125 
Q 33.84375 44.78125 31.328125 45.953125 
Q 28.8125 47.125 26.171875 47.125 
Q 22.796875 47.125 20.375 45.953125 
Q 17.96875 44.78125 16.375 42.265625 
Q 14.796875 39.75 14.03125 35.8125 
Q 13.28125 31.890625 13.28125 26.421875 
Q 13.28125 20.703125 14.03125 16.8125 
Q 14.796875 12.9375 16.359375 10.546875 
Q 17.921875 8.15625 20.3125 7.125 
Q 22.703125 6.109375 26.03125 6.109375 
Q 28.65625 6.109375 31.171875 7.21875 
Q 33.6875 8.34375 35.6875 10.78125 
Q 37.703125 13.234375 38.921875 17.09375 
Q 40.140625 20.953125 40.140625 26.421875 
" id="LiberationSans-67"/>
      <path d="M 20.21875 -0.984375 
Q 12.25 -0.984375 8.25 3.21875 
Q 4.25 7.421875 4.25 14.75 
Q 4.25 19.96875 6.21875 23.3125 
Q 8.203125 26.65625 11.390625 28.5625 
Q 14.59375 30.46875 18.6875 31.203125 
Q 22.796875 31.9375 27.046875 32.03125 
L 38.921875 32.234375 
L 38.921875 35.109375 
Q 38.921875 38.375 38.234375 40.671875 
Q 37.546875 42.96875 36.125 44.375 
Q 34.71875 45.796875 32.59375 46.453125 
Q 30.46875 47.125 27.59375 47.125 
Q 25.046875 47.125 23 46.75 
Q 20.953125 46.390625 19.4375 45.4375 
Q 17.921875 44.484375 16.984375 42.84375 
Q 16.0625 41.21875 15.765625 38.71875 
L 6.59375 39.546875 
Q 7.078125 42.671875 8.4375 45.28125 
Q 9.8125 47.90625 12.328125 49.796875 
Q 14.84375 51.703125 18.625 52.75 
Q 22.40625 53.8125 27.78125 53.8125 
Q 37.75 53.8125 42.765625 49.234375 
Q 47.796875 44.671875 47.796875 36.03125 
L 47.796875 13.28125 
Q 47.796875 9.375 48.828125 7.390625 
Q 49.859375 5.421875 52.734375 5.421875 
Q 53.46875 5.421875 54.203125 5.515625 
Q 54.9375 5.609375 55.609375 5.765625 
L 55.609375 0.296875 
Q 53.953125 -0.09375 52.3125 -0.28125 
Q 50.6875 -0.484375 48.828125 -0.484375 
Q 46.34375 -0.484375 44.5625 0.171875 
Q 42.78125 0.828125 41.65625 2.171875 
Q 40.53125 3.515625 39.9375 5.484375 
Q 39.359375 7.46875 39.203125 10.109375 
L 38.921875 10.109375 
Q 37.5 7.5625 35.8125 5.515625 
Q 34.125 3.46875 31.875 2.03125 
Q 29.640625 0.59375 26.78125 -0.1875 
Q 23.921875 -0.984375 20.21875 -0.984375 
M 22.21875 5.609375 
Q 26.421875 5.609375 29.5625 7.140625 
Q 32.71875 8.6875 34.78125 11.078125 
Q 36.859375 13.484375 37.890625 16.3125 
Q 38.921875 19.140625 38.921875 21.734375 
L 38.921875 26.078125 
L 29.296875 25.875 
Q 26.078125 25.828125 23.171875 25.40625 
Q 20.265625 25 18.0625 23.78125 
Q 15.875 22.5625 14.578125 20.359375 
Q 13.28125 18.171875 13.28125 14.59375 
Q 13.28125 10.296875 15.59375 7.953125 
Q 17.921875 5.609375 22.21875 5.609375 
" id="LiberationSans-61"/>
      <path d="M 51.421875 26.65625 
Q 51.421875 20.65625 50.4375 15.578125 
Q 49.46875 10.5 47.1875 6.828125 
Q 44.921875 3.171875 41.1875 1.09375 
Q 37.453125 -0.984375 31.984375 -0.984375 
Q 26.3125 -0.984375 22.0625 1.171875 
Q 17.828125 3.328125 15.578125 8.203125 
L 15.328125 8.203125 
Q 15.375 8.109375 15.40625 7.328125 
Q 15.4375 6.546875 15.453125 5.375 
Q 15.484375 4.203125 15.5 2.75 
Q 15.53125 1.3125 15.53125 -0.09375 
L 15.53125 -20.75 
L 6.734375 -20.75 
L 6.734375 42.046875 
Q 6.734375 43.953125 6.703125 45.703125 
Q 6.6875 47.46875 6.640625 48.90625 
Q 6.59375 50.34375 6.546875 51.359375 
Q 6.5 52.390625 6.453125 52.828125 
L 14.9375 52.828125 
Q 14.984375 52.6875 15.0625 51.796875 
Q 15.140625 50.921875 15.203125 49.671875 
Q 15.28125 48.4375 15.359375 47.015625 
Q 15.4375 45.609375 15.4375 44.34375 
L 15.625 44.34375 
Q 16.84375 46.875 18.40625 48.65625 
Q 19.96875 50.4375 21.96875 51.578125 
Q 23.96875 52.734375 26.4375 53.25 
Q 28.90625 53.765625 31.984375 53.765625 
Q 37.453125 53.765625 41.1875 51.8125 
Q 44.921875 49.859375 47.1875 46.3125 
Q 49.46875 42.78125 50.4375 37.765625 
Q 51.421875 32.765625 51.421875 26.65625 
M 42.1875 26.46875 
Q 42.1875 31.34375 41.59375 35.15625 
Q 41.015625 38.96875 39.578125 41.59375 
Q 38.140625 44.234375 35.734375 45.59375 
Q 33.34375 46.96875 29.734375 46.96875 
Q 26.8125 46.96875 24.21875 46.140625 
Q 21.625 45.3125 19.703125 42.96875 
Q 17.78125 40.625 16.65625 36.5 
Q 15.53125 32.375 15.53125 25.78125 
Q 15.53125 20.171875 16.453125 16.28125 
Q 17.390625 12.40625 19.171875 10.015625 
Q 20.953125 7.625 23.578125 6.5625 
Q 26.21875 5.515625 29.640625 5.515625 
Q 33.296875 5.515625 35.71875 6.921875 
Q 38.140625 8.34375 39.578125 11.03125 
Q 41.015625 13.71875 41.59375 17.59375 
Q 42.1875 21.484375 42.1875 26.46875 
" id="LiberationSans-70"/>
      <path d="M 6.734375 0 
L 6.734375 72.46875 
L 15.53125 72.46875 
L 15.53125 0 
z
" id="LiberationSans-6c"/>
      <path d="M 41.21875 27 
Q 37.84375 27 34.296875 28.078125 
Q 30.765625 29.15625 27.203125 30.421875 
Q 20.90625 32.625 16.609375 32.625 
Q 14.75 32.625 13.15625 32.328125 
Q 11.578125 32.03125 10.109375 31.46875 
Q 8.640625 30.90625 7.265625 30.125 
Q 5.90625 29.34375 4.5 28.328125 
L 4.5 35.296875 
Q 6.9375 37.15625 10.15625 38.28125 
Q 13.375 39.40625 17.328125 39.40625 
Q 19.28125 39.40625 21.234375 39.078125 
Q 23.1875 38.765625 25.0625 38.28125 
Q 26.953125 37.796875 28.78125 37.15625 
Q 30.609375 36.53125 32.421875 35.890625 
Q 33.453125 35.5 34.671875 35.125 
Q 35.890625 34.765625 37.125 34.421875 
Q 38.375 34.078125 39.625 33.875 
Q 40.875 33.6875 42 33.6875 
Q 45.359375 33.6875 48.359375 34.90625 
Q 51.375 36.140625 53.90625 38.1875 
L 53.90625 30.90625 
Q 52.34375 29.78125 50.90625 29.046875 
Q 49.46875 28.328125 47.96875 27.859375 
Q 46.484375 27.390625 44.828125 27.1875 
Q 43.171875 27 41.21875 27 
" id="LiberationSans-7e"/>
     </defs>
     <g style="fill:#262626;" transform="translate(141.220781 412.773438)scale(0.11 -0.11)">
      <use xlink:href="#LiberationSans-54"/>
      <use x="61.037109" xlink:href="#LiberationSans-69"/>
      <use x="83.253906" xlink:href="#LiberationSans-6d"/>
      <use x="166.554688" xlink:href="#LiberationSans-65"/>
      <use x="222.169922" xlink:href="#LiberationSans-2c"/>
      <use x="249.953125" xlink:href="#LiberationSans-20"/>
      <use x="277.736328" xlink:href="#LiberationSans-73"/>
      <use x="327.736328" xlink:href="#LiberationSans-65"/>
      <use x="383.351562" xlink:href="#LiberationSans-63"/>
      <use x="433.351562" xlink:href="#LiberationSans-6f"/>
      <use x="488.966797" xlink:href="#LiberationSans-6e"/>
      <use x="544.582031" xlink:href="#LiberationSans-64"/>
      <use x="600.197266" xlink:href="#LiberationSans-73"/>
      <use x="650.197266" xlink:href="#LiberationSans-20"/>
      <use x="677.980469" xlink:href="#LiberationSans-66"/>
      <use x="705.763672" xlink:href="#LiberationSans-72"/>
      <use x="739.064453" xlink:href="#LiberationSans-6f"/>
      <use x="794.679688" xlink:href="#LiberationSans-6d"/>
      <use x="877.980469" xlink:href="#LiberationSans-20"/>
      <use x="905.763672" xlink:href="#LiberationSans-74"/>
      <use x="933.546875" xlink:href="#LiberationSans-65"/>
      <use x="989.162109" xlink:href="#LiberationSans-73"/>
      <use x="1039.162109" xlink:href="#LiberationSans-74"/>
      <use x="1066.945312" xlink:href="#LiberationSans-20"/>
      <use x="1094.728516" xlink:href="#LiberationSans-62"/>
      <use x="1150.34375" xlink:href="#LiberationSans-65"/>
      <use x="1205.958984" xlink:href="#LiberationSans-67"/>
      <use x="1261.574219" xlink:href="#LiberationSans-69"/>
      <use x="1283.791016" xlink:href="#LiberationSans-6e"/>
      <use x="1339.40625" xlink:href="#LiberationSans-2c"/>
      <use x="1367.189453" xlink:href="#LiberationSans-20"/>
      <use x="1394.972656" xlink:href="#LiberationSans-73"/>
      <use x="1444.972656" xlink:href="#LiberationSans-61"/>
      <use x="1500.587891" xlink:href="#LiberationSans-6d"/>
      <use x="1583.888672" xlink:href="#LiberationSans-70"/>
      <use x="1639.503906" xlink:href="#LiberationSans-6c"/>
      <use x="1661.720703" xlink:href="#LiberationSans-65"/>
      <use x="1717.335938" xlink:href="#LiberationSans-64"/>
      <use x="1772.951172" xlink:href="#LiberationSans-20"/>
      <use x="1800.734375" xlink:href="#LiberationSans-66"/>
      <use x="1828.517578" xlink:href="#LiberationSans-6f"/>
      <use x="1884.132812" xlink:href="#LiberationSans-72"/>
      <use x="1917.433594" xlink:href="#LiberationSans-20"/>
      <use x="1945.216797" xlink:href="#LiberationSans-7e"/>
      <use x="2003.615234" xlink:href="#LiberationSans-31"/>
      <use x="2059.230469" xlink:href="#LiberationSans-32"/>
      <use x="2114.845703" xlink:href="#LiberationSans-30"/>
      <use x="2170.460938" xlink:href="#LiberationSans-20"/>
      <use x="2198.244141" xlink:href="#LiberationSans-73"/>
      <use x="2248.244141" xlink:href="#LiberationSans-65"/>
      <use x="2303.859375" xlink:href="#LiberationSans-63"/>
      <use x="2353.859375" xlink:href="#LiberationSans-6f"/>
      <use x="2409.474609" xlink:href="#LiberationSans-6e"/>
      <use x="2465.089844" xlink:href="#LiberationSans-64"/>
      <use x="2520.705078" xlink:href="#LiberationSans-73"/>
     </g>
    </g>
   </g>
   <g id="matplotlib.axis_2">
    <g id="ytick_1">
     <g id="line2d_13">
      <path clip-path="url(#p2be8af6ba0)" d="M 90 354.717338 
L 475.2 354.717338 
" style="fill:none;stroke:#ffffff;stroke-linecap:round;"/>
     </g>
     <g id="line2d_14"/>
     <g id="text_8">
      <!-- 7.5 -->
      <defs>
       <path d="M 50.59375 61.671875 
Q 45.40625 53.765625 41.0625 46.453125 
Q 36.71875 39.15625 33.59375 31.75 
Q 30.46875 24.359375 28.734375 16.578125 
Q 27 8.796875 27 0 
L 17.828125 0 
Q 17.828125 8.25 19.78125 16.1875 
Q 21.734375 24.125 25.046875 31.765625 
Q 28.375 39.40625 32.765625 46.78125 
Q 37.15625 54.15625 42.09375 61.328125 
L 5.125 61.328125 
L 5.125 68.796875 
L 50.59375 68.796875 
z
" id="LiberationSans-37"/>
       <path d="M 9.125 0 
L 9.125 10.6875 
L 18.65625 10.6875 
L 18.65625 0 
z
" id="LiberationSans-2e"/>
      </defs>
      <g style="fill:#262626;" transform="translate(69.1 358.340775)scale(0.1 -0.1)">
       <use xlink:href="#LiberationSans-37"/>
       <use x="55.615234" xlink:href="#LiberationSans-2e"/>
       <use x="83.398438" xlink:href="#LiberationSans-35"/>
      </g>
     </g>
    </g>
    <g id="ytick_2">
     <g id="line2d_15">
      <path clip-path="url(#p2be8af6ba0)" d="M 90 314.401638 
L 475.2 314.401638 
" style="fill:none;stroke:#ffffff;stroke-linecap:round;"/>
     </g>
     <g id="line2d_16"/>
     <g id="text_9">
      <!-- 10.0 -->
      <g style="fill:#262626;" transform="translate(63.539062 318.025075)scale(0.1 -0.1)">
       <use xlink:href="#LiberationSans-31"/>
       <use x="55.615234" xlink:href="#LiberationSans-30"/>
       <use x="111.230469" xlink:href="#LiberationSans-2e"/>
       <use x="139.013672" xlink:href="#LiberationSans-30"/>
      </g>
     </g>
    </g>
    <g id="ytick_3">
     <g id="line2d_17">
      <path clip-path="url(#p2be8af6ba0)" d="M 90 274.085938 
L 475.2 274.085938 
" style="fill:none;stroke:#ffffff;stroke-linecap:round;"/>
     </g>
     <g id="line2d_18"/>
     <g id="text_10">
      <!-- 12.5 -->
      <g style="fill:#262626;" transform="translate(63.539062 277.709375)scale(0.1 -0.1)">
       <use xlink:href="#LiberationSans-31"/>
       <use x="55.615234" xlink:href="#LiberationSans-32"/>
       <use x="111.230469" xlink:href="#LiberationSans-2e"/>
       <use x="139.013672" xlink:href="#LiberationSans-35"/>
      </g>
     </g>
    </g>
    <g id="ytick_4">
     <g id="line2d_19">
      <path clip-path="url(#p2be8af6ba0)" d="M 90 233.770238 
L 475.2 233.770238 
" style="fill:none;stroke:#ffffff;stroke-linecap:round;"/>
     </g>
     <g id="line2d_20"/>
     <g id="text_11">
      <!-- 15.0 -->
      <g style="fill:#262626;" transform="translate(63.539062 237.393675)scale(0.1 -0.1)">
       <use xlink:href="#LiberationSans-31"/>
       <use x="55.615234" xlink:href="#LiberationSans-35"/>
       <use x="111.230469" xlink:href="#LiberationSans-2e"/>
       <use x="139.013672" xlink:href="#LiberationSans-30"/>
      </g>
     </g>
    </g>
    <g id="ytick_5">
     <g id="line2d_21">
      <path clip-path="url(#p2be8af6ba0)" d="M 90 193.454538 
L 475.2 193.454538 
" style="fill:none;stroke:#ffffff;stroke-linecap:round;"/>
     </g>
     <g id="line2d_22"/>
     <g id="text_12">
      <!-- 17.5 -->
      <g style="fill:#262626;" transform="translate(63.539062 197.077976)scale(0.1 -0.1)">
       <use xlink:href="#LiberationSans-31"/>
       <use x="55.615234" xlink:href="#LiberationSans-37"/>
       <use x="111.230469" xlink:href="#LiberationSans-2e"/>
       <use x="139.013672" xlink:href="#LiberationSans-35"/>
      </g>
     </g>
    </g>
    <g id="ytick_6">
     <g id="line2d_23">
      <path clip-path="url(#p2be8af6ba0)" d="M 90 153.138838 
L 475.2 153.138838 
" style="fill:none;stroke:#ffffff;stroke-linecap:round;"/>
     </g>
     <g id="line2d_24"/>
     <g id="text_13">
      <!-- 20.0 -->
      <g style="fill:#262626;" transform="translate(63.539062 156.762276)scale(0.1 -0.1)">
       <use xlink:href="#LiberationSans-32"/>
       <use x="55.615234" xlink:href="#LiberationSans-30"/>
       <use x="111.230469" xlink:href="#LiberationSans-2e"/>
       <use x="139.013672" xlink:href="#LiberationSans-30"/>
      </g>
     </g>
    </g>
    <g id="ytick_7">
     <g id="line2d_25">
      <path clip-path="url(#p2be8af6ba0)" d="M 90 112.823138 
L 475.2 112.823138 
" style="fill:none;stroke:#ffffff;stroke-linecap:round;"/>
     </g>
     <g id="line2d_26"/>
     <g id="text_14">
      <!-- 22.5 -->
      <g style="fill:#262626;" transform="translate(63.539062 116.446576)scale(0.1 -0.1)">
       <use xlink:href="#LiberationSans-32"/>
       <use x="55.615234" xlink:href="#LiberationSans-32"/>
       <use x="111.230469" xlink:href="#LiberationSans-2e"/>
       <use x="139.013672" xlink:href="#LiberationSans-35"/>
      </g>
     </g>
    </g>
    <g id="ytick_8">
     <g id="line2d_27">
      <path clip-path="url(#p2be8af6ba0)" d="M 90 72.507438 
L 475.2 72.507438 
" style="fill:none;stroke:#ffffff;stroke-linecap:round;"/>
     </g>
     <g id="line2d_28"/>
     <g id="text_15">
      <!-- 25.0 -->
      <g style="fill:#262626;" transform="translate(63.539062 76.130876)scale(0.1 -0.1)">
       <use xlink:href="#LiberationSans-32"/>
       <use x="55.615234" xlink:href="#LiberationSans-35"/>
       <use x="111.230469" xlink:href="#LiberationSans-2e"/>
       <use x="139.013672" xlink:href="#LiberationSans-30"/>
      </g>
     </g>
    </g>
    <g id="text_16">
     <!-- Latency, ms -->
     <defs>
      <path d="M 8.203125 0 
L 8.203125 68.796875 
L 17.53125 68.796875 
L 17.53125 7.625 
L 52.296875 7.625 
L 52.296875 0 
z
" id="LiberationSans-4c"/>
      <path d="M 29.5 0 
Q 27.640625 -4.78125 25.703125 -8.609375 
Q 23.78125 -12.453125 21.390625 -15.15625 
Q 19 -17.875 16.0625 -19.3125 
Q 13.140625 -20.75 9.328125 -20.75 
Q 7.671875 -20.75 6.25 -20.65625 
Q 4.828125 -20.5625 3.265625 -20.21875 
L 3.265625 -13.625 
Q 4.203125 -13.765625 5.375 -13.84375 
Q 6.546875 -13.921875 7.375 -13.921875 
Q 11.234375 -13.921875 14.546875 -11.03125 
Q 17.875 -8.15625 20.359375 -1.859375 
L 21.1875 0.25 
L 0.25 52.828125 
L 9.625 52.828125 
L 20.75 23.640625 
Q 21.234375 22.3125 21.984375 20.109375 
Q 22.75 17.921875 23.5 15.71875 
Q 24.265625 13.53125 24.84375 11.765625 
Q 25.4375 10.015625 25.53125 9.578125 
Q 25.6875 10.109375 26.25 11.6875 
Q 26.8125 13.28125 27.515625 15.234375 
Q 28.21875 17.1875 28.953125 19.1875 
Q 29.6875 21.1875 30.171875 22.65625 
L 40.53125 52.828125 
L 49.8125 52.828125 
z
" id="LiberationSans-79"/>
     </defs>
     <g style="fill:#262626;" transform="translate(57.256563 247.803281)rotate(-90)scale(0.11 -0.11)">
      <use xlink:href="#LiberationSans-4c"/>
      <use x="55.615234" xlink:href="#LiberationSans-61"/>
      <use x="111.230469" xlink:href="#LiberationSans-74"/>
      <use x="139.013672" xlink:href="#LiberationSans-65"/>
      <use x="194.628906" xlink:href="#LiberationSans-6e"/>
      <use x="250.244141" xlink:href="#LiberationSans-63"/>
      <use x="300.244141" xlink:href="#LiberationSans-79"/>
      <use x="350.134766" xlink:href="#LiberationSans-2c"/>
      <use x="377.917969" xlink:href="#LiberationSans-20"/>
      <use x="405.701172" xlink:href="#LiberationSans-6d"/>
      <use x="489.001953" xlink:href="#LiberationSans-73"/>
     </g>
    </g>
   </g>
   <g id="PolyCollection_1">
    <path clip-path="url(#p2be8af6ba0)" d="M 131.2003 369.36 
L 125.968314 369.36 
L 124.779898 366.472256 
L 123.424117 363.584511 
L 121.961213 360.696767 
L 120.442137 357.809023 
L 118.907792 354.921278 
L 117.389782 352.033534 
L 115.908097 349.14579 
L 114.47416 346.258046 
L 113.106699 343.370301 
L 111.850484 340.482557 
L 110.777576 337.594813 
L 109.96491 334.707068 
L 109.465177 331.819324 
L 109.292154 328.93158 
L 109.42513 326.043835 
L 109.822124 323.156091 
L 110.43147 320.268347 
L 111.199196 317.380602 
L 112.074169 314.492858 
L 113.01223 311.605114 
L 113.978677 308.71737 
L 114.948355 305.829625 
L 115.903712 302.941881 
L 116.832002 300.054137 
L 117.723066 297.166392 
L 118.568513 294.278648 
L 119.362035 291.390904 
L 120.09994 288.503159 
L 120.781299 285.615415 
L 121.40764 282.727671 
L 121.982151 279.839926 
L 122.508423 276.952182 
L 122.989219 274.064438 
L 123.426068 271.176693 
L 123.82006 268.288949 
L 124.173308 265.401205 
L 124.489816 262.513461 
L 124.77492 259.625716 
L 125.033734 256.737972 
L 125.269959 253.850228 
L 125.485817 250.962483 
L 125.682729 248.074739 
L 125.86196 245.186995 
L 126.024871 242.29925 
L 126.172836 239.411506 
L 126.307125 236.523762 
L 126.429097 233.636017 
L 126.540801 230.748273 
L 126.645417 227.860529 
L 126.746727 224.972785 
L 126.847198 222.08504 
L 126.945537 219.197296 
L 127.035776 216.309552 
L 127.109866 213.421807 
L 127.162982 210.534063 
L 127.197425 207.646319 
L 127.221419 204.758574 
L 127.243886 201.87083 
L 127.269929 198.983086 
L 127.300172 196.095341 
L 127.332896 193.207597 
L 127.366117 190.319853 
L 127.398286 187.432109 
L 127.428159 184.544364 
L 127.454796 181.65662 
L 127.477855 178.768876 
L 127.497782 175.881131 
L 127.515576 172.993387 
L 127.532322 170.105643 
L 127.548822 167.217898 
L 127.565453 164.330154 
L 127.582156 161.44241 
L 127.598529 158.554665 
L 127.614046 155.666921 
L 127.628331 152.779177 
L 127.641311 149.891433 
L 127.653168 147.003688 
L 127.664223 144.115944 
L 127.674821 141.2282 
L 127.685202 138.340455 
L 127.695328 135.452711 
L 127.704839 132.564967 
L 127.71328 129.677222 
L 127.7205 126.789478 
L 127.726871 123.901734 
L 127.733133 121.013989 
L 127.739991 118.126245 
L 127.747789 115.238501 
L 127.756465 112.350757 
L 127.765704 109.463012 
L 127.775147 106.575268 
L 127.784676 103.687524 
L 127.794945 100.799779 
L 127.808192 97.912035 
L 127.829095 95.024291 
L 127.864921 92.136546 
L 127.923874 89.248802 
L 128.010973 86.361058 
L 128.123055 83.473313 
L 129.045559 83.473313 
L 129.045559 83.473313 
L 129.157642 86.361058 
L 129.244741 89.248802 
L 129.303693 92.136546 
L 129.33952 95.024291 
L 129.360422 97.912035 
L 129.37367 100.799779 
L 129.383938 103.687524 
L 129.393468 106.575268 
L 129.40291 109.463012 
L 129.412149 112.350757 
L 129.420826 115.238501 
L 129.428624 118.126245 
L 129.435481 121.013989 
L 129.441744 123.901734 
L 129.448115 126.789478 
L 129.455334 129.677222 
L 129.463775 132.564967 
L 129.473286 135.452711 
L 129.483412 138.340455 
L 129.493793 141.2282 
L 129.504391 144.115944 
L 129.515446 147.003688 
L 129.527304 149.891433 
L 129.540283 152.779177 
L 129.554568 155.666921 
L 129.570085 158.554665 
L 129.586458 161.44241 
L 129.603162 164.330154 
L 129.619792 167.217898 
L 129.636292 170.105643 
L 129.653038 172.993387 
L 129.670833 175.881131 
L 129.69076 178.768876 
L 129.713819 181.65662 
L 129.740455 184.544364 
L 129.770329 187.432109 
L 129.802497 190.319853 
L 129.835718 193.207597 
L 129.868442 196.095341 
L 129.898686 198.983086 
L 129.924728 201.87083 
L 129.947196 204.758574 
L 129.97119 207.646319 
L 130.005632 210.534063 
L 130.058748 213.421807 
L 130.132838 216.309552 
L 130.223077 219.197296 
L 130.321416 222.08504 
L 130.421888 224.972785 
L 130.523197 227.860529 
L 130.627814 230.748273 
L 130.739517 233.636017 
L 130.86149 236.523762 
L 130.995778 239.411506 
L 131.143743 242.29925 
L 131.306654 245.186995 
L 131.485886 248.074739 
L 131.682797 250.962483 
L 131.898655 253.850228 
L 132.13488 256.737972 
L 132.393695 259.625716 
L 132.678798 262.513461 
L 132.995306 265.401205 
L 133.348554 268.288949 
L 133.742547 271.176693 
L 134.179395 274.064438 
L 134.660192 276.952182 
L 135.186464 279.839926 
L 135.760974 282.727671 
L 136.387315 285.615415 
L 137.068675 288.503159 
L 137.80658 291.390904 
L 138.600101 294.278648 
L 139.445548 297.166392 
L 140.336613 300.054137 
L 141.264902 302.941881 
L 142.220259 305.829625 
L 143.189938 308.71737 
L 144.156384 311.605114 
L 145.094445 314.492858 
L 145.969418 317.380602 
L 146.737144 320.268347 
L 147.34649 323.156091 
L 147.743484 326.043835 
L 147.876461 328.93158 
L 147.703438 331.819324 
L 147.203705 334.707068 
L 146.391038 337.594813 
L 145.31813 340.482557 
L 144.061915 343.370301 
L 142.694454 346.258046 
L 141.260517 349.14579 
L 139.778832 352.033534 
L 138.260823 354.921278 
L 136.726478 357.809023 
L 135.207401 360.696767 
L 133.744497 363.584511 
L 132.388717 366.472256 
L 131.2003 369.36 
z
" style="fill:#4c72b0;fill-opacity:0.3;"/>
   </g>
   <g id="PolyCollection_2">
    <path clip-path="url(#p2be8af6ba0)" d="M 208.376062 368.327916 
L 203.129781 368.327916 
L 201.920044 365.700798 
L 200.561905 363.073681 
L 199.118993 360.446563 
L 197.636442 357.819445 
L 196.150726 355.192328 
L 194.698339 352.56521 
L 193.307451 349.938092 
L 191.98368 347.310975 
L 190.716355 344.683857 
L 189.510791 342.056739 
L 188.415564 339.429622 
L 187.511654 336.802504 
L 186.871242 334.175386 
L 186.524955 331.548269 
L 186.460768 328.921151 
L 186.643739 326.294034 
L 187.034344 323.666916 
L 187.595526 321.039798 
L 188.292002 318.412681 
L 189.088624 315.785563 
L 189.95104 313.158445 
L 190.848006 310.531328 
L 191.753583 307.90421 
L 192.648317 305.277092 
L 193.519168 302.649975 
L 194.358099 300.022857 
L 195.159933 297.395739 
L 195.920843 294.768622 
L 196.638168 292.141504 
L 197.310727 289.514386 
L 197.938455 286.887269 
L 198.521456 284.260151 
L 199.059589 281.633033 
L 199.553303 279.005916 
L 200.004997 276.378798 
L 200.41937 273.75168 
L 200.802064 271.124563 
L 201.15757 268.497445 
L 201.488093 265.870327 
L 201.793975 263.24321 
L 202.074898 260.616092 
L 202.330841 257.988974 
L 202.562473 255.361857 
L 202.771229 252.734739 
L 202.959251 250.107622 
L 203.129196 247.480504 
L 203.283874 244.853386 
L 203.425781 242.226269 
L 203.556711 239.599151 
L 203.677635 236.972033 
L 203.788862 234.344916 
L 203.89047 231.717798 
L 203.983053 229.09068 
L 204.068597 226.463563 
L 204.150748 223.836445 
L 204.233359 221.209327 
L 204.317128 218.58221 
L 204.396717 215.955092 
L 204.462322 213.327974 
L 204.506497 210.700857 
L 204.530679 208.073739 
L 204.544661 205.446621 
L 204.559535 202.819504 
L 204.581251 200.192386 
L 204.609736 197.565268 
L 204.641886 194.938151 
L 204.674459 192.311033 
L 204.705287 189.683915 
L 204.733392 187.056798 
L 204.758755 184.42968 
L 204.781945 181.802562 
L 204.803738 179.175445 
L 204.824831 176.548327 
L 204.845717 173.92121 
L 204.866699 171.294092 
L 204.888016 168.666974 
L 204.909827 166.039857 
L 204.931891 163.412739 
L 204.953195 160.785621 
L 204.972197 158.158504 
L 204.987771 155.531386 
L 205.000041 152.904268 
L 205.010283 150.277151 
L 205.020032 147.650033 
L 205.030223 145.022915 
L 205.040946 142.395798 
L 205.051742 139.76868 
L 205.062003 137.141562 
L 205.07124 134.514445 
L 205.079321 131.887327 
L 205.086707 129.260209 
L 205.094442 126.633092 
L 205.103816 124.005974 
L 205.116292 121.378856 
L 205.134381 118.751739 
L 205.163021 116.124621 
L 205.209472 113.497503 
L 205.279817 110.870386 
L 205.373133 108.243268 
L 206.13271 108.243268 
L 206.13271 108.243268 
L 206.226027 110.870386 
L 206.296371 113.497503 
L 206.342822 116.124621 
L 206.371462 118.751739 
L 206.389551 121.378856 
L 206.402027 124.005974 
L 206.411401 126.633092 
L 206.419136 129.260209 
L 206.426522 131.887327 
L 206.434603 134.514445 
L 206.44384 137.141562 
L 206.454101 139.76868 
L 206.464897 142.395798 
L 206.47562 145.022915 
L 206.485811 147.650033 
L 206.49556 150.277151 
L 206.505802 152.904268 
L 206.518072 155.531386 
L 206.533646 158.158504 
L 206.552648 160.785621 
L 206.573952 163.412739 
L 206.596016 166.039857 
L 206.617828 168.666974 
L 206.639144 171.294092 
L 206.660126 173.92121 
L 206.681012 176.548327 
L 206.702105 179.175445 
L 206.723898 181.802562 
L 206.747088 184.42968 
L 206.772451 187.056798 
L 206.800556 189.683915 
L 206.831384 192.311033 
L 206.863957 194.938151 
L 206.896107 197.565268 
L 206.924592 200.192386 
L 206.946308 202.819504 
L 206.961182 205.446621 
L 206.975164 208.073739 
L 206.999346 210.700857 
L 207.043522 213.327974 
L 207.109126 215.955092 
L 207.188715 218.58221 
L 207.272484 221.209327 
L 207.355095 223.836445 
L 207.437246 226.463563 
L 207.52279 229.09068 
L 207.615373 231.717798 
L 207.716981 234.344916 
L 207.828208 236.972033 
L 207.949132 239.599151 
L 208.080062 242.226269 
L 208.221969 244.853386 
L 208.376647 247.480504 
L 208.546592 250.107622 
L 208.734614 252.734739 
L 208.94337 255.361857 
L 209.175002 257.988974 
L 209.430945 260.616092 
L 209.711868 263.24321 
L 210.01775 265.870327 
L 210.348273 268.497445 
L 210.703779 271.124563 
L 211.086473 273.75168 
L 211.500847 276.378798 
L 211.95254 279.005916 
L 212.446254 281.633033 
L 212.984387 284.260151 
L 213.567388 286.887269 
L 214.195116 289.514386 
L 214.867675 292.141504 
L 215.585 294.768622 
L 216.34591 297.395739 
L 217.147744 300.022857 
L 217.986675 302.649975 
L 218.857526 305.277092 
L 219.75226 307.90421 
L 220.657837 310.531328 
L 221.554803 313.158445 
L 222.417219 315.785563 
L 223.213841 318.412681 
L 223.910317 321.039798 
L 224.471499 323.666916 
L 224.862104 326.294034 
L 225.045075 328.921151 
L 224.980888 331.548269 
L 224.634601 334.175386 
L 223.994189 336.802504 
L 223.090279 339.429622 
L 221.995052 342.056739 
L 220.789488 344.683857 
L 219.522163 347.310975 
L 218.198392 349.938092 
L 216.807504 352.56521 
L 215.355117 355.192328 
L 213.869401 357.819445 
L 212.38685 360.446563 
L 210.943938 363.073681 
L 209.585799 365.700798 
L 208.376062 368.327916 
z
" style="fill:#4c72b0;fill-opacity:0.3;"/>
   </g>
   <g id="PolyCollection_3">
    <path clip-path="url(#p2be8af6ba0)" d="M 285.462465 368.327916 
L 280.380607 368.327916 
L 279.219342 365.533997 
L 277.897461 362.740078 
L 276.471219 359.94616 
L 274.985308 357.152241 
L 273.475918 354.358322 
L 271.973864 351.564403 
L 270.500918 348.770484 
L 269.069356 345.976566 
L 267.695937 343.182647 
L 266.421846 340.388728 
L 265.31607 337.594809 
L 264.45376 334.80089 
L 263.886839 332.006972 
L 263.629382 329.213053 
L 263.662709 326.419134 
L 263.949297 323.625215 
L 264.444568 320.831296 
L 265.103579 318.037378 
L 265.884469 315.243459 
L 266.750207 312.44954 
L 267.668796 309.655621 
L 268.612469 306.861702 
L 269.557253 304.067784 
L 270.483723 301.273865 
L 271.378164 298.479946 
L 272.232764 295.686027 
L 273.044178 292.892108 
L 273.811107 290.09819 
L 274.532262 287.304271 
L 275.205757 284.510352 
L 275.829768 281.716433 
L 276.403431 278.922514 
L 276.927198 276.128596 
L 277.402819 273.334677 
L 277.833404 270.540758 
L 278.223457 267.746839 
L 278.578281 264.95292 
L 278.902729 262.159002 
L 279.200102 259.365083 
L 279.471886 256.571164 
L 279.718327 253.777245 
L 279.939491 250.983326 
L 280.136393 248.189408 
L 280.311639 245.395489 
L 280.469071 242.60157 
L 280.6126 239.807651 
L 280.745088 237.013732 
L 280.867962 234.219814 
L 280.981616 231.425895 
L 281.0863 228.631976 
L 281.183095 225.838057 
L 281.274143 223.044138 
L 281.361128 220.25022 
L 281.442568 217.456301 
L 281.5129 214.662382 
L 281.565898 211.868463 
L 281.600343 209.074544 
L 281.622259 206.280626 
L 281.641083 203.486707 
L 281.663622 200.692788 
L 281.691314 197.898869 
L 281.721897 195.10495 
L 281.752459 192.311032 
L 281.781158 189.517113 
L 281.807352 186.723194 
L 281.831184 183.929275 
L 281.853291 181.135356 
L 281.874568 178.341438 
L 281.895681 175.547519 
L 281.916491 172.7536 
L 281.936001 169.959681 
L 281.953075 167.165762 
L 281.967364 164.371844 
L 281.979595 161.577925 
L 281.991082 158.784006 
L 282.002961 155.990087 
L 282.015717 153.196168 
L 282.029069 150.40225 
L 282.042145 147.608331 
L 282.053913 144.814412 
L 282.063776 142.020493 
L 282.071975 139.226574 
L 282.07942 136.432656 
L 282.087003 133.638737 
L 282.094998 130.844818 
L 282.103134 128.050899 
L 282.111149 125.25698 
L 282.119143 122.463062 
L 282.12747 119.669143 
L 282.136471 116.875224 
L 282.146329 114.081305 
L 282.157007 111.287386 
L 282.16842 108.493468 
L 282.181335 105.699549 
L 282.19902 102.90563 
L 282.228486 100.111711 
L 282.279302 97.317792 
L 282.358825 94.523874 
L 282.465805 91.729955 
L 283.377267 91.729955 
L 283.377267 91.729955 
L 283.484247 94.523874 
L 283.56377 97.317792 
L 283.614586 100.111711 
L 283.644052 102.90563 
L 283.661737 105.699549 
L 283.674652 108.493468 
L 283.686065 111.287386 
L 283.696743 114.081305 
L 283.706601 116.875224 
L 283.715602 119.669143 
L 283.723929 122.463062 
L 283.731923 125.25698 
L 283.739938 128.050899 
L 283.748074 130.844818 
L 283.756069 133.638737 
L 283.763652 136.432656 
L 283.771097 139.226574 
L 283.779296 142.020493 
L 283.789159 144.814412 
L 283.800927 147.608331 
L 283.814003 150.40225 
L 283.827354 153.196168 
L 283.840111 155.990087 
L 283.85199 158.784006 
L 283.863476 161.577925 
L 283.875708 164.371844 
L 283.889996 167.165762 
L 283.907071 169.959681 
L 283.92658 172.7536 
L 283.94739 175.547519 
L 283.968504 178.341438 
L 283.989781 181.135356 
L 284.011887 183.929275 
L 284.03572 186.723194 
L 284.061914 189.517113 
L 284.090612 192.311032 
L 284.121175 195.10495 
L 284.151758 197.898869 
L 284.17945 200.692788 
L 284.201988 203.486707 
L 284.220813 206.280626 
L 284.242729 209.074544 
L 284.277174 211.868463 
L 284.330172 214.662382 
L 284.400504 217.456301 
L 284.481944 220.25022 
L 284.568928 223.044138 
L 284.659976 225.838057 
L 284.756772 228.631976 
L 284.861455 231.425895 
L 284.975109 234.219814 
L 285.097983 237.013732 
L 285.230472 239.807651 
L 285.374001 242.60157 
L 285.531433 245.395489 
L 285.706679 248.189408 
L 285.903581 250.983326 
L 286.124745 253.777245 
L 286.371186 256.571164 
L 286.64297 259.365083 
L 286.940343 262.159002 
L 287.264791 264.95292 
L 287.619615 267.746839 
L 288.009668 270.540758 
L 288.440253 273.334677 
L 288.915874 276.128596 
L 289.439641 278.922514 
L 290.013304 281.716433 
L 290.637315 284.510352 
L 291.31081 287.304271 
L 292.031965 290.09819 
L 292.798894 292.892108 
L 293.610308 295.686027 
L 294.464908 298.479946 
L 295.359349 301.273865 
L 296.285819 304.067784 
L 297.230603 306.861702 
L 298.174275 309.655621 
L 299.092865 312.44954 
L 299.958603 315.243459 
L 300.739493 318.037378 
L 301.398504 320.831296 
L 301.893775 323.625215 
L 302.180362 326.419134 
L 302.213689 329.213053 
L 301.956233 332.006972 
L 301.389312 334.80089 
L 300.527002 337.594809 
L 299.421226 340.388728 
L 298.147134 343.182647 
L 296.773716 345.976566 
L 295.342154 348.770484 
L 293.869208 351.564403 
L 292.367154 354.358322 
L 290.857763 357.152241 
L 289.371853 359.94616 
L 287.945611 362.740078 
L 286.62373 365.533997 
L 285.462465 368.327916 
z
" style="fill:#4c72b0;fill-opacity:0.3;"/>
   </g>
   <g id="PolyCollection_4">
    <path clip-path="url(#p2be8af6ba0)" d="M 362.861226 366.263756 
L 357.319075 366.263756 
L 356.103213 363.532387 
L 354.731363 360.801019 
L 353.268894 358.069651 
L 351.769875 355.338282 
L 350.272837 352.606914 
L 348.800213 349.875546 
L 347.360788 347.144177 
L 345.961179 344.412809 
L 344.624693 341.681441 
L 343.402166 338.950072 
L 342.361733 336.218704 
L 341.563956 333.487336 
L 341.041913 330.755967 
L 340.797997 328.024599 
L 340.812992 325.293231 
L 341.056804 322.561862 
L 341.495164 319.830494 
L 342.09273 317.099126 
L 342.814715 314.367757 
L 343.628175 311.636389 
L 344.503021 308.905021 
L 345.412468 306.173652 
L 346.332983 303.442284 
L 347.244245 300.710916 
L 348.129525 297.979547 
L 348.976393 295.248179 
L 349.77715 292.516811 
L 350.528445 289.785442 
L 351.230018 287.054074 
L 351.883171 284.322706 
L 352.489823 281.591337 
L 353.052376 278.859969 
L 353.573699 276.128601 
L 354.056513 273.397232 
L 354.502396 270.665864 
L 354.911447 267.934496 
L 355.283154 265.203127 
L 355.617906 262.471759 
L 355.917965 259.740391 
L 356.187254 257.009022 
L 356.43024 254.277654 
L 356.650762 251.546286 
L 356.851478 248.814917 
L 357.03405 246.083549 
L 357.199713 243.352181 
L 357.349789 240.620812 
L 357.485892 237.889444 
L 357.609858 235.158076 
L 357.723607 232.426707 
L 357.82921 229.695339 
L 357.929192 226.963971 
L 358.026535 224.232602 
L 358.1235 221.501234 
L 358.21921 218.769866 
L 358.307936 216.038497 
L 358.380926 213.307129 
L 358.431982 210.575761 
L 358.462609 207.844392 
L 358.481835 205.113024 
L 358.500727 202.381656 
L 358.526535 199.650287 
L 358.560751 196.918919 
L 358.600941 194.187551 
L 358.643534 191.456182 
L 358.685509 188.724814 
L 358.72486 185.993446 
L 358.760488 183.262077 
L 358.792012 180.530709 
L 358.819605 177.799341 
L 358.843877 175.067972 
L 358.865844 172.336604 
L 358.886885 169.605236 
L 358.908406 166.873867 
L 358.931191 164.142499 
L 358.954861 161.411131 
L 358.978053 158.679762 
L 358.999365 155.948394 
L 359.018359 153.217026 
L 359.035774 150.485657 
L 359.052815 147.754289 
L 359.070187 145.022921 
L 359.087694 142.291552 
L 359.104576 139.560184 
L 359.120164 136.828816 
L 359.134289 134.097447 
L 359.147253 131.366079 
L 359.159595 128.634711 
L 359.17192 125.903342 
L 359.184856 123.171974 
L 359.198947 120.440606 
L 359.214402 117.709237 
L 359.230991 114.977869 
L 359.24855 112.246501 
L 359.268256 109.515132 
L 359.29414 106.783764 
L 359.333628 104.052396 
L 359.395662 101.321027 
L 359.486023 98.589659 
L 359.601949 95.858291 
L 360.578351 95.858291 
L 360.578351 95.858291 
L 360.694278 98.589659 
L 360.784638 101.321027 
L 360.846673 104.052396 
L 360.88616 106.783764 
L 360.912045 109.515132 
L 360.931751 112.246501 
L 360.94931 114.977869 
L 360.965898 117.709237 
L 360.981354 120.440606 
L 360.995445 123.171974 
L 361.008381 125.903342 
L 361.020706 128.634711 
L 361.033048 131.366079 
L 361.046012 134.097447 
L 361.060136 136.828816 
L 361.075725 139.560184 
L 361.092607 142.291552 
L 361.110113 145.022921 
L 361.127486 147.754289 
L 361.144526 150.485657 
L 361.161942 153.217026 
L 361.180936 155.948394 
L 361.202248 158.679762 
L 361.22544 161.411131 
L 361.24911 164.142499 
L 361.271895 166.873867 
L 361.293416 169.605236 
L 361.314456 172.336604 
L 361.336424 175.067972 
L 361.360695 177.799341 
L 361.388289 180.530709 
L 361.419813 183.262077 
L 361.45544 185.993446 
L 361.494791 188.724814 
L 361.536767 191.456182 
L 361.579359 194.187551 
L 361.61955 196.918919 
L 361.653765 199.650287 
L 361.679573 202.381656 
L 361.698465 205.113024 
L 361.717691 207.844392 
L 361.748319 210.575761 
L 361.799375 213.307129 
L 361.872364 216.038497 
L 361.961091 218.769866 
L 362.0568 221.501234 
L 362.153765 224.232602 
L 362.251108 226.963971 
L 362.35109 229.695339 
L 362.456693 232.426707 
L 362.570442 235.158076 
L 362.694408 237.889444 
L 362.830511 240.620812 
L 362.980588 243.352181 
L 363.146251 246.083549 
L 363.328823 248.814917 
L 363.529538 251.546286 
L 363.75006 254.277654 
L 363.993046 257.009022 
L 364.262336 259.740391 
L 364.562395 262.471759 
L 364.897146 265.203127 
L 365.268853 267.934496 
L 365.677904 270.665864 
L 366.123788 273.397232 
L 366.606601 276.128601 
L 367.127925 278.859969 
L 367.690477 281.591337 
L 368.297129 284.322706 
L 368.950282 287.054074 
L 369.651855 289.785442 
L 370.40315 292.516811 
L 371.203907 295.248179 
L 372.050775 297.979547 
L 372.936055 300.710916 
L 373.847317 303.442284 
L 374.767833 306.173652 
L 375.677279 308.905021 
L 376.552126 311.636389 
L 377.365586 314.367757 
L 378.08757 317.099126 
L 378.685137 319.830494 
L 379.123497 322.561862 
L 379.367308 325.293231 
L 379.382304 328.024599 
L 379.138388 330.755967 
L 378.616345 333.487336 
L 377.818567 336.218704 
L 376.778134 338.950072 
L 375.555608 341.681441 
L 374.219121 344.412809 
L 372.819513 347.144177 
L 371.380088 349.875546 
L 369.907464 352.606914 
L 368.410425 355.338282 
L 366.911406 358.069651 
L 365.448937 360.801019 
L 364.077088 363.532387 
L 362.861226 366.263756 
z
" style="fill:#4c72b0;fill-opacity:0.3;"/>
   </g>
   <g id="PolyCollection_5">
    <path clip-path="url(#p2be8af6ba0)" d="M 439.944852 366.263756 
L 433.929605 366.263756 
L 432.596644 363.240485 
L 431.097949 360.217215 
L 429.509696 357.193945 
L 427.889893 354.170675 
L 426.272673 351.147404 
L 424.675201 348.124134 
L 423.114193 345.100864 
L 421.625988 342.077594 
L 420.276423 339.054323 
L 419.148815 336.031053 
L 418.315785 333.007783 
L 417.81521 329.984513 
L 417.645075 326.961242 
L 417.774636 323.937972 
L 418.159569 320.914702 
L 418.752431 317.891432 
L 419.507506 314.868161 
L 420.382592 311.844891 
L 421.339599 308.821621 
L 422.344335 305.79835 
L 423.365947 302.77508 
L 424.376982 299.75181 
L 425.35453 296.72854 
L 426.281684 293.705269 
L 427.148104 290.681999 
L 427.949343 287.658729 
L 428.685521 284.635459 
L 429.35997 281.612188 
L 429.97787 278.588918 
L 430.544771 275.565648 
L 431.065238 272.542378 
L 431.542067 269.519107 
L 431.976412 266.495837 
L 432.368749 263.472567 
L 432.720232 260.449297 
L 433.033693 257.426026 
L 433.313641 254.402756 
L 433.565275 251.379486 
L 433.793182 248.356216 
L 434.000481 245.332945 
L 434.188764 242.309675 
L 434.358711 239.286405 
L 434.511071 236.263135 
L 434.647562 233.239864 
L 434.771341 230.216594 
L 434.88673 227.193324 
L 434.997953 224.170053 
L 435.106885 221.146783 
L 435.210936 218.123513 
L 435.3033 215.100243 
L 435.376886 212.076972 
L 435.429657 209.053702 
L 435.466721 206.030432 
L 435.497115 203.007162 
L 435.528309 199.983891 
L 435.563128 196.960621 
L 435.600583 193.937351 
L 435.638515 190.914081 
L 435.675513 187.89081 
L 435.711233 184.86754 
L 435.745686 181.84427 
L 435.778476 178.821 
L 435.808639 175.797729 
L 435.835139 172.774459 
L 435.857577 169.751189 
L 435.876544 166.727919 
L 435.893362 163.704648 
L 435.909455 160.681378 
L 435.925794 157.658108 
L 435.942726 154.634838 
L 435.960095 151.611567 
L 435.977412 148.588297 
L 435.993921 145.565027 
L 436.008661 142.541756 
L 436.020725 139.518486 
L 436.02974 136.495216 
L 436.036279 133.471946 
L 436.041825 130.448675 
L 436.048185 127.425405 
L 436.056662 124.402135 
L 436.067481 121.378865 
L 436.079751 118.355594 
L 436.091928 115.332324 
L 436.102499 112.309054 
L 436.11054 109.285784 
L 436.11591 106.262513 
L 436.11909 103.239243 
L 436.120901 100.215973 
L 436.122303 97.192703 
L 436.124306 94.169432 
L 436.127817 91.146162 
L 436.133482 88.122892 
L 436.141816 85.099622 
L 436.154042 82.076351 
L 436.173592 79.053081 
L 436.207198 76.029811 
L 436.263661 73.006541 
L 436.349206 69.98327 
L 436.461509 66.96 
L 437.412948 66.96 
L 437.412948 66.96 
L 437.525251 69.98327 
L 437.610796 73.006541 
L 437.667259 76.029811 
L 437.700866 79.053081 
L 437.720415 82.076351 
L 437.732641 85.099622 
L 437.740975 88.122892 
L 437.746641 91.146162 
L 437.750152 94.169432 
L 437.752154 97.192703 
L 437.753557 100.215973 
L 437.755367 103.239243 
L 437.758548 106.262513 
L 437.763917 109.285784 
L 437.771958 112.309054 
L 437.782529 115.332324 
L 437.794706 118.355594 
L 437.806976 121.378865 
L 437.817795 124.402135 
L 437.826273 127.425405 
L 437.832632 130.448675 
L 437.838179 133.471946 
L 437.844718 136.495216 
L 437.853733 139.518486 
L 437.865797 142.541756 
L 437.880536 145.565027 
L 437.897045 148.588297 
L 437.914363 151.611567 
L 437.931732 154.634838 
L 437.948664 157.658108 
L 437.965003 160.681378 
L 437.981095 163.704648 
L 437.997913 166.727919 
L 438.01688 169.751189 
L 438.039319 172.774459 
L 438.065818 175.797729 
L 438.095981 178.821 
L 438.128772 181.84427 
L 438.163225 184.86754 
L 438.198944 187.89081 
L 438.235942 190.914081 
L 438.273874 193.937351 
L 438.311329 196.960621 
L 438.346149 199.983891 
L 438.377342 203.007162 
L 438.407736 206.030432 
L 438.4448 209.053702 
L 438.497571 212.076972 
L 438.571158 215.100243 
L 438.663521 218.123513 
L 438.767572 221.146783 
L 438.876505 224.170053 
L 438.987727 227.193324 
L 439.103116 230.216594 
L 439.226895 233.239864 
L 439.363386 236.263135 
L 439.515746 239.286405 
L 439.685693 242.309675 
L 439.873976 245.332945 
L 440.081276 248.356216 
L 440.309183 251.379486 
L 440.560816 254.402756 
L 440.840764 257.426026 
L 441.154225 260.449297 
L 441.505708 263.472567 
L 441.898046 266.495837 
L 442.332391 269.519107 
L 442.80922 272.542378 
L 443.329686 275.565648 
L 443.896588 278.588918 
L 444.514487 281.612188 
L 445.188937 284.635459 
L 445.925115 287.658729 
L 446.726353 290.681999 
L 447.592774 293.705269 
L 448.519928 296.72854 
L 449.497475 299.75181 
L 450.50851 302.77508 
L 451.530123 305.79835 
L 452.534858 308.821621 
L 453.491865 311.844891 
L 454.366952 314.868161 
L 455.122026 317.891432 
L 455.714889 320.914702 
L 456.099821 323.937972 
L 456.229382 326.961242 
L 456.059247 329.984513 
L 455.558672 333.007783 
L 454.725643 336.031053 
L 453.598034 339.054323 
L 452.248469 342.077594 
L 450.760265 345.100864 
L 449.199257 348.124134 
L 447.601785 351.147404 
L 445.984565 354.170675 
L 444.364762 357.193945 
L 442.776508 360.217215 
L 441.277813 363.240485 
L 439.944852 366.263756 
z
" style="fill:#4c72b0;fill-opacity:0.3;"/>
   </g>
   <g id="LineCollection_1">
    <path clip-path="url(#p2be8af6ba0)" d="M 118.93823 299.78532 
L 138.230384 299.78532 
" style="fill:none;stroke:#0000ff;stroke-width:1.75;"/>
    <path clip-path="url(#p2be8af6ba0)" d="M 196.106845 304.863477 
L 215.398998 304.863477 
" style="fill:none;stroke:#0000ff;stroke-width:1.75;"/>
    <path clip-path="url(#p2be8af6ba0)" d="M 273.275459 300.92023 
L 292.567613 300.92023 
" style="fill:none;stroke:#0000ff;stroke-width:1.75;"/>
    <path clip-path="url(#p2be8af6ba0)" d="M 350.444073 297.732026 
L 369.736227 297.732026 
" style="fill:none;stroke:#0000ff;stroke-width:1.75;"/>
    <path clip-path="url(#p2be8af6ba0)" d="M 427.291152 295.638252 
L 446.583306 295.638252 
" style="fill:none;stroke:#0000ff;stroke-width:1.75;"/>
   </g>
   <g id="LineCollection_2">
    <path clip-path="url(#p2be8af6ba0)" d="M 118.93823 83.473313 
L 138.230384 83.473313 
" style="fill:none;stroke:#4c72b0;stroke-width:1.75;"/>
    <path clip-path="url(#p2be8af6ba0)" d="M 196.106845 108.243268 
L 215.398998 108.243268 
" style="fill:none;stroke:#4c72b0;stroke-width:1.75;"/>
    <path clip-path="url(#p2be8af6ba0)" d="M 273.275459 91.729955 
L 292.567613 91.729955 
" style="fill:none;stroke:#4c72b0;stroke-width:1.75;"/>
    <path clip-path="url(#p2be8af6ba0)" d="M 350.444073 95.858291 
L 369.736227 95.858291 
" style="fill:none;stroke:#4c72b0;stroke-width:1.75;"/>
    <path clip-path="url(#p2be8af6ba0)" d="M 427.291152 66.96 
L 446.583306 66.96 
" style="fill:none;stroke:#4c72b0;stroke-width:1.75;"/>
   </g>
   <g id="LineCollection_3">
    <path clip-path="url(#p2be8af6ba0)" d="M 118.93823 369.36 
L 138.230384 369.36 
" style="fill:none;stroke:#4c72b0;stroke-width:1.75;"/>
    <path clip-path="url(#p2be8af6ba0)" d="M 196.106845 368.327916 
L 215.398998 368.327916 
" style="fill:none;stroke:#4c72b0;stroke-width:1.75;"/>
    <path clip-path="url(#p2be8af6ba0)" d="M 273.275459 368.327916 
L 292.567613 368.327916 
" style="fill:none;stroke:#4c72b0;stroke-width:1.75;"/>
    <path clip-path="url(#p2be8af6ba0)" d="M 350.444073 366.263756 
L 369.736227 366.263756 
" style="fill:none;stroke:#4c72b0;stroke-width:1.75;"/>
    <path clip-path="url(#p2be8af6ba0)" d="M 427.291152 366.263756 
L 446.583306 366.263756 
" style="fill:none;stroke:#4c72b0;stroke-width:1.75;"/>
   </g>
   <g id="LineCollection_4">
    <path clip-path="url(#p2be8af6ba0)" d="M 128.584307 369.36 
L 128.584307 83.473313 
" style="fill:none;stroke:#4c72b0;stroke-width:1.75;"/>
    <path clip-path="url(#p2be8af6ba0)" d="M 205.752922 368.327916 
L 205.752922 108.243268 
" style="fill:none;stroke:#4c72b0;stroke-width:1.75;"/>
    <path clip-path="url(#p2be8af6ba0)" d="M 282.921536 368.327916 
L 282.921536 91.729955 
" style="fill:none;stroke:#4c72b0;stroke-width:1.75;"/>
    <path clip-path="url(#p2be8af6ba0)" d="M 360.09015 366.263756 
L 360.09015 95.858291 
" style="fill:none;stroke:#4c72b0;stroke-width:1.75;"/>
    <path clip-path="url(#p2be8af6ba0)" d="M 436.937229 366.263756 
L 436.937229 66.96 
" style="fill:none;stroke:#4c72b0;stroke-width:1.75;"/>
   </g>
   <g id="LineCollection_5">
    <path clip-path="url(#p2be8af6ba0)" d="M 118.93823 316.723823 
L 138.230384 316.723823 
" style="fill:none;stroke:#008000;stroke-width:1.75;"/>
    <path clip-path="url(#p2be8af6ba0)" d="M 196.106845 318.787991 
L 215.398998 318.787991 
" style="fill:none;stroke:#008000;stroke-width:1.75;"/>
    <path clip-path="url(#p2be8af6ba0)" d="M 273.275459 316.723823 
L 292.567613 316.723823 
" style="fill:none;stroke:#008000;stroke-width:1.75;"/>
    <path clip-path="url(#p2be8af6ba0)" d="M 350.444073 312.595487 
L 369.736227 312.595487 
" style="fill:none;stroke:#008000;stroke-width:1.75;"/>
    <path clip-path="url(#p2be8af6ba0)" d="M 427.291152 312.595487 
L 446.583306 312.595487 
" style="fill:none;stroke:#008000;stroke-width:1.75;"/>
   </g>
   <g id="patch_3">
    <path d="M 90 384.48 
L 90 51.84 
" style="fill:none;"/>
   </g>
   <g id="patch_4">
    <path d="M 475.2 384.48 
L 475.2 51.84 
" style="fill:none;"/>
   </g>
   <g id="patch_5">
    <path d="M 90 384.48 
L 475.2 384.48 
" style="fill:none;"/>
   </g>
   <g id="patch_6">
    <path d="M 90 51.84 
L 475.2 51.84 
" style="fill:none;"/>
   </g>
   <g id="text_17">
    <!-- Latency -->
    <g style="fill:#262626;" transform="translate(261.586875 45.84)scale(0.12 -0.12)">
     <use xlink:href="#LiberationSans-4c"/>
     <use x="55.615234" xlink:href="#LiberationSans-61"/>
     <use x="111.230469" xlink:href="#LiberationSans-74"/>
     <use x="139.013672" xlink:href="#LiberationSans-65"/>
     <use x="194.628906" xlink:href="#LiberationSans-6e"/>
     <use x="250.244141" xlink:href="#LiberationSans-63"/>
     <use x="300.244141" xlink:href="#LiberationSans-79"/>
    </g>
   </g>
   <g id="legend_1">
    <g id="line2d_29">
     <path d="M 495.756 106.9666 
L 515.756 106.9666 
" style="fill:none;stroke:#0000ff;stroke-width:1.75;"/>
    </g>
    <g id="text_18">
     <!-- mean -->
     <g style="fill:#262626;" transform="translate(523.756 110.4666)scale(0.1 -0.1)">
      <use xlink:href="#LiberationSans-6d"/>
      <use x="83.300781" xlink:href="#LiberationSans-65"/>
      <use x="138.916016" xlink:href="#LiberationSans-61"/>
      <use x="194.53125" xlink:href="#LiberationSans-6e"/>
     </g>
    </g>
    <g id="line2d_30">
     <path d="M 495.756 121.288475 
L 515.756 121.288475 
" style="fill:none;stroke:#008000;stroke-width:1.75;"/>
    </g>
    <g id="text_19">
     <!-- median -->
     <g style="fill:#262626;" transform="translate(523.756 124.788475)scale(0.1 -0.1)">
      <use xlink:href="#LiberationSans-6d"/>
      <use x="83.300781" xlink:href="#LiberationSans-65"/>
      <use x="138.916016" xlink:href="#LiberationSans-64"/>
      <use x="194.53125" xlink:href="#LiberationSans-69"/>
      <use x="216.748047" xlink:href="#LiberationSans-61"/>
      <use x="272.363281" xlink:href="#LiberationSans-6e"/>
     </g>
    </g>
   </g>
  </g>
 </g>
 <defs>
  <clipPath id="p2be8af6ba0">
   <rect height="332.64" width="385.2" x="90" y="51.84"/>
  </clipPath>
 </defs>
</svg>
